<svg id="RGB_university_primary" xmlns="http://www.w3.org/2000/svg" width="228.555" height="64" viewBox="0 0 228.555 64">
  <g id="TheUniversityOfTexasAtAustin" transform="translate(56.322 52.292)">
    <g id="Austin" transform="translate(136.842 0.045)">
      <path id="Path_684" data-name="Path 684" d="M865.564,239.643l-.806,2.306,1.075.157-.067.425-1.477-.045-1.321.045-.067-.425.963-.134L866.907,234l.739-.2,3.223,8.193.963.134-.067.425-1.7-.045-1.634.045-.067-.425,1.052-.157-.828-2.306h-3.022Zm1.634-3.828-.09-.672-1.366,3.917h2.619Z" transform="translate(-862.9 -233.8)" fill="#d6d2c4"/>
      <path id="Path_685" data-name="Path 685" d="M906.431,251.031a1.9,1.9,0,0,0,.157.918h.627l.045.425-1.589.313-.336-1.007-1.791,1.119c-1.634,0-1.9-.582-1.9-2.015v-3.224l-.873.067-.067-.47,1.477-.313.6-.045v4.1c0,.649.269.918.873.918a2.987,2.987,0,0,0,1.343-.627l.246-.157v-3.47l-.739.067-.067-.47,1.366-.313.627-.045Z" transform="translate(-892.238 -243.89)" fill="#d6d2c4"/>
      <path id="Path_686" data-name="Path 686" d="M935.635,246.818a1.954,1.954,0,0,0-.94-.269c-.47,0-.94.269-.94.716,0,.4.313.649.851.918l.94.47c.828.425,1.164.9,1.164,1.589,0,1.119-.9,1.522-2.306,1.836a4.355,4.355,0,0,1-1.88-.56l-.224-1.388h.784l.425,1.03a1.852,1.852,0,0,0,1.007.313.9.9,0,0,0,.985-.94c0-.47-.269-.694-.9-1.03l-.963-.515a1.644,1.644,0,0,1-1.03-1.433c0-.851.806-1.343,2.239-1.657a3.231,3.231,0,0,1,1.746.56v1.231h-.649Z" transform="translate(-916.765 -243.191)" fill="#d6d2c4"/>
      <path id="Path_687" data-name="Path 687" d="M953.9,242.339v-.2l.425-.425h.806v-.806l.806-.806h.313v1.679h1.858v.56h-1.836v3.6c0,.358.134.739.649.739a2.183,2.183,0,0,0,.963-.291l.2.425-1.433.806c-1.388,0-1.567-.493-1.567-1.612v-3.671Z" transform="translate(-933.529 -238.69)" fill="#d6d2c4"/>
      <path id="Path_688" data-name="Path 688" d="M977.045,243.051l-1.41.045-.067-.425.851-.112v-4.5l-.851.067-.067-.425,1.477-.381.6-.045v5.283l.918.112-.067.425Zm-.6-8.484.9-.067.336.067.067.694-.134.582-.873.067-.336-.067-.067-.694Z" transform="translate(-950.294 -234.343)" fill="#d6d2c4"/>
      <path id="Path_689" data-name="Path 689" d="M992.745,252.132l-1.41.045-.067-.425.851-.112v-4.5l-.851.067-.067-.425,1.477-.381.537-.045.067,1.03L995.1,246.2c1.567,0,1.836.537,1.836,2.015v3.425l.94.112-.067.425-1.41-.045-1.186.045-.067-.425.627-.112v-3.515c0-.649-.291-.918-.806-.918a2.469,2.469,0,0,0-1.276.56l-.381.246v3.649l.672.112-.067.425Z" transform="translate(-962.479 -243.424)" fill="#d6d2c4"/>
    </g>
    <g id="at" transform="translate(124.933 1.455)">
      <path id="Path_690" data-name="Path 690" d="M812.118,246.1c1.544,0,1.948.4,1.948,1.948v2.418a1.566,1.566,0,0,0,.2.918h.627l.045.425-1.589.313-.381-.94-1.455,1.074a1.6,1.6,0,0,1-1.813-1.567,1.849,1.849,0,0,1,.425-1.142l2.776-.918v-.6c0-.739-.067-1.186-.716-1.186a2.887,2.887,0,0,0-1.007.224l-.2.985h-1.052v-.94Zm.761,3.022-1.791.739a.946.946,0,0,0-.246.694c0,.627.358.851.716.851a1.487,1.487,0,0,0,.806-.313l.515-.358Z" transform="translate(-809.7 -244.757)" fill="#d6d2c4"/>
      <path id="Path_691" data-name="Path 691" d="M832.8,242.339v-.2l.425-.425h.806v-.806l.806-.806h.313v1.679h1.858v.56h-1.858v3.6c0,.358.134.739.649.739a2.365,2.365,0,0,0,.985-.291l.2.425-1.433.806c-1.388,0-1.567-.493-1.567-1.612v-3.671Z" transform="translate(-827.629 -240.1)" fill="#d6d2c4"/>
    </g>
    <g id="Texas" transform="translate(92.116 0.179)">
      <path id="Path_692" data-name="Path 692" d="M668.652,243.018l-1.992-.045-2.059.045-.067-.425,1.477-.157v-7.454l-1.858.022-.56,1.567H663.1V234.4l3.537.045,3.537-.045v2.171h-.47l-.56-1.567-1.858-.022v7.454l1.41.157Z" transform="translate(-663.1 -234.4)" fill="#d6d2c4"/>
      <path id="Path_693" data-name="Path 693" d="M693.587,248.943c0,1.41.761,2.4,2.037,2.4a3.17,3.17,0,0,0,1.545-.515l.2.47a6.985,6.985,0,0,1-2.149.963,2.776,2.776,0,0,1-2.821-3,3.067,3.067,0,0,1,2.776-3.156c1.634,0,2.171,1.03,2.171,2.306v.515h-3.761Zm2.462-.627c0-.94-.179-1.612-1.142-1.612-.739,0-1.231.694-1.321,1.724Z" transform="translate(-685.841 -243.481)" fill="#d6d2c4"/>
      <path id="Path_694" data-name="Path 694" d="M718.773,252.272l-.067.425-.963-.045-1.276.045-.067-.425.873-.112,1.813-2.239-1.791-2.44-.761-.134.067-.448,1.41.045,1.164-.045.067.448-.492.134.918,1.366.09.313,1.164-1.679-.6-.134.067-.448.963.045,1.276-.045.067.448-.9.134-1.634,1.97,1.925,2.731.761.112-.067.425-1.41-.045-1.164.045-.067-.425.515-.112-1.1-1.589-.089-.291-1.3,1.88Z" transform="translate(-704.469 -244.102)" fill="#d6d2c4"/>
      <path id="Path_695" data-name="Path 695" d="M749.662,246.1c1.545,0,1.948.4,1.948,1.948v2.418a1.565,1.565,0,0,0,.2.918h.6l.045.425-1.589.313-.381-.94-1.477,1.074a1.6,1.6,0,0,1-1.813-1.567,1.849,1.849,0,0,1,.425-1.142l2.776-.918v-.6c0-.739-.067-1.186-.716-1.186a2.887,2.887,0,0,0-1.007.224l-.2.985h-1.052v-.94Zm.761,3.022-1.791.739a.946.946,0,0,0-.246.694c0,.627.358.851.716.851a1.488,1.488,0,0,0,.806-.313l.515-.358Z" transform="translate(-728.374 -243.481)" fill="#d6d2c4"/>
      <path id="Path_696" data-name="Path 696" d="M776.235,246.818a2.047,2.047,0,0,0-.94-.269c-.47,0-.94.269-.94.716,0,.4.313.649.851.918l.94.47c.828.425,1.164.9,1.164,1.589,0,1.119-.9,1.522-2.306,1.836a4.459,4.459,0,0,1-1.88-.56l-.224-1.388h.784l.425,1.03a1.852,1.852,0,0,0,1.007.313.9.9,0,0,0,.985-.94c0-.47-.246-.694-.9-1.03l-.963-.515a1.644,1.644,0,0,1-1.03-1.433c0-.851.806-1.343,2.239-1.657a3.231,3.231,0,0,1,1.746.56v1.231h-.649Z" transform="translate(-748.321 -243.326)" fill="#d6d2c4"/>
    </g>
    <g id="of" transform="translate(78.148 0.09)">
      <path id="Path_697" data-name="Path 697" d="M606.476,249.055c0,1.836-1.119,2.888-3.022,3.2a2.755,2.755,0,0,1-2.753-2.932c0-1.858,1.119-2.888,3.022-3.224A2.749,2.749,0,0,1,606.476,249.055Zm-2.709,2.6c.985,0,1.5-1.007,1.5-2.328,0-1.567-.761-2.619-1.813-2.619-1.007,0-1.5,1.007-1.5,2.35C601.931,250.465,602.67,251.652,603.767,251.652Z" transform="translate(-600.7 -243.391)" fill="#d6d2c4"/>
      <path id="Path_698" data-name="Path 698" d="M631.139,237.022h1.545v.582h-1.545v4.544l1.41.09-.067.47-1.9-.045-1.41.045-.067-.425.873-.112v-4.544H628.9v-.2l.381-.425H630v-.112a2.345,2.345,0,0,1,.672-1.724L631.7,234h1.545v.985h-1.589l-.246.336a2.2,2.2,0,0,0-.269,1.388v.313Z" transform="translate(-622.587 -234)" fill="#d6d2c4"/>
    </g>
    <g id="University" transform="translate(21.289 0.157)">
      <path id="Path_699" data-name="Path 699" d="M352.14,234.725l.067-.425,1.567.045,1.433-.045.067.425-1.052.157V239.9c0,1.612-.649,2.664-3.112,3.246-2.418,0-3.291-1.3-3.291-3.268v-4.992l-1.119-.157.067-.425,1.7.045,1.679-.045.067.425-1.052.157v5.171c0,1.522.649,2.4,2.06,2.4,1.276,0,1.992-.851,1.992-2.44V234.86Z" transform="translate(-346.7 -234.3)" fill="#d6d2c4"/>
      <path id="Path_700" data-name="Path 700" d="M387.145,252.132l-1.41.045-.067-.425.851-.112v-4.5l-.851.067-.067-.425,1.477-.381.537-.045.067,1.03L389.5,246.2c1.567,0,1.836.537,1.836,2.015v3.425l.94.112-.067.425-1.41-.045-1.186.045-.067-.425.627-.112v-3.515c0-.649-.291-.918-.806-.918a2.469,2.469,0,0,0-1.276.56l-.358.246v3.649l.672.112-.067.425Z" transform="translate(-376.892 -243.536)" fill="#d6d2c4"/>
      <path id="Path_701" data-name="Path 701" d="M418.645,243.051l-1.41.045-.067-.425.851-.112v-4.5l-.851.067-.067-.425,1.477-.381.627-.045v5.283l.918.112-.067.425Zm-.627-8.484.9-.067.336.067.067.694-.134.582-.873.067-.336-.067-.067-.694Z" transform="translate(-401.341 -234.455)" fill="#d6d2c4"/>
      <path id="Path_702" data-name="Path 702" d="M434.225,251.914l1.5-4.455-.56-.134.067-.425,1.074.045,1.03-.045.067.425-.783.134-2.015,5.059-.9.381-2.149-5.44-.761-.134.067-.425,1.41.045,1.3-.045.067.425-.806.134,1.343,3.6Z" transform="translate(-411.974 -244.079)" fill="#d6d2c4"/>
      <path id="Path_703" data-name="Path 703" d="M461.309,248.943c0,1.41.761,2.4,2.037,2.4a3.171,3.171,0,0,0,1.545-.515l.2.47a6.985,6.985,0,0,1-2.149.963,2.792,2.792,0,0,1-2.843-3,3.067,3.067,0,0,1,2.776-3.156c1.634,0,2.171,1.03,2.171,2.306v.515h-3.738Zm2.485-.627c0-.94-.179-1.612-1.142-1.612-.761,0-1.231.694-1.321,1.724Z" transform="translate(-434.715 -243.459)" fill="#d6d2c4"/>
      <path id="Path_704" data-name="Path 704" d="M487.615,248.124l1.41-1.724h.985v1.231h-.918a2.922,2.922,0,0,0-1.164.873l-.246.291v2.932l1.3.112-.067.47-1.791-.045-1.388.045-.067-.425.851-.112v-4.5l-.851.067-.067-.425,1.477-.381.492-.045Z" transform="translate(-454.507 -243.691)" fill="#d6d2c4"/>
      <path id="Path_705" data-name="Path 705" d="M511.035,246.818a2.047,2.047,0,0,0-.94-.269c-.47,0-.94.269-.94.716,0,.4.313.649.851.918l.94.47c.828.425,1.164.9,1.164,1.589,0,1.119-.9,1.522-2.306,1.836a4.355,4.355,0,0,1-1.88-.56l-.224-1.388h.784l.425,1.03a1.852,1.852,0,0,0,1.007.313.905.905,0,0,0,.985-.94c0-.47-.246-.694-.9-1.03l-.963-.515a1.644,1.644,0,0,1-1.03-1.433c0-.851.806-1.343,2.239-1.657a3.231,3.231,0,0,1,1.746.56v1.231h-.649Z" transform="translate(-471.659 -243.303)" fill="#d6d2c4"/>
      <path id="Path_706" data-name="Path 706" d="M532.445,243.051l-1.41.045-.067-.425.851-.112v-4.5l-.851.067-.067-.425,1.477-.381.6-.045v5.283l.918.112-.067.425Zm-.6-8.484.9-.067.336.067.067.694-.134.582-.873.067-.336-.067-.067-.694Z" transform="translate(-489.666 -234.455)" fill="#d6d2c4"/>
      <path id="Path_707" data-name="Path 707" d="M549.5,250.308v-1.231h1.052l1.231-1.858-.493.157-2.059-5.193h-1.858v3.761c0,.358.134.739.649.739a2.732,2.732,0,0,0,1.075-.336l.2.425-1.545.851c-1.388,0-1.567-.493-1.567-1.612v-3.671H545v-.2l.425-.425h.806v-.806l.806-.806h.313v1.545h3.873l.067.425-.806.134,1.365,3.6.09.851,1.522-4.455-.56-.134.067-.425,1.075.045,1.03-.045.067.425-.784.134-1.992,5.037-1.388,3.112H549.5Z" transform="translate(-500.61 -238.802)" fill="#d6d2c4"/>
    </g>
    <g id="The">
      <path id="Path_708" data-name="Path 708" d="M262.994,242.353l-1.164.045-.067-.425.6-.112v-3.515c0-.649-.291-.918-.784-.918a2.79,2.79,0,0,0-1.3.56l-.358.224v3.649l.672.112-.067.425-1.164-.045-1.3.045-.067-.425.739-.112v-7.544l-.448.067-2.507-.045v7.454l1.41.157-.067.425-1.992-.045-2.059.045-.067-.425,1.477-.157v-7.454l-1.858.045-.56,1.545h-.47v-2.171l3.537.022,3.022-.022,1.321-.157h.425v3.985l1.791-1.164c1.567,0,1.836.582,1.836,2.149v3.268l.918.112-.067.425Z" transform="translate(-251.6 -233.6)" fill="#d6d2c4"/>
      <path id="Path_709" data-name="Path 709" d="M312.609,248.943c0,1.41.761,2.4,2.037,2.4a3.171,3.171,0,0,0,1.545-.515l.2.47a6.985,6.985,0,0,1-2.149.963,2.792,2.792,0,0,1-2.843-3,3.067,3.067,0,0,1,2.776-3.156c1.634,0,2.171,1.03,2.171,2.306v.515h-3.738Zm2.462-.627c0-.94-.179-1.612-1.142-1.612-.761,0-1.231.694-1.321,1.724Z" transform="translate(-298.013 -243.302)" fill="#d6d2c4"/>
    </g>
  </g>
  <g id="ShieldTexas">
    <g id="LgTexas" transform="translate(49.696 2.015)">
      <path id="Path_710" data-name="Path 710" d="M914.674,27.849l-6.648-2.888c-3.179-1.388-5.44-3.358-5.44-6.537,0-3.873,2.709-6.357,7.3-6.357a8.573,8.573,0,0,1,6.828,2.843l1.679,5.261h2.888V12.358A18.478,18.478,0,0,0,910.689,9c-8.036,1.679-13.834,5.373-13.834,11.685,0,5.149,3.425,7.813,7.589,9.6l7.007,3.067c3.47,1.5,6.022,3.761,6.022,7.7,0,4.231-2.888,7.342-7.857,7.342a10.752,10.752,0,0,1-8.148-3.649l-2.015-4.925H895.4l1.276,7.813a18.093,18.093,0,0,0,11.976,3.94c10.879-2.261,14.573-7.522,14.573-12.961C923.225,32.706,919.241,29.818,914.674,27.849Z" transform="translate(-744.656 -9)" fill="#d6d2c4"/>
      <path id="Path_711" data-name="Path 711" d="M602.018,11.1l-3.47.985L584.2,49.581l-2.776.381-2.776-.425L565.8,30.62,577.663,14.3l4.522-.627-.291-2.015-6.76.179-6.76-.179-.291,2.015,5.037.761-9.178,13.5L555.77,14.391l4.925-.761-.291-2.015-8.215.224-8.283-.224-.291,2.015,4.522.627,11.976,18.11L547.622,49.558l-4.522.627.291,2.082,6.469-.179,6.76.179.291-2.082-4.746-.694,9.872-14.416,9,14.371-4.925.761.291,2.082,8.283-.179,6.76.134,4.746-.134,6.939.179.291-2.015-5.037-.761L592.147,38.7h14.282l3.94,10.812-4.925.761.291,2.015,7.633-.179,7.992.179.291-2.015-4.522-.627Zm-8.977,24.8,6-17.349L605.354,35.9Z" transform="translate(-471.22 -10.63)" fill="#d6d2c4"/>
      <path id="Path_712" data-name="Path 712" d="M412,51.119l-15.916.179V33.927l8.1.246,2.306,6.066h2.037l-.582-7.813.582-7.23h-2.037l-2.306,6.066-8.1.246v-15.4l15.334.179,3.246,7.522h1.97L416.05,13.4l-22.967.179-7.992-.179-.291,2.015,5.216.761V51.231l-5.216.761.291,2.015,7.992-.179,22.967.179,2.015-10.7h-2.194Z" transform="translate(-348.357 -12.415)" fill="#d6d2c4"/>
      <path id="Path_713" data-name="Path 713" d="M222,13.4V23.63h2.261l2.664-7.342,8.663-.112V51.231l-6.939.761.291,2.015,9.715-.179,9.38.179.291-2.015-6.648-.761V16.176l8.663.112L253,23.63h2.261V13.4l-16.655.179Z" transform="translate(-222 -12.415)" fill="#d6d2c4"/>
    </g>
    <g id="Shield">
      <path id="Laurel" d="M45.351,97.946a3.249,3.249,0,0,1-1.7,1.007A3.38,3.38,0,0,1,46.2,96.133a3.189,3.189,0,0,1-.851,1.813Zm-2.44-3.94a3.335,3.335,0,0,1,.336-1.97,3.462,3.462,0,0,1,.828,1.813,3.335,3.335,0,0,1-.336,1.97,3.462,3.462,0,0,1-.828-1.813Zm1.343-5.149a3.381,3.381,0,0,1,.224-1.992,3.492,3.492,0,0,1,.94,1.768,3.381,3.381,0,0,1-.224,1.992,3.585,3.585,0,0,1-.94-1.768Zm3.268,1.5a3.521,3.521,0,0,1-.448,1.948,3.375,3.375,0,0,1-1.455,1.343,3.521,3.521,0,0,1,.448-1.948,3.255,3.255,0,0,1,1.455-1.343ZM42.531,103.14a3.4,3.4,0,0,1-1.88.649,3.366,3.366,0,0,1,1.186-1.589,3.4,3.4,0,0,1,1.88-.649,3.329,3.329,0,0,1-1.186,1.589Zm-1.589-4.388a3.315,3.315,0,0,1,.739-1.858,3.25,3.25,0,0,1,.425,1.948,3.38,3.38,0,0,1-.739,1.858,3.613,3.613,0,0,1-.425-1.948Zm-1.768,4.589a3.491,3.491,0,0,1-1.1,1.657,3.36,3.36,0,0,1-.022-1.992,3.491,3.491,0,0,1,1.1-1.657,3.36,3.36,0,0,1,.022,1.992ZM40.2,106.3a3.437,3.437,0,0,1-1.5,1.321,3.187,3.187,0,0,1-1.366.291h0a5.489,5.489,0,0,1-.6-.045,3.437,3.437,0,0,1,1.5-1.321,3.476,3.476,0,0,1,1.97-.246Zm-5.865.269a3.561,3.561,0,0,1,1.41-1.41,3.47,3.47,0,0,1-.381,1.948,3.3,3.3,0,0,1-1.41,1.41,3.131,3.131,0,0,1,.381-1.948Zm-7.589,1.052a3.3,3.3,0,0,1-1.5-1.321,3.383,3.383,0,0,1,3.47,1.567,3.476,3.476,0,0,1-1.97-.246Zm-.492-4.276a3.36,3.36,0,0,1,.022-1.992,3.491,3.491,0,0,1,1.1,1.657A3.36,3.36,0,0,1,27.354,105a3.491,3.491,0,0,1-1.1-1.657Zm3.425,1.836a3.373,3.373,0,0,1,1.41,1.388,3.47,3.47,0,0,1,.381,1.948,3.3,3.3,0,0,1-1.41-1.41,3.359,3.359,0,0,1-.381-1.925ZM22.9,103.14a3.525,3.525,0,0,1-1.209-1.589,3.4,3.4,0,0,1,1.88.649,3.227,3.227,0,0,1,1.186,1.589,3.58,3.58,0,0,1-1.858-.649Zm.851-6.223a3.484,3.484,0,0,1,.739,1.858,3.436,3.436,0,0,1-.448,1.948,3.484,3.484,0,0,1-.739-1.858,3.628,3.628,0,0,1,.448-1.948Zm-3.671,1.03a3.678,3.678,0,0,1-.851-1.813,3.4,3.4,0,0,1,1.7,1.007,3.589,3.589,0,0,1,.851,1.813,3.11,3.11,0,0,1-1.7-1.007Zm-.246-4.3a3.375,3.375,0,0,1-1.455-1.343,3.478,3.478,0,0,1-.448-1.948A3.375,3.375,0,0,1,19.384,91.7a3.179,3.179,0,0,1,.448,1.948Zm.179-5.014a3.415,3.415,0,0,1,.94-1.768,3.491,3.491,0,0,1,.224,1.97,3.415,3.415,0,0,1-.94,1.768,3.469,3.469,0,0,1-.224-1.97Zm1.366,5.216a3.462,3.462,0,0,1,.828-1.813,3.306,3.306,0,0,1,.336,1.97,3.462,3.462,0,0,1-.828,1.813,3.335,3.335,0,0,1-.336-1.97Zm24,.851a4.2,4.2,0,0,0,2.462-1.948,4.3,4.3,0,0,0,.47-3.112l-.112-.47-.47.134a4.2,4.2,0,0,0-1.433.761,4.735,4.735,0,0,0,0-1.589,4.307,4.307,0,0,0-1.679-2.664l-.381-.291-.246.4a4.269,4.269,0,0,0,1.1,5.731,5.136,5.136,0,0,0-.336,1.142,4.253,4.253,0,0,0-1.3-1.836l-.381-.313-.291.4a4.236,4.236,0,0,0-.761,3.044,4.317,4.317,0,0,0,1.522,2.753l.022.022a3.968,3.968,0,0,0-.582,1.1,4.42,4.42,0,0,0-.9-2.082l-.291-.381-.358.336a4.264,4.264,0,0,0-.47,5.82l.022.022a4.6,4.6,0,0,0-.806.94,4.25,4.25,0,0,0-.448-2.216l-.224-.425-.425.246a4.317,4.317,0,0,0-1.948,2.485,4.235,4.235,0,0,0,.291,3.134v.022a4.014,4.014,0,0,0-.963.761,4.3,4.3,0,0,0,.022-2.261l-.112-.47-.448.157a4.42,4.42,0,0,0-2.418,2.037,4.28,4.28,0,0,0-.381,3.022c-.134.09-.291.2-.425.291-.157-.112-.291-.2-.425-.291a4.262,4.262,0,0,0-2.8-5.059l-.448-.157-.112.47a4.3,4.3,0,0,0,.022,2.261,4.135,4.135,0,0,0-.985-.761l.022-.022a4.263,4.263,0,0,0-1.657-5.619l-.425-.246-.224.425a4.25,4.25,0,0,0-.448,2.216,4.072,4.072,0,0,0-.806-.94l.022-.022a4.307,4.307,0,0,0,.918-3.022,4.263,4.263,0,0,0-1.388-2.821l-.358-.336-.291.381a4.237,4.237,0,0,0-.9,2.082,4.311,4.311,0,0,0-.582-1.1l.022-.022a4.22,4.22,0,0,0,1.522-2.753,4.317,4.317,0,0,0-.761-3.044l-.291-.4-.381.313a4.075,4.075,0,0,0-1.3,1.836,3.363,3.363,0,0,0-.336-1.142A4.318,4.318,0,0,0,22,88.992a4.273,4.273,0,0,0-.582-3.089l-.246-.4-.358.313a4.307,4.307,0,0,0-1.679,2.664,3.8,3.8,0,0,0,0,1.589,4.9,4.9,0,0,0-1.433-.761l-.47-.134-.112.47A4.282,4.282,0,0,0,20.056,94.7l.4.112a5.506,5.506,0,0,0,.246,1.007,4.035,4.035,0,0,0-1.948-.649l-.47-.045v.492a4.252,4.252,0,0,0,3.917,4.32l.425.045a3.886,3.886,0,0,0,.448.918,4.236,4.236,0,0,0-1.5-.269,4.312,4.312,0,0,0-.537.022l-.47.067.09.47a4.245,4.245,0,0,0,1.7,2.664,4.188,4.188,0,0,0,2.507.806,4.312,4.312,0,0,0,.537-.022l.425-.045a4.331,4.331,0,0,0,.627.806,4.206,4.206,0,0,0-2.037.179l-.448.157.179.448a4.209,4.209,0,0,0,2.194,2.239,4.28,4.28,0,0,0,1.724.381,4.348,4.348,0,0,0,1.41-.246l.336-.112c.56.47,1.186.94,2.059,1.545-.4.269-.828.537-1.321.873l.851.515c.47-.313.9-.582,1.276-.851.381.246.806.537,1.276.851l.851-.515c-.492-.313-.918-.6-1.321-.873.873-.6,1.5-1.074,2.059-1.545l.336.112a4.348,4.348,0,0,0,1.41.246h0a4.122,4.122,0,0,0,1.724-.381,4.286,4.286,0,0,0,2.194-2.239l.179-.448-.448-.157A4.206,4.206,0,0,0,38.9,105.4a4.332,4.332,0,0,0,.627-.806l.425.045a4.312,4.312,0,0,0,.537.022h0A4.188,4.188,0,0,0,43,103.856a4.437,4.437,0,0,0,1.7-2.664l.09-.47-.47-.067a4.725,4.725,0,0,0-2.037.246,4.967,4.967,0,0,0,.448-.918l.425-.045a4.263,4.263,0,0,0,2.821-1.388,4.2,4.2,0,0,0,1.1-2.932v-.492l-.492.045a4.285,4.285,0,0,0-1.948.649,3.9,3.9,0,0,0,.246-1.007l.492-.112Z" transform="translate(-13.206 -66.36)" fill="#d6d2c4"/>
      <path id="Star" d="M57.263,87.241l1.164-2.91,1.164,2.932,3.134.2L60.308,89.48l.783,3.044-2.664-1.679-2.664,1.679.783-3.044-2.44-2.015,3.156-.224Zm-7.119-1.03h0L55.226,89.9l-1.948,6.022a.022.022,0,0,0,.022.022h.022l5.126-3.716,5.126,3.716H63.6c.022-.022.022-.045,0-.045l-1.948-6,5.081-3.694h0c.022,0,.045-.022.022-.067,0-.022-.022-.022-.045-.022H60.42l-1.948-5.977h0a.045.045,0,1,0-.09,0h0l-1.948,5.977H50.167a.082.082,0,0,0-.067.022c0,.045,0,.067.045.067Z" transform="translate(-38.885 -62.169)" fill="#d6d2c4"/>
      <path id="Book" d="M57.821,26.862a21.068,21.068,0,0,0-2.977-.313,5.646,5.646,0,0,0-1.3.134l-.2-5.932v-.985a3.94,3.94,0,0,1,1.567-.269,18.9,18.9,0,0,1,2.776.291c.873.134,1.791.246,2.731.313l.246,7.1a24.6,24.6,0,0,1-2.843-.336Zm-10.118,0a24.6,24.6,0,0,1-2.843.336l.246-7.1c.94-.067,1.836-.179,2.731-.313a18.9,18.9,0,0,1,2.776-.291,3.866,3.866,0,0,1,1.567.269v.985l-.2,5.932a5.646,5.646,0,0,0-1.3-.134,21.068,21.068,0,0,0-2.977.313ZM62.768,22.7V21.355H61.94V19.027h-.56a25.957,25.957,0,0,1-3.515-.336,20.6,20.6,0,0,0-2.932-.291,5.114,5.114,0,0,0-2.149.4,5.114,5.114,0,0,0-2.149-.4,23.61,23.61,0,0,0-2.932.291,22.8,22.8,0,0,1-3.515.336h-.56v2.306H42.8v1.343h.828v1.836H42.8v1.343h.828v2.507h.56a24.866,24.866,0,0,0,3.716-.381,20.145,20.145,0,0,1,2.8-.313,3.272,3.272,0,0,1,1.545.291h1.075a3.272,3.272,0,0,1,1.545-.291,19.434,19.434,0,0,1,2.8.313,25.49,25.49,0,0,0,3.716.381h.56V25.854h.828V24.511H61.94V22.676h.828Zm-14.909-1.88v.918h-.045c-.582.09-1.164.179-1.768.246l.022-.918c.537-.067,1.075-.134,1.612-.224a.493.493,0,0,0,.179-.022Zm.672-.09v.918a11.928,11.928,0,0,1,2.6-.157l.022-.9a10.553,10.553,0,0,0-2.619.134Zm-.672,4.208c-.067,0-.112.022-.157.022-.582.09-1.164.179-1.746.246l-.022.918c.649-.067,1.3-.157,1.925-.246H47.9v-.94Zm.672-.09v.918a12.046,12.046,0,0,1,2.44-.179l.022-.9a13.6,13.6,0,0,0-2.462.157ZM47.725,22.9v.918a.2.2,0,0,0,.112-.022,15.726,15.726,0,0,1,3.224-.269l.022-.9a16.255,16.255,0,0,0-3.358.269Zm-.694.09L46,23.123l-.022.918,1.075-.134v-.918Zm9.559-2.306a10.738,10.738,0,0,0-2.216-.09l.022.9a10.824,10.824,0,0,1,2.194.112v-.918Zm2.865.381c-.537-.067-1.075-.134-1.612-.224a5.228,5.228,0,0,1-.582-.09v.918c.157.022.291.045.448.067.582.09,1.164.179,1.768.246l-.022-.918ZM56.41,22.72a14.844,14.844,0,0,0-1.948-.09l.022.9a9.6,9.6,0,0,1,1.925.09v-.9Zm3.112.4c-.56-.067-1.119-.157-1.679-.224-.246-.045-.515-.067-.761-.112v.918c.2.022.425.067.627.09.6.09,1.209.179,1.836.246l-.022-.918Zm-1.768,2.731c.6.09,1.231.179,1.88.246l-.022-.918c-.6-.067-1.186-.157-1.746-.246a.169.169,0,0,1-.09-.022v.94Zm-.672-1.007a12.787,12.787,0,0,0-2.552-.179l.022.9a12.9,12.9,0,0,1,2.53.179v-.9Z" transform="translate(-33.219 -14.281)" fill="#d6d2c4"/>
      <path id="ShieldOutline" d="M32.28,37.831a24.086,24.086,0,0,1-3.224,3.783,34.568,34.568,0,0,1-9.514,6.066,34.568,34.568,0,0,1-9.514-6.066,25.143,25.143,0,0,1-3.224-3.783C2.373,31.362,1.791,23.841,1.791,18h0l17.752-.985L37.272,18c0,5.843-.582,13.364-4.992,19.834ZM2.753,2.91c3.291-.358,10.7-1.1,16.789-1.1s13.5.739,16.811,1.1l.918,13.006H1.813L2.753,2.91Zm36.332-1.5-.783-.09A179.92,179.92,0,0,0,19.542,0h0A179.92,179.92,0,0,0,.783,1.321L0,1.41V15.916H0v2.015c0,6.111.6,14.013,5.328,20.908a24.664,24.664,0,0,0,3.4,4.007h0l.022.022a50.987,50.987,0,0,0,10.79,7.477h0a51.584,51.584,0,0,0,10.79-7.477l.022-.022h0a26.921,26.921,0,0,0,3.4-4.007c4.723-6.917,5.328-14.8,5.328-20.908V17.64h0V1.41Z" fill="#d6d2c4"/>
    </g>
  </g>
</svg>
