<?xml version="1.0" encoding="UTF-8"?><svg id="Layer_1" xmlns="http://www.w3.org/2000/svg" viewBox="0 0 591.68 445.71"><defs><style>.cls-1{opacity:.1;}.cls-2{fill:#fff;stroke-width:0px;}</style></defs><path class="cls-2" d="m193.94,223.29v-96.76h29.87v83.03h40.67v13.73h-70.53Z"/><path class="cls-2" d="m4.09,223.29v-96.76h73.06v15.12h-42.89v25.47h30.6v14.51h-30.6v27.18h45.11v14.47H4.09Z"/><path class="cls-2" d="m516.4,223.29v-96.76h73.06v15.12h-42.89v25.47h30.6v14.51h-30.6v27.18h45.11v14.47h-75.28Z"/><path class="cls-2" d="m90.56,174.91c0-35.44,20.79-50.21,45.37-50.21,26.42,0,36.88,13.6,40.93,30.86l-12.15,3.6c-2.61-9.28-8.99-19.74-27.03-18.26-12.9,1.06-19.09,15.96-19.09,34.01s6.43,34.01,19.35,34.83c17.41,1.12,23.65-9.48,26.65-21.51l13.58,3.02c-4.71,19.62-15.82,33.87-42.24,33.87s-45.37-14.78-45.37-50.21Z"/><path class="cls-2" d="m283.05,223.29v-96.76h26.15v96.76h-26.15Z"/><path class="cls-2" d="m329.49,223.29v-96.76h40.59c20.66,0,41.84,4.31,41.84,32.95s-22.88,32.95-41.84,32.95h-10.33v30.86h-30.26Zm30.26-44.67h11.25c12.16,0,15.43-11.16,15.43-18.49s-3.27-19.88-15.43-19.88h-11.25v38.37Z"/><path class="cls-2" d="m417.68,201.97l11.66-7.25c6.56,10.33,22.39,17.89,32.45,17.43,12.06-.56,14.61-9.92,14.61-15.93s-7.71-8.5-17.26-10.85c-15.82-4.05-36.88-8.11-36.88-30.08,0-19.74,14.91-30.6,36.88-30.6,20.53,0,32.82,9.55,40.54,18.96l-10.13,8.31c-8.83-9.12-18.85-14.04-29.76-13.66-9.5.32-12.03,10.06-12.03,14.64,0,6.41,7.58,8.76,17.13,11.11,15.82,3.79,37.01,8.63,37.01,30.34,0,15.43-10.85,30.73-40.67,30.73-22.1,0-35.31-9.94-43.54-23.15Z"/><path class="cls-2" d="m284.76,104.77L319.02,7.62h24.32l34.26,97.16h-34.65l-5.88-18.04h-30.47l-6.28,18.04h-15.56Zm27.98-36.61h18.44l-8.89-26.81h-.26l-9.28,26.81Z"/><path class="cls-2" d="m396.16,104.77V8.01h29.87v83.03h40.67v13.73h-70.53Z"/><path class="cls-2" d="m25.98,104.77V22.39H0v-14.38h81.86v14.38h-26.03v82.39h-29.85Z"/><path class="cls-2" d="m226.4,104.77V22.39h-25.98v-14.38h81.86v14.38h-26.03v82.39h-29.85Z"/><path class="cls-2" d="m98.27,70.57c0-28.51,23.11-51.62,51.62-51.62,15.54,0,29.47,6.88,38.93,17.75-7.69-18.84-26.19-32.12-47.79-32.12-28.51,0-51.62,23.11-51.62,51.62,0,12.96,4.79,24.8,12.68,33.87-2.46-6.02-3.82-12.6-3.82-19.5Z"/><g class="cls-1"><path class="cls-2" d="m141.03,4.58c-28.51,0-51.62,23.11-51.62,51.62s23.11,51.62,51.62,51.62,51.62-23.11,51.62-51.62S169.53,4.58,141.03,4.58h0Z"/></g><path class="cls-2" d="m120.95,403.89c0-28.51,23.11-51.62,51.62-51.62,15.54,0,29.47,6.88,38.93,17.75-7.69-18.84-26.19-32.12-47.79-32.12-28.51,0-51.62,23.11-51.62,51.62,0,12.96,4.79,24.8,12.68,33.87-2.46-6.02-3.82-12.6-3.82-19.5Z"/><g class="cls-1"><path class="cls-2" d="m163.71,337.9c-28.51,0-51.62,23.11-51.62,51.62s23.11,51.62,51.62,51.62,51.62-23.11,51.62-51.62-23.11-51.62-51.62-51.62h0Z"/></g><path class="cls-2" d="m228.87,437.9v-96.76h42.05c24.85,0,44.43,8.24,44.43,31.51,0,15.17-6.41,23.93-19.09,28.25l20.53,37.01h-32.14l-18.7-33.61h-7.19v33.61h-29.89Zm29.89-48.38h11.24c10.72,0,15.43-8.11,15.43-16.21s-4.71-18.35-15.43-18.35h-11.24v34.56Z"/><path class="cls-2" d="m4.09,340.14h30.09v39.29h32.17v-39.29h29.82v96.76h-29.82v-43.66h-32.17v43.66H4.09v-96.76Z"/><path class="cls-2" d="m421.75,415.59l11.66-7.25c6.56,10.33,22.39,17.89,32.45,17.43,12.06-.56,14.61-9.92,14.61-15.93s-7.71-8.5-17.26-10.85c-15.82-4.05-36.88-8.11-36.88-30.08,0-19.74,14.91-30.6,36.88-30.6,20.53,0,32.82,9.55,40.54,18.96l-10.13,8.31c-8.83-9.12-18.85-14.04-29.76-13.66-9.5.32-12.03,10.06-12.03,14.64,0,6.41,7.58,8.76,17.13,11.11,15.82,3.79,37.01,8.63,37.01,30.34,0,15.43-10.85,30.73-40.67,30.73-22.1,0-35.31-9.94-43.54-23.15Z"/><path class="cls-2" d="m333.56,436.9v-96.76h22.47l35.44,54.27h.26v-54.27h13.87v96.76h-20.75l-37.01-54.14h0v54.14h-14.29Z"/><path class="cls-2" d="m319.43,317.06v-71.1h53.69v11.11h-31.52v18.72h22.48v10.66h-22.48v19.98h33.15v10.64h-55.32Z"/><path class="cls-2" d="m82.69,317.06v-71.1h51.83v10.22h-29.88v22.44h20.85v10.15h-20.85v28.3h-21.95Z"/><path class="cls-2" d="m239,245.96h22.11v28.87h23.64v-28.87h21.92v71.1h-21.92v-32.08h-23.64v32.08h-22.11v-71.1Z"/><path class="cls-2" d="m0,281.51c0-26.04,17.78-36.9,34.98-36.9s34.88,10.86,34.88,36.9-17.78,36.9-34.88,36.9S0,307.55,0,281.51Zm50.64,0c0-13.07-5.67-27.34-15.66-27.34s-15.76,14.27-15.76,27.34,5.67,27.5,15.76,27.5,15.66-14.43,15.66-27.5Z"/><path class="cls-2" d="m184.83,317.06v-60.54h-19.09v-10.56h60.15v10.56h-19.12v60.54h-21.94Z"/></svg>