<?xml version="1.0" encoding="utf-8"?>
<!-- Generator: Adobe Illustrator 28.0.0, SVG Export Plug-In . SVG Version: 6.00 Build 0)  -->
<svg version="1.1" id="Layer_1" xmlns="http://www.w3.org/2000/svg" xmlns:xlink="http://www.w3.org/1999/xlink" x="0px" y="0px"
	 viewBox="0 0 591.7 445.7" style="enable-background:new 0 0 591.7 445.7;" xml:space="preserve">
<style type="text/css">
	.st0{fill:#FFFFFF;}
	.st1{opacity:0.1;}
</style>
<g>
	<g>
		<path class="st0" d="M191.9,223.3v-96.8h29.9v83h40.7v13.7H191.9L191.9,223.3z"/>
		<path class="st0" d="M2,223.3v-96.8h73.1v15.1H32.2v25.5h30.6v14.5H32.2v27.2h45.1v14.5L2,223.3L2,223.3z"/>
		<path class="st0" d="M514.4,223.3v-96.8h73.1v15.1h-42.9v25.5h30.6v14.5h-30.6v27.2h45.1v14.5L514.4,223.3L514.4,223.3z"/>
		<path class="st0" d="M88.5,174.9c0-35.4,20.8-50.2,45.4-50.2c26.4,0,36.9,13.6,40.9,30.9l-12.1,3.6c-2.6-9.3-9-19.7-27-18.3
			c-12.9,1.1-19.1,16-19.1,34s6.4,34,19.4,34.8c17.4,1.1,23.6-9.5,26.6-21.5l13.6,3c-4.7,19.6-15.8,33.9-42.2,33.9
			S88.5,210.3,88.5,174.9z"/>
		<path class="st0" d="M281,223.3v-96.8h26.1v96.8H281z"/>
		<path class="st0" d="M327.4,223.3v-96.8H368c20.7,0,41.8,4.3,41.8,33S387,192.4,368,192.4h-10.3v30.9H327.4z M357.7,178.6H369
			c12.2,0,15.4-11.2,15.4-18.5s-3.3-19.9-15.4-19.9h-11.2V178.6L357.7,178.6z"/>
		<path class="st0" d="M415.6,202l11.7-7.2c6.6,10.3,22.4,17.9,32.5,17.4c12.1-0.6,14.6-9.9,14.6-15.9s-7.7-8.5-17.3-10.9
			c-15.8-4.1-36.9-8.1-36.9-30.1c0-19.7,14.9-30.6,36.9-30.6c20.5,0,32.8,9.5,40.5,19l-10.1,8.3c-8.8-9.1-18.9-14-29.8-13.7
			c-9.5,0.3-12,10.1-12,14.6c0,6.4,7.6,8.8,17.1,11.1c15.8,3.8,37,8.6,37,30.3c0,15.4-10.9,30.7-40.7,30.7
			C437.1,225.1,423.9,215.2,415.6,202L415.6,202z"/>
	</g>
	<g>
		<path class="st0" d="M347.2,104.8l34.3-97.1h24.3l34.3,97.2h-34.6l-5.9-18h-30.5l-6.3,18L347.2,104.8L347.2,104.8z M375.2,68.2
			h18.4l-8.9-26.8h-0.3L375.2,68.2L375.2,68.2z"/>
		<path class="st0" d="M458.6,104.8V8h29.9v83h40.7v13.7L458.6,104.8L458.6,104.8z"/>
		<path class="st0" d="M88.5,104.8V22.4h-26V8h81.9v14.4h-26v82.4L88.5,104.8L88.5,104.8z"/>
		<path class="st0" d="M288.9,104.8V22.4h-26V8h81.9v14.4h-26v82.4L288.9,104.8L288.9,104.8z"/>
		<path class="st0" d="M160.8,70.6c0-28.5,23.1-51.6,51.6-51.6c15.5,0,29.5,6.9,38.9,17.8c-7.7-18.8-26.2-32.1-47.8-32.1
			c-28.5,0-51.6,23.1-51.6,51.6c0,13,4.8,24.8,12.7,33.9C162.1,84.1,160.8,77.5,160.8,70.6z"/>
		<g class="st1">
			<path class="st0" d="M203.5,4.6c-28.5,0-51.6,23.1-51.6,51.6s23.1,51.6,51.6,51.6s51.6-23.1,51.6-51.6S232,4.6,203.5,4.6
				L203.5,4.6z"/>
		</g>
	</g>
	<g>
		<path class="st0" d="M161.8,403.9c0-28.5,23.1-51.6,51.6-51.6c15.5,0,29.5,6.9,38.9,17.8c-7.7-18.8-26.2-32.1-47.8-32.1
			c-28.5,0-51.6,23.1-51.6,51.6c0,13,4.8,24.8,12.7,33.9C163.1,417.4,161.8,410.8,161.8,403.9z"/>
		<g class="st1">
			<path class="st0" d="M204.5,337.9c-28.5,0-51.6,23.1-51.6,51.6s23.1,51.6,51.6,51.6s51.6-23.1,51.6-51.6S233,337.9,204.5,337.9
				L204.5,337.9z"/>
		</g>
		<path class="st0" d="M269.7,437.9v-96.8h42c24.9,0,44.4,8.2,44.4,31.5c0,15.2-6.4,23.9-19.1,28.2l20.5,37h-32.1l-18.7-33.6h-7.2
			v33.6L269.7,437.9L269.7,437.9z M299.6,389.5h11.2c10.7,0,15.4-8.1,15.4-16.2s-4.7-18.4-15.4-18.4h-11.2V389.5z"/>
		<path class="st0" d="M44.9,340.1H75v39.3h32.2v-39.3H137v96.8h-29.8v-43.7H75v43.7H44.9V340.1z"/>
		<path class="st0" d="M462.6,415.6l11.7-7.2c6.6,10.3,22.4,17.9,32.5,17.4c12.1-0.6,14.6-9.9,14.6-15.9s-7.7-8.5-17.3-10.9
			c-15.8-4-36.9-8.1-36.9-30.1c0-19.7,14.9-30.6,36.9-30.6c20.5,0,32.8,9.5,40.5,19l-10.1,8.3c-8.8-9.1-18.9-14-29.8-13.7
			c-9.5,0.3-12,10.1-12,14.6c0,6.4,7.6,8.8,17.1,11.1c15.8,3.8,37,8.6,37,30.3c0,15.4-10.8,30.7-40.7,30.7
			C484,438.7,470.8,428.8,462.6,415.6L462.6,415.6z"/>
		<path class="st0" d="M374.4,436.9v-96.8h22.5l35.4,54.3h0.3v-54.3h13.9v96.8h-20.8l-37-54.1l0,0v54.1L374.4,436.9L374.4,436.9z"/>
	</g>
	<g>
		<path class="st0" d="M427.9,317.1V246h53.7v11.1h-31.5v18.7h22.5v10.7h-22.5v20h33.1v10.6L427.9,317.1L427.9,317.1z"/>
		<path class="st0" d="M191.2,317.1V246H243v10.2h-29.9v22.4H234v10.1h-20.8v28.3L191.2,317.1L191.2,317.1z"/>
		<path class="st0" d="M347.5,246h22.1v28.9h23.6V246h21.9v71.1h-21.9V285h-23.6v32.1h-22.1L347.5,246L347.5,246z"/>
		<path class="st0" d="M108.5,281.5c0-26,17.8-36.9,35-36.9s34.9,10.9,34.9,36.9s-17.8,36.9-34.9,36.9S108.5,307.5,108.5,281.5z
			 M159.1,281.5c0-13.1-5.7-27.3-15.7-27.3s-15.8,14.3-15.8,27.3s5.7,27.5,15.8,27.5C153.5,309,159.1,294.6,159.1,281.5z"/>
		<path class="st0" d="M293.3,317.1v-60.5h-19.1V246h60.1v10.6h-19.1v60.5H293.3L293.3,317.1z"/>
	</g>
</g>
</svg>
