<?xml version="1.0" encoding="utf-8"?>
<!-- Generator: Adobe Illustrator 28.0.0, SVG Export Plug-In . SVG Version: 6.00 Build 0)  -->
<svg version="1.1" id="Layer_1" xmlns="http://www.w3.org/2000/svg" xmlns:xlink="http://www.w3.org/1999/xlink" x="0px" y="0px"
	 viewBox="0 0 1236.3 87" style="enable-background:new 0 0 1236.3 87;" xml:space="preserve">
<style type="text/css">
	.st0{fill:#d6d2c4;}
</style>
<path class="st0" d="M553.7,84.8c-22.9,0-41.6-18.7-41.6-41.6s18.7-41.6,41.6-41.6s41.6,18.6,41.6,41.6S576.6,84.8,553.7,84.8
	L553.7,84.8z M553.7,10.7c-18,0-32.6,14.6-32.6,32.6s14.6,32.6,32.6,32.6s32.6-14.6,32.6-32.6S571.7,10.7,553.7,10.7z"/>
<path class="st0" d="M942.7,70c-5.4,4-12,6.3-19.2,6.3c-18,0-32.6-14.6-32.6-32.6s14.6-32.6,32.6-32.6c7.2,0,13.8,2.4,19.2,6.3
	c1.9-2.4,4.1-4.5,6.5-6.4c-7.1-5.6-16-8.9-25.7-8.9c-22.9,0-41.6,18.6-41.6,41.6s18.7,41.6,41.6,41.6c9.7,0,18.6-3.3,25.7-8.9
	C946.8,74.5,944.6,72.4,942.7,70L942.7,70z"/>
<path class="st0" d="M446.5,64.1l7.9-3.5c4,10.6,11.7,15.8,22.4,15.8s18.5-4.7,18.5-13c0-7.8-4.3-11.6-19.9-16.5
	c-16.4-5-26.2-9.5-26.2-23.2c0-12.1,10.4-20.9,25.4-20.9s23.8,7.7,27.9,17.7l-7.5,4.2c-4.3-9.5-11.1-13.3-20.5-13.3
	c-10,0-16,4.9-16,11.6c0,8.4,5.3,11.2,20.8,16.1c15.9,4.9,25.3,10.2,25.3,23.7s-11.4,22-28.2,22C461.4,84.7,450.7,76.6,446.5,64.1
	L446.5,64.1z"/>
<path class="st0" d="M605.6,83.2v-79h9.4v70.4h38v8.5L605.6,83.2L605.6,83.2z"/>
<path class="st0" d="M660.4,83.2l28-79.3h9.8l28,79.3h-9.7l-7.8-22.6h-31.4l-7.8,22.6H660.4L660.4,83.2z M680.1,52.4h25.6l-12.6-37
	h-0.2L680.1,52.4L680.1,52.4z"/>
<path class="st0" d="M735,83.2v-79h27.1c17.9,0,28.1,7.6,28.1,22.1c0,12.7-7.2,19.3-18.4,21.7l19.4,35.2H781l-18.9-34h-17.8v34
	L735,83.2L735,83.2z M744.3,40.9h17.3c12.4,0,19.3-3.4,19.3-14.2s-6.8-13.9-19.4-13.9h-17.2L744.3,40.9L744.3,40.9z"/>
<path class="st0" d="M826,83.2v-79h48.5v8.6h-39.1v24.6h29V46h-29v28.7h41.3v8.5L826,83.2L826,83.2z"/>
<path class="st0" d="M965,83.2v-79h9.4v70.4h38v8.5L965,83.2L965,83.2z"/>
<path class="st0" d="M1024.6,83.2v-79h9.4v79L1024.6,83.2L1024.6,83.2z"/>
<path class="st0" d="M1050.2,83.2v-79h26.8c17.1,0,28.5,6.7,28.5,22.4c0,16.9-12.6,23.2-29.1,23.2h-16.8v33.4L1050.2,83.2
	L1050.2,83.2z M1059.6,41.5h17.3c12.6,0,19.3-3.8,19.3-14.5s-6.6-14.2-19.4-14.2h-17.2L1059.6,41.5L1059.6,41.5z"/>
<path class="st0" d="M1111.5,64.1l7.9-3.5c3.9,10.6,11.7,15.8,22.4,15.8s18.5-4.7,18.5-13c0-7.8-4.3-11.6-19.8-16.5
	c-16.4-5-26.2-9.5-26.2-23.2c0-12.1,10.3-20.9,25.4-20.9s23.8,7.7,27.8,17.7l-7.5,4.2c-4.3-9.5-11.1-13.3-20.5-13.3
	c-10,0-16,4.9-16,11.6c0,8.4,5.3,11.2,20.8,16.1c15.9,4.9,25.3,10.2,25.3,23.7s-11.4,22-28.2,22
	C1126.3,84.7,1115.7,76.6,1111.5,64.1L1111.5,64.1z"/>
<path class="st0" d="M1183.4,83.2v-79h48.4v8.6h-39.1v24.6h29V46h-29v28.7h41.3v8.5L1183.4,83.2L1183.4,83.2z"/>
<path class="st0" d="M2.2,51.5V4.1h21.4v47.3c0,10.9,3.5,15.8,12.1,15.8s12-4.9,12-15.8V4.1h21v47.4c0,21-10,32.9-33.2,32.9
	S2.2,72.5,2.2,51.5z"/>
<path class="st0" d="M100.3,83.3V21.9H77.5V4.1h66.9v17.8h-22.8v61.4L100.3,83.3L100.3,83.3z"/>
<path class="st0" d="M260.1,83.3V12.8H235V4.1h59.8v8.7h-25.2v70.5C269.5,83.3,260.1,83.3,260.1,83.3z"/>
<path class="st0" d="M192.4,84.8c-22.9,0-41.6-18.7-41.6-41.6s18.6-41.6,41.6-41.6S234,20.3,234,43.2S215.3,84.8,192.4,84.8
	L192.4,84.8z M192.4,10.7c-17.9,0-32.6,14.6-32.6,32.6s14.6,32.6,32.6,32.6S225,61.2,225,43.2S210.4,10.7,192.4,10.7z"/>
<path class="st0" d="M292.5,83.3l28-79.5h9.8l28,79.5h-9.7l-7.8-22.7h-31.4l-7.8,22.7H292.5L292.5,83.3z M312.2,52.4h25.7
	l-12.6-37.1h-0.2L312.2,52.4L312.2,52.4z"/>
<path class="st0" d="M370.1,83.3V4.1h9.4v70.6h38.1v8.6C417.6,83.3,370.1,83.3,370.1,83.3z"/>
<path class="st0" d="M205,18.4c1.1,3,1.8,6.3,1.8,9.7c0,15.4-12.5,27.9-27.9,27.9c-4.5,0-8.8-1.1-12.6-3
	c3.9,10.6,14.2,18.2,26.1,18.2c15.4,0,27.9-12.5,27.9-27.8C220.3,32.4,214.1,23,205,18.4L205,18.4z"/>
</svg>
