<?xml version="1.0" encoding="utf-8"?>
<!-- Generator: Adobe Illustrator 28.0.0, SVG Export Plug-In . SVG Version: 6.00 Build 0)  -->
<svg version="1.1" id="Layer_1" xmlns="http://www.w3.org/2000/svg" xmlns:xlink="http://www.w3.org/1999/xlink" x="0px" y="0px"
	 viewBox="0 0 662.4 237" style="enable-background:new 0 0 662.4 237;" xml:space="preserve">
<style type="text/css">
	.st0{fill:#FFFFFF;}
</style>
<path class="st0" d="M302.2,142.2c-38.6,0-69.9-31.4-69.9-69.9s31.4-69.9,69.9-69.9s69.9,31.4,69.9,69.9S340.8,142.2,302.2,142.2
	L302.2,142.2z M302.2,16.5c-30.7,0-55.8,25-55.8,55.7s25,55.8,55.8,55.8S358,103,358,72.3S333,16.5,302.2,16.5z"/>
<path class="st0" d="M415.3,219.3c-3.9,3-8.7,4.8-14,4.8c-12.7,0-23-10.3-23-23s10.3-23,23-23c5.2,0,10.1,1.8,14,4.8
	c2-3,4.4-5.7,7.1-7.9c-5.8-4.7-13.1-7.5-21.1-7.5c-18.5,0-33.6,15.1-33.6,33.6s15.1,33.6,33.6,33.6c8,0,15.3-2.8,21.1-7.5
	C419.7,225,417.3,222.3,415.3,219.3L415.3,219.3z"/>
<path class="st0" d="M90,234.7c-18.6,0-33.6-15.1-33.6-33.6s15.1-33.6,33.6-33.6s33.6,15.1,33.6,33.6S108.5,234.7,90,234.7z
	 M90,178.1c-12.7,0-23,10.3-23,23s10.3,23,23,23s23-10.3,23-23S102.6,178.1,90,178.1z"/>
<path class="st0" d="M1.1,218.1l8.7-4.6c3.9,7.6,9.8,11.3,17.8,11.3s13.2-2.5,13.2-8.4s-4-8.2-14.7-11.4
	c-12.5-3.7-22.6-7.1-22.6-19.4c0-11,9-18.3,22.1-18.3s20.3,6.3,24.2,13.9l-8,5.5c-3.8-6.5-9.4-9.4-16.4-9.4s-11.3,2.6-11.3,7.4
	c0,6,4.6,8,15.2,11.2c12.3,3.6,22,7.6,22,19.8c0,10.6-9,18.9-24.4,18.9C14.3,234.6,5.2,227.9,1.1,218.1L1.1,218.1z"/>
<path class="st0" d="M130.8,233.3v-64.7h10.9v54.8h29.8v10H130.8z"/>
<path class="st0" d="M176.3,233.3l22.9-65H210l22.9,65h-11.2l-5.2-15.4h-24.6l-5.3,15.4H176.3z M195.2,208.3h18l-8.8-26.2h-0.2
	L195.2,208.3L195.2,208.3z"/>
<path class="st0" d="M238.9,233.3v-64.7h23.2c15.4,0,24.3,6.2,24.3,19.4c0,10.3-5.3,16.2-14.3,18.4l15.2,26.9h-11.7L261,207.8h-11.4
	v25.5H238.9L238.9,233.3z M249.7,198.3h12c9.1,0,14-2.3,14-10s-4.8-9.7-14.1-9.7h-11.9V198.3z"/>
<path class="st0" d="M320.1,233.3v-64.7h41.8v10.1H331v16.1h22.6v9.7H331v18.8h32.6v10H320.1z"/>
<path class="st0" d="M432.8,233.3v-64.7h10.9v54.8h29.8v10H432.8z"/>
<path class="st0" d="M483.5,233.3v-64.7h11v64.7H483.5z"/>
<path class="st0" d="M505.5,233.3v-64.7h22.6c14,0,24.9,4.9,24.9,19.9s-12,20.3-25.3,20.3h-11.5v24.6L505.5,233.3L505.5,233.3z
	 M516.3,199.2h12c9.6,0,14-3,14-10.4s-4.4-10.2-14.1-10.2h-11.9L516.3,199.2L516.3,199.2z"/>
<path class="st0" d="M559,218.1l8.7-4.6c3.8,7.6,9.8,11.3,17.8,11.3s13.2-2.5,13.2-8.4s-4-8.2-14.7-11.4
	c-12.5-3.7-22.6-7.1-22.6-19.4c0-11,9-18.3,22.1-18.3s20.3,6.3,24.2,13.9l-8,5.5c-3.8-6.5-9.4-9.4-16.3-9.4s-11.3,2.6-11.3,7.4
	c0,6,4.6,8,15.2,11.2c12.2,3.6,22,7.6,22,19.8c0,10.6-9,18.9-24.4,18.9C572.2,234.6,563.1,227.9,559,218.1L559,218.1z"/>
<path class="st0" d="M618.8,233.3v-64.7h41.8v10.1h-30.9v16.1h22.7v9.7h-22.7v18.8h32.6v10H618.8z"/>
<path class="st0" d="M0.1,83.3V9h33.5v74.1c0,17.1,5.5,24.8,18.9,24.8s18.8-7.7,18.8-24.8V9h32.9v74.3c0,32.9-15.8,51.6-52,51.6
	S0.1,116.1,0.1,83.3z"/>
<path class="st0" d="M153.8,133.1V36.8h-35.7V9h105v27.8h-35.7v96.2L153.8,133.1L153.8,133.1z"/>
<path class="st0" d="M415.5,133.1V22.6h-39.4V9h93.7v13.6h-39.6v110.5L415.5,133.1L415.5,133.1z"/>
<path class="st0" d="M466.2,133.1L510.1,8.5h15.4l43.9,124.6h-15.3L542,97.5h-49.3l-12.2,35.5H466.2z M497.2,84.6h40.2l-19.8-58.2
	h-0.3L497.2,84.6L497.2,84.6z"/>
<path class="st0" d="M587.9,133.1V9h14.8v110.7h59.7v13.4H587.9z"/>
<path class="st0" d="M324.1,29.2c2,5.2,3,10.9,3,16.9c0,26.7-21.7,48.4-48.4,48.4c-7.9,0-15.3-1.9-21.9-5.3
	c6.9,18.4,24.6,31.5,45.3,31.5c26.7,0,48.4-21.7,48.4-48.4C350.6,53.5,339.8,37.2,324.1,29.2L324.1,29.2z"/>
</svg>
