<svg xmlns="http://www.w3.org/2000/svg">
<defs>
<font id="58cd7b32841e96923d46bc54d92ba38a" horiz-adv-x='1024' >
  <font-face 
    font-family="GTSectra-RegularItalic"
    font-weight="450"
    font-style="italic"
    font-stretch="normal"
    units-per-em="1000"
    panose-1="2 0 5 3 0 0 0 9 0 3"
    ascent="750"
    descent="-250"
    x-height="478"
    cap-height="701"
    bbox="-202 -245 1596 980"
    underline-thickness="50"
    underline-position="-50"
    slope="-12"
    unicode-range="U+000D-FB04"
  />
<missing-glyph horiz-adv-x="644" 
d="M612 460l-3 -41l-8 -35l-12 -31l-3 -156l-21 -7l-50 70l-27 -7l-19 -140l-32 4l-7 -4l-4 -94l30 -19l16 -14l-3 -15l-30 1l-24 18h-14l-8 8l7 76l-4 47l-61 1l-3 -52l-2 -56v-20l-15 -6l-8 6l-30 -10h-32l-1 11l11 11l50 21l-6 96l-98 -6l-147 140l-4 115l-13 10l-10 36
v26l15 8l-3 78l92 -62l9 47l10 36l22 35l28 35l39 29l40 15l38 14h22l-68 22l4 17h7l79 -20l-4 51l16 12h32l19 -5l29 -25l32 -8l32 -10l15 -13v-20l-20 -31l30 -28l28 -32l18 -34l15 -41zM502 399l-4 7h-205l-66 -3l-7 -9l-6 -44l-48 20l-11 -4l57 -27l1 -45l-5 -73v-91
l18 4l2 40l41 -3l3 9l-44 6v16l48 -6l1 9l-47 7l1 22l43 -3l3 6l-45 9l3 94h74l11 10h-79l2 9h74l8 7h-82l2 22l117 4l140 -4v11zM183 569l29 12l13 -15l-17 -20l-10 -3l17 -3h5l36 24h32l18 -12l8 3l4 14l7 5l10 -4v-18h8l10 22l11 8l-5 6l-3 8l1 21l-30 -10l-10 -8l-8 5
l4 21l14 10l11 11l38 -2l12 13l-4 8h-49l-45 -13l-53 -26l-29 -23zM593 465l-8 37l-19 50l-20 36l-23 28l-34 21h-11l17 -19l25 -10l11 -11l3 -33l-25 13l-15 -29l12 -8v-19l15 3l-12 26l15 -5l10 -20l-5 -12l-8 -7h-23l-3 11l-12 2l1 -22h-14l14 -18l-7 -10l-21 5l-3 -27
l41 6l8 17l22 -2l6 -28l-16 -13v-15l8 -6l18 12h23l6 11l-18 6l-5 9l9 42h7l14 -20zM79 434l57 -32l7 10l-68 38v18l59 -34l43 -28l28 -14l3 10l-103 64l-13 7l-41 33l2 -78l19 -17v-5h-21l19 -14l1 -11l-20 7l18 -18l-4 -7l3 -97l11 -12v180zM488 331l-54 1l-1 -24v-6

<glyph glyph-name="ff" unicode="ff" horiz-adv-x="590" 
d="M411 458l10 57q7 40 22 71t43 49l127 80h82l-16 -79h-124q-17 -17 -28.5 -41.5t-14.5 -44.5l-16 -92h113l-11 -48h-111l-77 -445q-7 -38 -23 -70.5t-43 -49.5l-124 -80h-70l17 82h111q17 18 27.5 41.5t13.5 41.5l84 480h-191l-77 -445q-7 -38 -23 -70.5t-43 -49.5
l-124 -80h-70l17 82h111q17 18 27.5 41.5t13.5 41.5l84 480h-97l5 18l37 33h64l9 54q7 40 22 71t43 49l127 80h152l-114 -79h-96q-17 -17 -28.5 -41.5t-14.5 -44.5l-16 -92h190z" />
    <glyph glyph-name="fi" unicode="fi" horiz-adv-x="544" 
d="M212 410l-77 -445q-7 -38 -23 -70.5t-43 -49.5l-124 -80h-70l17 82h111q17 18 27.5 41.5t13.5 41.5l84 480h-97l5 18l37 33h64l9 54q7 40 22 71t43 49l127 80h202l-16 -79h-244q-17 -17 -28.5 -41.5t-14.5 -44.5l-16 -92h175l60 27l31 -32l-69 -393l83 52l17 -25
l-142 -102l-51 32l71 399l-52 -6h-132z" />
    <glyph glyph-name="fl" unicode="fl" horiz-adv-x="536" 
d="M400 458l35 198l-75 -20h-80q-17 -17 -28.5 -41.5t-14.5 -44.5l-16 -92h179zM-125 -235l17 82h111q17 18 27.5 41.5t13.5 41.5l84 480h-97l5 18l37 33h64l9 54q7 40 22 71t43 49l127 80h164l24 -23l-111 -632l83 52l17 -25l-142 -102l-51 32l69 393h-179l-77 -445
q-7 -38 -23 -70.5t-43 -49.5l-124 -80h-70z" />
    <glyph glyph-name="ffi" unicode="ffi" horiz-adv-x="819" 
d="M555 636q-17 -17 -28.5 -41.5t-14.5 -44.5l-16 -92h175l60 27l31 -32l-69 -393l83 52l17 -25l-142 -102l-51 32l71 399l-52 -6h-132l-77 -445q-7 -38 -23 -70.5t-43 -49.5l-124 -80h-70l17 82h111q17 18 27.5 41.5t13.5 41.5l84 480h-191l-77 -445q-7 -38 -23 -70.5
t-43 -49.5l-124 -80h-70l17 82h111q17 18 27.5 41.5t13.5 41.5l84 480h-97l5 18l37 33h64l9 54q7 40 22 71t43 49l127 80h152l-114 -79h-96q-17 -17 -28.5 -41.5t-14.5 -44.5l-16 -92h190l10 57q7 40 22 71t43 49l127 80h202l-16 -79h-244z" />
    <glyph glyph-name="ffl" unicode="ffl" horiz-adv-x="811" 
d="M675 458l35 198l-75 -20h-80q-17 -17 -28.5 -41.5t-14.5 -44.5l-16 -92h179zM-55 -235h-70l17 82h111q17 18 27.5 41.5t13.5 41.5l84 480h-97l5 18l37 33h64l9 54q7 40 22 71t43 49l127 80h152l-114 -79h-96q-17 -17 -28.5 -41.5t-14.5 -44.5l-16 -92h190l10 57
q7 40 22 71t43 49l127 80h164l24 -23l-111 -632l83 52l17 -25l-142 -102l-51 32l69 393h-179l-77 -445q-7 -38 -23 -70.5t-43 -49.5l-124 -80h-70l17 82h111q17 18 27.5 41.5t13.5 41.5l84 480h-191l-77 -445q-7 -38 -23 -70.5t-43 -49.5z" />
    <glyph glyph-name="Th" unicode="Th" horiz-adv-x="982" 
d="M701 715l24 -23l-50 -286l-15 -31l171 110q30 0 50.5 -9.5t32 -25t15 -35.5t-0.5 -42l-56 -313l83 52l17 -25l-142 -102l-51 32l57 321q5 29 -0.5 48t-31.5 19q-22 0 -48 -12.5t-46 -26.5l-48 -33l-59 -333h-85l113 640l15 19l-82 -7l-153 3l-97 -608l83 -13l-10 -35
l-132 3l-131 -3v35l90 13l97 608l-140 -3l-66 -127h-40l28 176l276 -3l264 3z" />
    <glyph glyph-name="fb" unicode="fb" horiz-adv-x="755" 
d="M462 321l-42 -237q13 -9 28.5 -16.5t31.5 -13t31 -9t28 -3.5q27 12 46 37t31 56.5t18 65.5t6 66q0 67 -21.5 100.5t-46.5 39.5zM476 402l-18 -45l140 128q28 -5 53 -18t44 -35t29.5 -53.5t10.5 -74.5q0 -47 -12 -92.5t-35.5 -84.5t-58 -69.5t-80.5 -48.5l-62 -24
q-38 4 -78.5 15t-82.5 31l109 625l-75 -20h-80q-17 -17 -28.5 -41.5t-14.5 -44.5l-16 -92h113l-11 -48h-111l-77 -445q-7 -38 -23 -70.5t-43 -49.5l-124 -80h-70l17 82h111q17 18 27.5 41.5t13.5 41.5l84 480h-97l5 18l37 33h64l9 54q7 40 22 71t43 49l127 80h164l24 -23z
" />
    <glyph glyph-name="ffb" unicode="ffb" horiz-adv-x="1030" 
d="M737 321l-42 -237q13 -9 28.5 -16.5t31.5 -13t31 -9t28 -3.5q27 12 46 37t31 56.5t18 65.5t6 66q0 67 -21.5 100.5t-46.5 39.5zM777 715l24 -23l-50 -290l-18 -45l140 128q28 -5 53 -18t44 -35t29.5 -53.5t10.5 -74.5q0 -47 -12 -92.5t-35.5 -84.5t-58 -69.5t-80.5 -48.5
l-62 -24q-38 4 -78.5 15t-82.5 31l109 625l-75 -20h-80q-17 -17 -28.5 -41.5t-14.5 -44.5l-16 -92h113l-11 -48h-111l-77 -445q-7 -38 -23 -70.5t-43 -49.5l-124 -80h-70l17 82h111q17 18 27.5 41.5t13.5 41.5l84 480h-191l-77 -445q-7 -38 -23 -70.5t-43 -49.5l-124 -80
h-70l17 82h111q17 18 27.5 41.5t13.5 41.5l84 480h-97l5 18l37 33h64l9 54q7 40 22 71t43 49l127 80h152l-114 -79h-96q-17 -17 -28.5 -41.5t-14.5 -44.5l-16 -92h190l10 57q7 40 22 71t43 49l127 80h164z" />
    <glyph glyph-name="ffh" unicode="ffh" horiz-adv-x="1059" 
d="M555 636q-17 -17 -28 -41.5t-15 -44.5l-16 -92h113l-11 -48h-111l-77 -445q-7 -38 -23 -70.5t-43 -49.5l-124 -80h-70l17 82h111q17 18 27.5 41.5t13.5 41.5l84 480h-191l-77 -445q-7 -38 -23 -70.5t-43 -49.5l-124 -80h-70l17 82h111q17 18 27.5 41.5t13.5 41.5l84 480
h-97l5 18l37 33h64l9 54q7 40 22 71t43 49l127 80h152l-114 -79h-96q-17 -17 -28.5 -41.5t-14.5 -44.5l-16 -92h190l10 57q7 40 22 71t43 49l127 80h164l25 -23l-50 -286l-15 -31l171 110q30 0 50.5 -9.5t32 -25t15 -35.5t-0.5 -42l-56 -313l83 52l17 -25l-142 -102l-51 32
l57 321q5 29 -0.5 48t-31.5 19q-22 0 -48 -12.5t-46 -26.5l-48 -33l-59 -333h-85l116 656l-76 -20h-80z" />
    <glyph glyph-name="ffj" unicode="ffj" horiz-adv-x="798" 
d="M731 485l31 -32l-87 -487q-7 -38 -22.5 -70.5t-42.5 -49.5l-124 -81h-50l14 82h97q16 20 25.5 43t12.5 41l86 485l-52 -6h-132l-77 -445q-7 -38 -23 -70.5t-43 -49.5l-124 -80h-70l17 82h111q17 18 27.5 41.5t13.5 41.5l84 480h-191l-77 -445q-7 -38 -23 -70.5t-43 -49.5
l-124 -80h-70l17 82h111q17 18 27.5 41.5t13.5 41.5l84 480h-97l5 18l37 33h64l9 54q7 40 22 71t43 49l127 80h152l-114 -79h-96q-17 -17 -28.5 -41.5t-14.5 -44.5l-16 -92h190l10 57q7 40 22 71t43 49l127 80h202l-16 -79h-244q-17 -17 -28.5 -41.5t-14.5 -44.5l-16 -92
h175z" />
    <glyph glyph-name="ffk" unicode="ffk" horiz-adv-x="1031" 
d="M555 636q-17 -17 -28 -41.5t-15 -44.5l-16 -92h113l-11 -48h-111l-77 -445q-7 -38 -23 -70.5t-43 -49.5l-124 -80h-70l17 82h111q17 18 27.5 41.5t13.5 41.5l84 480h-191l-77 -445q-7 -38 -23 -70.5t-43 -49.5l-124 -80h-70l17 82h111q17 18 27.5 41.5t13.5 41.5l84 480
h-97l5 18l37 33h64l9 54q7 40 22 71t43 49l127 80h152l-114 -79h-96q-17 -17 -28.5 -41.5t-14.5 -44.5l-16 -92h190l10 57q7 40 22 71t43 49l127 80h164l25 -23l-72 -411l19 5l181 189h96l-20 -93h-61q-26 -7 -47 -18.5t-47 -32.5l-70 -58l27 -10l109 -205l86 54l17 -25
l-142 -102l-39 24l-114 247l-44 -256h-85l115 656l-76 -20h-80z" />
    <glyph glyph-name="fh" unicode="fh" horiz-adv-x="784" 
d="M436 656l-76 -20h-80q-17 -17 -28 -41.5t-15 -44.5l-16 -92h113l-11 -48h-111l-77 -445q-7 -38 -23 -70.5t-43 -49.5l-124 -80h-70l17 82h111q17 18 27.5 41.5t13.5 41.5l84 480h-97l5 18l37 33h64l9 54q7 40 22 71t43 49l127 80h164l25 -23l-50 -286l-15 -31l171 110
q30 0 50.5 -9.5t32 -25t15 -35.5t-0.5 -42l-56 -313l83 52l17 -25l-142 -102l-51 32l57 321q5 29 -0.5 48t-31.5 19q-22 0 -48 -12.5t-46 -26.5l-48 -33l-59 -333h-85z" />
    <glyph glyph-name="fj" unicode="fj" horiz-adv-x="523" 
d="M400 -34q-7 -38 -22.5 -70.5t-42.5 -49.5l-124 -81h-50l14 82h97q16 20 25.5 43t12.5 41l86 485l-52 -6h-132l-77 -445q-7 -38 -23 -70.5t-43 -49.5l-124 -80h-70l17 82h111q17 18 27.5 41.5t13.5 41.5l84 480h-97l5 18l37 33h64l9 54q7 40 22 71t43 49l127 80h202
l-16 -79h-244q-17 -17 -28.5 -41.5t-14.5 -44.5l-16 -92h175l60 27l31 -32z" />
    <glyph glyph-name="fk" unicode="fk" horiz-adv-x="756" 
d="M436 656l-76 -20h-80q-17 -17 -28 -41.5t-15 -44.5l-16 -92h113l-11 -48h-111l-77 -445q-7 -38 -23 -70.5t-43 -49.5l-124 -80h-70l17 82h111q17 18 27.5 41.5t13.5 41.5l84 480h-97l5 18l37 33h64l9 54q7 40 22 71t43 49l127 80h164l25 -23l-72 -411l19 5l181 189h96
l-20 -93h-61q-26 -7 -47 -18.5t-47 -32.5l-70 -58l27 -10l109 -205l86 54l17 -25l-142 -102l-39 24l-114 247l-44 -256h-85z" />
    <glyph glyph-name="ft" unicode="ft" horiz-adv-x="594" 
d="M397 458l14 74l72 64h24l-25 -139h127l-10 -47h-125l-60 -350l130 53l16 -27l-188 -101l-51 28l68 397h-177l-77 -445q-7 -38 -23 -70.5t-43 -49.5l-124 -80h-70l17 82h111q17 18 27.5 41.5t13.5 41.5l84 480h-97l5 18l37 33h64l9 54q7 40 22 71t43 49l127 80h158
l-92 -79h-124q-17 -17 -28.5 -41.5t-14.5 -44.5l-16 -92h176z" />
    <glyph glyph-name="fu" unicode="fu" horiz-adv-x="771" 
d="M212 410l-77 -445q-7 -38 -23 -70.5t-43 -49.5l-124 -80h-70l17 82h111q17 18 27.5 41.5t13.5 41.5l84 480h-97l5 18l37 33h64l9 54q7 40 22 71t43 49l127 80h82l-16 -79h-124q-17 -17 -28.5 -41.5t-14.5 -44.5l-16 -92h159l60 27l31 -32l-56 -325q-6 -34 3.5 -48.5
t27.5 -14.5q11 0 24 5t26 12.5t24.5 15t20.5 13.5l46 31l56 328h85l-72 -410l83 52l17 -25l-142 -102l-44 28l8 58l14 30l-172 -116q-30 0 -50 10.5t-31 27t-14 36.5t0 39l56 318l-53 -6h-116z" />
    <glyph glyph-name="fy" unicode="fy" horiz-adv-x="698" 
d="M371 485l51 -32l43 -413l169 307l-66 85l86 53l39 -53l-21 -116l-328 -551h-128l16 92h76l137 149l-56 -6l-61 415l-49 -5h-67l-77 -445q-7 -38 -23 -70.5t-43 -49.5l-124 -80h-70l17 82h111q17 18 27.5 41.5t13.5 41.5l84 480h-97l5 18l37 33h64l9 54q7 40 22 71t43 49
l127 80h82l-16 -79h-124q-17 -17 -28.5 -41.5t-14.5 -44.5l-16 -92h90z" />
    <glyph glyph-name="ky" unicode="ky" horiz-adv-x="903" 
d="M421 -235l16 92h76l137 149l-56 -6l-65 446h-39l-35 -64h-61q-26 -7 -47 -18.5t-47 -32.5l-70 -58l27 -10l109 -205l86 54l17 -25l-142 -102l-39 24l-114 247l-44 -256h-85l115 658l-98 -27l-11 30l176 55l24 -23l-72 -412l19 5l181 189h215l32 -15l44 -420l169 307
l-66 85l86 53l39 -53l-21 -116l-328 -551h-128z" />
    <glyph glyph-name="tt" unicode="tt" horiz-adv-x="628" 
d="M431 458l14 74l72 64h24l-25 -139h127l-10 -47h-125l-60 -350l130 53l16 -27l-188 -101l-51 28l68 397h-205l-60 -350l108 49l16 -27l-166 -97l-51 28l68 397h-93l5 17l37 35h60l13 70l72 64h24l-25 -138h205z" />
    <glyph glyph-name="ty" unicode="ty" horiz-adv-x="749" 
d="M282 74l-166 -89l-51 28l68 397h-93l5 17l37 35h60l13 70l72 64h24l-25 -139h136l60 28l51 -32l43 -413l169 307l-66 85l86 53l39 -53l-21 -116l-328 -551h-128l16 92h76l137 149l-56 -6l-61 415l-64 -5h-97l-60 -350l108 44z" />
    <glyph glyph-name="www" unicode="www" horiz-adv-x="1601" 
d="M1115 472v-383l-8 -45l153 235l-4 161l90 32v-383l-8 -45l199 303l-66 85l86 53l39 -53l-21 -116l-226 -326l-81 20l-5 158l8 60l-153 -238l-81 20l-6 189l-144 -209l-81 20l-5 158l8 60l-153 -238l-81 20l-6 188l-144 -208l-81 20l-5 158l8 60l-153 -238l-81 20l-11 375
l15 35l-106 -38l-11 28l164 75l27 -28v-368l-8 -45l153 235l-4 161l90 32v-383l-8 -45l153 234l-4 162l90 32v-383l-8 -45l153 235l-4 161l90 32v-383l-8 -45l153 234l-4 162z" />
    <glyph glyph-name=".notdef" horiz-adv-x="644" 
d="M612 460l-3 -41l-8 -35l-12 -31l-3 -156l-21 -7l-50 70l-27 -7l-19 -140l-32 4l-7 -4l-4 -94l30 -19l16 -14l-3 -15l-30 1l-24 18h-14l-8 8l7 76l-4 47l-61 1l-3 -52l-2 -56v-20l-15 -6l-8 6l-30 -10h-32l-1 11l11 11l50 21l-6 96l-98 -6l-147 140l-4 115l-13 10l-10 36
v26l15 8l-3 78l92 -62l9 47l10 36l22 35l28 35l39 29l40 15l38 14h22l-68 22l4 17h7l79 -20l-4 51l16 12h32l19 -5l29 -25l32 -8l32 -10l15 -13v-20l-20 -31l30 -28l28 -32l18 -34l15 -41zM502 399l-4 7h-205l-66 -3l-7 -9l-6 -44l-48 20l-11 -4l57 -27l1 -45l-5 -73v-91
l18 4l2 40l41 -3l3 9l-44 6v16l48 -6l1 9l-47 7l1 22l43 -3l3 6l-45 9l3 94h74l11 10h-79l2 9h74l8 7h-82l2 22l117 4l140 -4v11zM183 569l29 12l13 -15l-17 -20l-10 -3l17 -3h5l36 24h32l18 -12l8 3l4 14l7 5l10 -4v-18h8l10 22l11 8l-5 6l-3 8l1 21l-30 -10l-10 -8l-8 5
l4 21l14 10l11 11l38 -2l12 13l-4 8h-49l-45 -13l-53 -26l-29 -23zM593 465l-8 37l-19 50l-20 36l-23 28l-34 21h-11l17 -19l25 -10l11 -11l3 -33l-25 13l-15 -29l12 -8v-19l15 3l-12 26l15 -5l10 -20l-5 -12l-8 -7h-23l-3 11l-12 2l1 -22h-14l14 -18l-7 -10l-21 5l-3 -27
l41 6l8 17l22 -2l6 -28l-16 -13v-15l8 -6l18 12h23l6 11l-18 6l-5 9l9 42h7l14 -20zM79 434l57 -32l7 10l-68 38v18l59 -34l43 -28l28 -14l3 10l-103 64l-13 7l-41 33l2 -78l19 -17v-5h-21l19 -14l1 -11l-20 7l18 -18l-4 -7l3 -97l11 -12v180zM488 331l-54 1l-1 -24v-6
l-2 -31l19 -3l-8 -61l-48 3l-8 -6l51 -5l-2 -9h-49l-4 -5l53 -7l-6 -35l27 -1l12 79l4 36l-15 3l-1 8l20 1l5 3l-28 16l2 5l30 -6l-30 15l5 5l21 -5l4 10zM183 331l-66 39v-7l-2 -13l1 -27v-48l64 -44l-1 60zM357 214l-64 4v-51l64 -6v53zM509 306l8 -6l8 2l20 15l13 13
l11 18l-7 5h-14l-10 3l-14 7l-17 -3q-2 -13 -3 -24q-2 -9 -2.5 -17t-0.5 -7zM405 585l5 -6l19 11l8 -2l6 -24h13l6 6l-9 18l17 28l-15 9v5l-25 7v-20l-13 -5v-9l-9 -6zM410 336l4 30l-54 5l-3 -35h53zM343 455l-7 -11h-12l-5 7l11 8l-15 2v6l-23 4l3 -17l8 -14l20 -9l13 -1
l18 10l6 9l5 20l-30 2l7 -5zM566 312l-6 -3l-33 -27l39 -48v78zM221 454l1 4l14 2l-13 6l2 7l-20 -1l3 -19l14 -15l12 -6l11 5l16 12l6 12l2 13l-22 -4l6 -10l-12 -13l-14 -1zM371 281l-72 7l-6 -13l78 -4v10zM183 203l-74 50l20 -23l50 -41zM371 312h-73v-10h73v10z
M361 256l-68 4v-10h68v6zM492 359h-48v-13l44 4zM328 520l-4 -12l49 -17l3 4zM191 498l59 12l-4 12zM391 642l-8 -9v-19l12 -6l3 17zM468 530l-8 -4v-9l8 -3l2 7zM541 386l5 7v7l-10 -4v-10h5z" />
    <glyph glyph-name=".null" horiz-adv-x="0" 
 />
    <glyph glyph-name=".null" horiz-adv-x="0" 
 />
    <glyph glyph-name="nonmarkingreturn" unicode="&#xd;" horiz-adv-x="360" 
 />
    <glyph glyph-name="space" unicode=" " horiz-adv-x="240" 
 />
    <glyph glyph-name="exclam" unicode="!" horiz-adv-x="301" 
d="M221 441l-58 -206h-35l15 205l42 270h91zM150 110l29 -5l-5 -56l-14 -49l-76 -5l-29 5l5 57l14 48z" />
    <glyph glyph-name="quotedbl" unicode="&#x22;" horiz-adv-x="393" 
d="M285 657l18 48l64 5l36 -5l-5 -56l-13 -49l-91 -145l-34 15q8 13 17.5 30.5t18 35.5t15 34t8.5 26l-39 4zM125 657l18 48l64 5l36 -5l-5 -56l-13 -49l-91 -145l-34 15q8 13 17.5 30.5t18 35.5t15 34t8.5 26l-39 4z" />
    <glyph glyph-name="numbersign" unicode="#" horiz-adv-x="621" 
d="M230 245h145l49 165h-145zM552 655l-58 -195h132l-15 -50h-132l-49 -165h130l-15 -50h-131l-57 -195h-55l57 195h-145l-57 -195h-55l57 195h-129l15 50h130l49 165h-128l15 50h128l58 195h55l-58 -195h145l58 195h55z" />
    <glyph glyph-name="dollar" unicode="$" horiz-adv-x="552" 
d="M523 525h-54l-5 92q-14 12 -36.5 25t-48.5 21l-44 -250l62 -47q17 -13 34 -29t30 -36.5t21 -46.5t8 -60q0 -61 -37 -107t-103 -69l-90 -31l-11 -67h-40l11 63q-60 4 -107.5 21.5t-77.5 40.5l24 140h64v-83q15 -18 44 -36.5t62 -29.5l49 279l-73 57q-36 28 -59 62.5
t-23 85.5q0 110 149 165l76 27l12 69h40l-11 -64q57 -3 96 -18t62 -33zM385 159q0 25 -5 43.5t-14.5 33.5t-23 27.5t-29.5 24.5l-45 -259h9q57 15 82.5 49.5t25.5 80.5zM227 560q0 -43 22 -70.5t51 -49.5l40 230h-8q-55 -17 -80 -44.5t-25 -65.5z" />
    <glyph glyph-name="percent" unicode="%" horiz-adv-x="823" 
d="M112 -5h-72l671 710h72zM236 350q-26 0 -49.5 9t-41 25.5t-27.5 40t-10 52.5q0 41 8.5 75.5t28.5 62.5t54.5 49t85.5 36q30 0 53.5 -10.5t39 -28t24 -40.5t8.5 -48q0 -40 -8 -75.5t-28 -64.5t-53.5 -50t-84.5 -33zM275 658q-27 0 -45 -17t-29 -42.5t-16 -56.5t-5 -59
q0 -91 70 -91q24 0 40.5 17t27 42.5t15.5 56.5t5 59q0 45 -17 68t-46 23zM540 0q-26 0 -49.5 9t-41 25.5t-27.5 40t-10 52.5q0 41 8.5 75.5t28.5 62.5t54.5 49t85.5 36q30 0 53.5 -10.5t39 -28t24 -40.5t8.5 -48q0 -40 -8 -75.5t-28 -64.5t-53.5 -50t-84.5 -33zM579 308
q-27 0 -45 -17t-29 -42.5t-16 -56.5t-5 -59q0 -91 70 -91q24 0 40.5 17t27 42.5t15.5 56.5t5 59q0 45 -17 68t-46 23z" />
    <glyph glyph-name="ampersand" unicode="&#x26;" horiz-adv-x="587" 
d="M476 582q-9 9 -25.5 21t-35.5 24t-37.5 21.5t-32.5 12.5q-45 -20 -76.5 -50t-31.5 -76q0 -26 9 -48t22.5 -38t28.5 -25t28 -9l-7 -39q-35 0 -67.5 -15.5t-58.5 -41.5t-41.5 -60.5t-15.5 -73.5q0 -31 9 -58.5t27.5 -48t46 -32.5t65.5 -12q59 22 89.5 61t42.5 105l12 70
h-52l-14 -22h-25l17 92h212l15 22h22l-17 -92h-67l-15 -80q-6 -32 -16 -57.5t-28.5 -47t-49 -40t-78.5 -35.5q-20 -8 -42.5 -14.5t-48.5 -13.5q-53 0 -92 14t-65.5 38.5t-39.5 58t-13 73.5q0 72 43 124t127 85l45 18q-17 3 -35 13.5t-33 27.5t-25 40.5t-10 50.5
q0 33 15.5 59.5t43 47.5t64.5 37.5t81 29.5l65 19q14 -2 32.5 -9t36.5 -16.5t33 -19t22 -15.5z" />
    <glyph glyph-name="quotesingle" unicode="'" horiz-adv-x="233" 
d="M125 657l18 48l64 5l36 -5l-5 -56l-13 -49l-91 -145l-34 15q8 13 17.5 30.5t18 35.5t15 34t8.5 26l-39 4z" />
    <glyph glyph-name="parenleft" unicode="(" horiz-adv-x="341" 
d="M371 708q-120 -137 -177.5 -290.5t-57.5 -327.5q0 -83 16.5 -158.5t52.5 -141.5l-26 -28q-30 51 -52 93t-37 81t-22.5 78.5t-7.5 84.5q0 68 6.5 123.5t20 104.5t36 94.5t54.5 92.5t74.5 98.5t96.5 113.5z" />
    <glyph glyph-name="parenright" unicode=")" horiz-adv-x="341" 
d="M-30 -220q120 137 177.5 290.5t57.5 327.5q0 83 -16.5 158.5t-52.5 141.5l26 28q30 -51 52 -93.5t37 -81.5t22.5 -78t7.5 -84q0 -68 -6.5 -123.5t-20 -105t-36 -94.5t-54.5 -92t-74.5 -99t-96.5 -113l-23 18v0z" />
    <glyph glyph-name="asterisk" unicode="*" horiz-adv-x="378" 
d="M165 407l-61 44l86 94l-125 25l23 71l114 -51l-13 125h75l-12 -125l113 51l23 -71l-123 -25l84 -94l-61 -44l-62 106z" />
    <glyph glyph-name="plus" unicode="+" 
d="M277 0v220h-225v65h225v230h65v-230h225v-65h-225v-220h-65z" />
    <glyph glyph-name="comma" unicode="," horiz-adv-x="233" 
d="M55 57l18 48l64 5l36 -5l-5 -56l-13 -49l-91 -145l-34 15q8 13 17.5 30.5t18 35.5t15 34t8.5 26l-39 4z" />
    <glyph glyph-name="hyphen" unicode="-" horiz-adv-x="392" 
d="M62 307h305l-12 -65h-305z" />
    <glyph glyph-name="period" unicode="." horiz-adv-x="249" 
d="M145 110l29 -5l-5 -56l-14 -49l-76 -5l-29 5l5 57l14 48z" />
    <glyph glyph-name="slash" unicode="/" horiz-adv-x="505" 
d="M-62 -230h-58l617 948h58z" />
    <glyph glyph-name="zero" unicode="0" horiz-adv-x="553" 
d="M321 485q46 0 83.5 -15.5t63.5 -43t40.5 -65t14.5 -81.5q0 -43 -11 -82.5t-35.5 -74t-64 -63.5t-96.5 -50l-69 -25q-46 0 -83.5 15.5t-63.5 43t-40.5 65t-14.5 81.5q0 43 11 82.5t35.5 74t64 63.5t96.5 50zM276 34q69 26 108 86t39 145q0 34 -11.5 63t-30 51.5t-42 37
t-47.5 19.5q-69 -26 -108 -86t-39 -145q0 -34 10 -63t27.5 -51t41.5 -36.5t52 -20.5z" />
    <glyph glyph-name="one" unicode="1" horiz-adv-x="476" 
d="M269 49l167 -15l-11 -35l-209 3l-211 -3l1 35l170 15l58 322l10 22l-41 -15l-136 -35l-8 32l244 105h43z" />
    <glyph glyph-name="two" unicode="2" horiz-adv-x="498" 
d="M165 330h-81l10 93l210 62q75 0 112 -31t37 -79q0 -44 -28.5 -82.5t-71 -71t-91.5 -60t-91 -48.5l-97 -50l180 27h224v-30l-30 -60h-427l-26 45l130 87q49 33 90 61.5t70 55.5t45 54t16 57q0 76 -74 76l-73 -21z" />
    <glyph glyph-name="three" unicode="3" horiz-adv-x="453" 
d="M-45 -235l15 85h216q101 59 101 145q0 63 -42.5 95t-131.5 32l-6 28l50 20q72 29 113 67.5t41 101.5q0 38 -22.5 65t-63.5 32l-58 -21l-38 -95h-78l11 103l195 62q41 0 70 -10.5t47.5 -29.5t27 -44t8.5 -54q0 -62 -47.5 -104.5t-122.5 -70.5q37 -3 65.5 -16t47.5 -33.5
t28.5 -47.5t9.5 -57q0 -50 -23 -85t-58.5 -61t-79 -44.5t-85.5 -34.5l-73 -28h-117z" />
    <glyph glyph-name="four" unicode="4" horiz-adv-x="569" 
d="M405 65h144l-12 -65h-144l-41 -230h-90l41 230h-270l-28 39l396 431h95l-6 -36l-409 -384l51 15h183l15 91l80 59h21z" />
    <glyph glyph-name="five" unicode="5" horiz-adv-x="475" 
d="M-20 -235l15 85h217q50 34 79 78.5t29 91.5q0 58 -31.5 96.5t-97.5 38.5q-27 0 -48 -5.5t-50 -19.5l-36 -27l-20 26l102 341h343l-5 -31l-34 -58h-282l-66 -211l124 65q62 0 101 -17.5t61.5 -43.5t30.5 -56t8 -56q0 -55 -21.5 -97.5t-56 -74.5t-78.5 -56t-89 -41l-73 -28
h-122z" />
    <glyph glyph-name="six" unicode="6" horiz-adv-x="546" 
d="M174 310q-7 -16 -13 -39t-6 -61q0 -71 30 -120t92 -56q31 10 54 30.5t38.5 48.5t23 60.5t7.5 66.5q0 37 -7.5 62.5t-19.5 42t-26.5 24t-29.5 7.5q-23 0 -49 -11t-60 -33zM541 675q-71 -13 -131.5 -48t-107.5 -80t-78 -94.5t-41 -90.5l158 95q32 0 62 -15t52.5 -41t36 -60
t13.5 -71q0 -42 -11.5 -81t-35 -73t-58.5 -61.5t-83 -44.5l-72 -25q-44 0 -79.5 15t-61.5 43.5t-40 70.5t-14 96q0 91 36 173.5t99.5 149t151 114t190.5 68.5z" />
    <glyph glyph-name="seven" unicode="7" horiz-adv-x="487" 
d="M416 398l-30 -18h-345l16 90h430l15 -21l-405 -679h-92l5 32z" />
    <glyph glyph-name="eight" unicode="8" horiz-adv-x="534" 
d="M326 406q54 35 78 73t24 89q0 41 -25.5 67.5t-83.5 30.5q-52 -22 -69.5 -51t-17.5 -71q0 -32 24 -68.5t70 -69.5zM140 164q0 -32 11 -56.5t28.5 -41.5t40.5 -25.5t47 -8.5q59 27 88.5 63t29.5 90q0 29 -11.5 52.5t-29 43t-37.5 35t-37 29.5q-27 -17 -51 -36t-41.5 -40.5
t-27.5 -47.5t-10 -57zM233 -17q-36 0 -71 11t-62 31.5t-43.5 50t-16.5 66.5q0 45 17 80t45 62t64 46.5t74 33.5q-49 33 -78.5 68t-29.5 87q0 61 44.5 107.5t121.5 71.5l53 17q38 0 70.5 -8.5t56.5 -24t37.5 -39t13.5 -53.5q0 -41 -15 -72.5t-39 -56t-55 -43t-64 -33.5
q24 -17 47.5 -34t43 -38t31.5 -47t12 -60q0 -73 -56 -124t-159 -85z" />
    <glyph glyph-name="nine" unicode="9" horiz-adv-x="531" 
d="M372 160q7 16 13 39t6 61q0 71 -30 120t-92 56q-31 -10 -54 -30.5t-38.5 -48t-23 -60.5t-7.5 -67q0 -37 7.5 -62.5t19.5 -42t26.5 -24t29.5 -7.5q23 0 49 11t60 33zM5 -205q70 13 131 48t108 80t77.5 94.5t41.5 90.5l-158 -95q-32 0 -62 15t-52.5 41t-36 59.5t-13.5 71.5
q0 42 11.5 81t35 73t58.5 61.5t83 44.5l72 25q43 0 79 -15t62 -43.5t40 -70.5t14 -96q0 -91 -36 -173.5t-100 -149t-151 -114t-190 -68.5z" />
    <glyph glyph-name="colon" unicode=":" horiz-adv-x="261" 
d="M202 485l29 -5l-5 -56l-14 -49l-76 -5l-29 5l5 57l14 48zM145 110l29 -5l-5 -56l-14 -49l-76 -5l-29 5l5 57l14 48z" />
    <glyph glyph-name="semicolon" unicode=";" horiz-adv-x="261" 
d="M202 485l29 -5l-5 -56l-14 -49l-76 -5l-29 5l5 57l14 48zM55 57l18 48l64 5l36 -5l-5 -56l-13 -49l-91 -145l-34 15q8 13 17.5 30.5t18 35.5t15 34t8.5 26l-39 4z" />
    <glyph glyph-name="less" unicode="&#x3c;" 
d="M570 548v-79l-427 -182l427 -182v-80l-520 231v60z" />
    <glyph glyph-name="equal" unicode="=" 
d="M567 310h-515v65h515v-65zM567 115h-515v65h515v-65z" />
    <glyph glyph-name="greater" unicode="&#x3e;" 
d="M570 316v-60l-520 -231v80l427 182l-427 182v79z" />
    <glyph glyph-name="question" unicode="?" horiz-adv-x="395" 
d="M160 110l29 -5l-5 -56l-14 -49l-76 -5l-29 5l5 57l14 48zM187 573h-67v72l164 65q28 0 53.5 -11.5t45 -32t31 -48.5t11.5 -62q0 -69 -36 -113.5t-101 -74.5l-68 -31l-38 -117h-52l20 115l91 53q45 26 64.5 64.5t19.5 76.5q0 19 -3 40t-11.5 39.5t-22.5 32.5t-35 19
l-49 -16z" />
    <glyph glyph-name="at" unicode="@" horiz-adv-x="927" 
d="M607 126q33 0 70 19t68.5 54t52 84.5t20.5 111.5q0 54 -20 100t-57 80t-90 53.5t-119 19.5t-131.5 -28.5t-118 -79.5t-85 -123t-32.5 -159q0 -81 28 -140t75.5 -97.5t109 -57t128.5 -18.5q62 0 111.5 17t81.5 31l16 -29q-28 -14 -59.5 -27t-63.5 -23.5t-61.5 -17.5
t-53.5 -10q-90 0 -164 27t-127 74.5t-82 113t-29 142.5q0 74 25 141t70.5 122.5t109.5 97t141 65.5l93 29q93 0 164.5 -22.5t120 -61.5t73.5 -92.5t25 -116.5q0 -66 -25 -123t-66.5 -100t-95.5 -67.5t-112 -24.5l-59 62l46 121q-12 -15 -33 -41q-18 -22 -47 -57t-74 -87
q-29 0 -54.5 10t-45 28.5t-31 45t-11.5 58.5q0 42 12.5 81t36 72t56 59.5t72.5 44.5l109 49l115 -66zM605 427l-80 53q-45 -19 -73.5 -46.5t-45 -57.5t-22.5 -60.5t-6 -55.5q0 -41 21 -63.5t56 -22.5l116 126z" />
    <glyph glyph-name="A" unicode="A" horiz-adv-x="665" 
d="M501 2l-128 -3v35l87 13l-19 187h-220l-100 -187l85 -13l-10 -35l-108 3l-108 -3v35l80 11l367 653l67 20l71 -673l75 -11l-9 -35zM246 281h190l-24 240v72z" />
    <glyph glyph-name="B" unicode="B" horiz-adv-x="584" 
d="M362 54q49 31 73 68.5t24 86.5q0 28 -8 53t-25.5 43.5t-45.5 29t-69 10.5h-82l-46 -291h179zM381 379q43 -3 78 -16.5t59.5 -35.5t37.5 -50t13 -60q0 -41 -14 -71t-38 -52t-56 -38t-68 -30l-71 -27l-194 3l-138 -3v35l92 13l97 611l-89 9l10 34l138 -3l163 3
q46 1 78.5 -11.5t53.5 -32t31 -44.5t10 -49q0 -48 -35 -93.5t-107 -72.5zM294 390q40 0 72 15t54 39t33.5 53.5t11.5 57.5q0 18 -6 36.5t-18 33t-31.5 24t-46.5 9.5h-84l-43 -268h58z" />
    <glyph glyph-name="C" unicode="C" horiz-adv-x="616" 
d="M330 -18q-65 0 -116.5 21.5t-88 61.5t-56 97t-19.5 128q0 57 13.5 117t46 114.5t86 99t134.5 71.5l84 28q37 0 69.5 -7t59.5 -18.5t48 -25t35 -25.5l-5 -144h-53l-21 97q-22 22 -65.5 40t-115.5 29q-103 -45 -154.5 -136.5t-51.5 -219.5q0 -68 17 -118.5t46.5 -84.5
t68 -52t81.5 -21q38 14 62 28t48 35l59 119h55l-39 -168z" />
    <glyph glyph-name="D" unicode="D" horiz-adv-x="671" 
d="M277 658l-95 -600h176q39 21 75 53t63 74t43.5 93.5t16.5 111.5q0 66 -16 115.5t-43 82.5t-63 50t-77 20h-80zM123 2l-132 -3l-1 35l90 13l97 611l-90 9l10 34l132 -3l170 3q62 1 111.5 -19.5t84 -59.5t53 -94t18.5 -123q0 -54 -15.5 -110.5t-50 -107.5t-88.5 -93.5
t-131 -67.5l-81 -27z" />
    <glyph glyph-name="E" unicode="E" horiz-adv-x="590" 
d="M605 701v-171h-34l-44 121l-249 3l-42 -266l140 4l61 105h30l-35 -131l-9 -129h-30l-24 105l-140 4l-48 -300l271 3l77 135h38l-43 -185l-397 3l-137 -3v35l91 13l97 607l-88 13l10 34l138 -3z" />
    <glyph glyph-name="F" unicode="F" horiz-adv-x="555" 
d="M304 34l-10 -35l-167 3l-137 -3v35l91 13l97 607l-88 13l10 34l138 -3l367 3v-171h-34l-44 121l-249 3l-44 -280l140 4l61 105h30l-35 -131l-9 -129h-30l-24 105l-140 4l-46 -286z" />
    <glyph glyph-name="G" unicode="G" horiz-adv-x="660" 
d="M487 280l-84 13l10 32h125l117 3v-35l-68 -13l-36 -227l-238 -71q-65 0 -117 20t-89 58t-57 93.5t-20 126.5q0 58 16.5 120t53 118.5t95 103t143.5 72.5l77 24q34 0 65 -7t56.5 -18t46 -24.5t33.5 -26.5l-2 -137h-53l-24 93q-10 12 -27.5 24t-39.5 22t-47.5 16t-51.5 6
q-52 -23 -94.5 -54.5t-73 -75.5t-47 -101t-16.5 -130q0 -68 16.5 -117.5t45 -83t67 -50.5t81.5 -20q32 11 59.5 24.5t46.5 27.5z" />
    <glyph glyph-name="H" unicode="H" horiz-adv-x="694" 
d="M89 666l10 35l135 -3l130 3v-35l-87 -13l-43 -265h281l42 265l-86 13l10 35l136 -3l127 3v-35l-87 -13l-97 -606l83 -13l-10 -35l-127 3l-136 -3v35l90 13l47 291h-281l-46 -291l83 -13l-10 -35l-130 3l-133 -3v35l90 13l97 606z" />
    <glyph glyph-name="I" unicode="I" horiz-adv-x="314" 
d="M180 47l83 -13l-10 -35l-132 3l-131 -3v35l90 13l97 606l-88 13l10 35l133 -3l132 3v-35l-87 -13z" />
    <glyph glyph-name="J" unicode="J" horiz-adv-x="312" 
d="M-80 -175l17 82h102q13 18 21.5 35t14.5 37.5t10.5 46t9.5 59.5l90 568l-88 13l10 35l133 -3l132 3v-35l-87 -13l-89 -563q-10 -64 -26 -101.5t-50 -65.5l-121 -98h-79z" />
    <glyph glyph-name="K" unicode="K" horiz-adv-x="677" 
d="M236 388l25 16l276 249l-62 13l5 35l115 -3l97 3v-35l-86 -13l-294 -263l25 -16l252 -325l51 -15l-10 -35l-75 3l-68 -3l-241 341l-13 30l-51 -323l73 -13l-11 -35l-121 3l-133 -3l1 35l91 13l95 606l-87 13l10 35l132 -3l122 3v-35l-76 -13z" />
    <glyph glyph-name="L" unicode="L" horiz-adv-x="554" 
d="M232 698l137 3v-35l-92 -13l-97 -607l231 3l95 136h38l-61 -186l-357 3l-136 -3v35l90 13l97 606l-88 13l10 35z" />
    <glyph glyph-name="M" unicode="M" horiz-adv-x="865" 
d="M136 47l83 -13l-10 -35l-107 3l-112 -3v35l81 13l95 599l-91 20l10 35l123 -3l97 3l112 -542l-3 -60l299 602l89 -3l113 3v-35l-87 -13l-97 -606l78 -13l-10 -35l-115 3l-140 -3v35l92 13l79 498l32 113l-332 -658h-61l-116 566l-9 92z" />
    <glyph glyph-name="N" unicode="N" horiz-adv-x="706" 
d="M140 47l83 -13l-10 -35l-107 3l-116 -3v35l90 13l95 599l-83 20l10 35l93 -3l69 3l251 -490l17 -76l77 518l-83 13l10 35l107 -3l118 3v-35l-92 -13l-103 -653h-56l-270 536l-10 82z" />
    <glyph glyph-name="O" unicode="O" horiz-adv-x="695" 
d="M160 295q0 -65 16 -112.5t43 -79t63 -48.5t77 -21q49 19 89 55t68.5 84.5t43.5 107.5t15 124t-16 112.5t-43 79t-63 48t-77 21.5q-50 -19 -89.5 -55t-68 -84.5t-43.5 -107.5t-15 -124zM418 718q62 0 111.5 -20.5t84 -59.5t53 -94t18.5 -124q0 -60 -15.5 -122.5t-50 -119
t-89.5 -102t-133 -69.5l-80 -25q-62 0 -111.5 20.5t-84 59.5t-53 94t-18.5 124q0 60 15.5 122.5t50 119t89.5 102t133 69.5z" />
    <glyph glyph-name="P" unicode="P" horiz-adv-x="561" 
d="M395 701q47 1 84.5 -10t63.5 -31t39.5 -49t13.5 -64q0 -78 -53 -131.5t-171 -95.5l-54 -19h-97l-41 -254l121 -13l-10 -35l-170 3l-131 -3v35l90 13l98 611l-89 9l10 34l133 -3zM278 658l-48 -298h150q45 22 75.5 66.5t30.5 101.5q0 58 -29.5 92.5t-93.5 37.5h-85z" />
    <glyph glyph-name="Q" unicode="Q" horiz-adv-x="695" 
d="M418 718q62 0 111.5 -20.5t84 -59.5t53 -94t18.5 -124q0 -60 -15.5 -122.5t-50 -119t-89.5 -102t-133 -69.5l-45 -14l86 -32l92 -77l60 -22v-29h-139l-165 151q-111 10 -173.5 87.5t-62.5 208.5q0 60 15.5 122.5t50 119t89.5 102t133 69.5zM160 295q0 -65 16 -112.5
t43 -79t63 -48.5t77 -21q49 19 89 55t68.5 84.5t43.5 107.5t15 124t-16 112.5t-43 79t-63 48t-77 21.5q-50 -19 -89.5 -55t-68 -84.5t-43.5 -107.5t-15 -124z" />
    <glyph glyph-name="R" unicode="R" horiz-adv-x="638" 
d="M224 321l-44 -274l98 -13l-10 -35l-147 3l-131 -3v35l90 13l98 611l-89 9l10 34l133 -3l163 3q47 1 84.5 -10.5t63.5 -32t39.5 -48.5t13.5 -61q0 -72 -45.5 -117.5t-137.5 -81.5l-48 -18l64 -42l122 -244l52 -14l-6 -33l-83 3l-60 -3l-140 311l-12 11h-78zM278 658
l-45 -278h142q45 19 78 58t33 97q0 54 -29 87t-94 36h-85z" />
    <glyph glyph-name="S" unicode="S" horiz-adv-x="507" 
d="M503 525h-54l-5 92q-10 9 -24.5 18.5t-32 17t-36.5 12.5t-39 5q-55 -17 -80 -44.5t-25 -65.5q0 -44 23.5 -72t55.5 -52l91 -70q17 -13 34 -29t30 -36.5t21 -46.5t8 -60q0 -61 -37 -107t-103 -69l-102 -36q-70 0 -124.5 18.5t-88.5 44.5l24 140h64v-83q10 -12 27 -25
t38 -23.5t44 -17.5t45 -7q57 15 82.5 49.5t25.5 80.5q0 26 -5.5 45t-16 34.5t-25 28.5t-31.5 26l-102 79q-36 28 -59 62.5t-23 85.5q0 110 149 165l91 33q68 0 113 -16t71 -36z" />
    <glyph glyph-name="T" unicode="T" horiz-adv-x="593" 
d="M314 47l83 -13l-10 -35l-132 3l-131 -3v35l90 13l97 608l-140 -3l-66 -127h-40l28 176l276 -3l274 3l-26 -176h-40l-23 127l-143 3z" />
    <glyph glyph-name="U" unicode="U" horiz-adv-x="666" 
d="M570 234q-7 -43 -19.5 -79.5t-36 -66t-61.5 -51.5t-96 -37l-71 -18q-61 0 -102 18t-63.5 52t-27.5 82t4 107l65 412l-87 13l10 35l133 -3l137 3v-35l-88 -13l-71 -431q-6 -36 0 -69.5t24.5 -60t49.5 -42.5t76 -16q31 11 55 26t42.5 37.5t31 55.5t20.5 81l67 419l-87 13
l10 35l114 -3l127 3v-35l-89 -13z" />
    <glyph glyph-name="V" unicode="V" horiz-adv-x="629" 
d="M278 -18l-128 673l-75 11l10 35l131 -3l123 3v-35l-87 -13l85 -491l-9 -60l242 551l-85 13l10 35l116 -3l78 3v-35l-50 -11l-307 -653z" />
    <glyph glyph-name="W" unicode="W" horiz-adv-x="906" 
d="M255 -18l-105 673l-75 11l10 35l131 -3l103 3v-35l-67 -13l68 -493l-10 -57l172 443l-15 109l-55 11l10 35l111 -3l123 3v-35l-87 -13l68 -493l-10 -57l221 550l-85 13l10 35l115 -3l78 3v-35l-50 -11l-283 -653l-61 -20l-73 448l2 55l-185 -483z" />
    <glyph glyph-name="X" unicode="X" horiz-adv-x="652" 
d="M496 2l-142 -3v35l87 13l-110 226v38l-216 -264l80 -13l-10 -35l-119 3l-86 -3v35l57 13l260 298l-166 310l-56 11l10 35l116 -3l134 3v-35l-87 -13l108 -212l1 -37l214 249l-83 13l10 35l122 -3l77 3v-35l-52 -11l-254 -289l170 -319l51 -13l-10 -35z" />
    <glyph glyph-name="Y" unicode="Y" horiz-adv-x="613" 
d="M383 285l-37 -238l113 -13l-10 -35l-162 3l-163 -3v35l122 13l37 239l-152 369l-56 11l10 35l113 -3l132 3v-35l-87 -13l113 -282v-38l203 320l-85 13l10 35l112 -3l77 3v-35l-50 -11z" />
    <glyph glyph-name="Z" unicode="Z" horiz-adv-x="519" 
d="M484 205h38l-67 -205h-470v40l431 581l60 39l-295 -10l-67 -128h-34l29 178h435l20 -40l-431 -580l-56 -35l306 5z" />
    <glyph glyph-name="bracketleft" unicode="[" horiz-adv-x="339" 
d="M222 -230l-129 3l-83 -3q17 93 33 185q7 39 14 81.5t14.5 85.5t15 83.5t13.5 76.5q3 19 8 48t11 63t13 71t13 73q15 84 31 178l82 -3l131 3l-6 -35l-145 -10q-14 -68 -27 -137q-11 -59 -23.5 -125t-21.5 -120q-6 -32 -12.5 -69.5t-13 -77l-13 -79t-12.5 -75.5
q-14 -85 -28 -172l141 -10z" />
    <glyph glyph-name="backslash" unicode="\" horiz-adv-x="423" 
d="M95 718h52l286 -948h-52z" />
    <glyph glyph-name="bracketright" unicode="]" horiz-adv-x="339" 
d="M100 -185q17 87 33 172q7 36 14 75.5t14.5 79t14.5 77t13 69.5l20 120t20 125q11 69 22 137l-141 10l6 35l129 -3l84 3q-17 -94 -32 -178q-6 -36 -13 -73t-13 -71t-11.5 -63t-8.5 -48q-6 -36 -13.5 -76.5t-15 -83.5t-14.5 -85.5t-14 -81.5q-16 -92 -32 -185l-82 3
l-130 -3l6 35z" />
    <glyph glyph-name="asciicircum" unicode="^" horiz-adv-x="381" 
d="M150 460h-80l123 245h45l123 -245h-80l-65 157z" />
    <glyph glyph-name="underscore" unicode="_" horiz-adv-x="559" 
d="M-31 -55h555l-9 -55h-555z" />
    <glyph glyph-name="grave" unicode="`" horiz-adv-x="500" 
d="M272 542l-78 173h100l12 -173h-34z" />
    <glyph glyph-name="a" unicode="a" horiz-adv-x="483" 
d="M378 60l83 52l17 -25l-142 -102l-51 32l10 59l17 43l-142 -134q-25 6 -48.5 18t-41.5 34t-29 55t-11 81q0 99 47.5 168.5t135.5 113.5l60 30q14 -1 33.5 -4.5t41.5 -9.5t44.5 -13.5t42.5 -14.5zM135 193q0 -53 21 -86.5t45 -45.5l108 91l43 243q-10 7 -25 12.5t-31.5 10
t-32.5 7t-29 2.5q-19 -15 -36.5 -37.5t-31.5 -52t-22.5 -65.5t-8.5 -79z" />
    <glyph glyph-name="b" unicode="b" horiz-adv-x="469" 
d="M322 485q26 -5 49 -18t40.5 -35t27.5 -53.5t10 -74.5q0 -47 -12 -92.5t-35.5 -84.5t-58 -69.5t-80.5 -48.5l-62 -24q-38 4 -78.5 15t-82.5 31l109 625l-97 -27l-12 31l176 55l24 -23l-50 -290l-18 -45zM176 321l-42 -237q13 -9 28.5 -16.5t31.5 -13t31 -9t28 -3.5
q27 12 46 37t31 56.5t18 65.5t6 66q0 67 -18.5 100.5t-39.5 39.5z" />
    <glyph glyph-name="c" unicode="c" horiz-adv-x="412" 
d="M239 60q12 5 28 13t32.5 16.5t31.5 17.5t24 15l19 -24q-23 -18 -58.5 -42t-70.5 -46l-40 -25q-33 0 -63 12.5t-52.5 37t-36 61t-13.5 83.5q0 93 53 169t151 115l55 22q10 0 24 -3t29 -8.5t29.5 -12t25.5 -12.5l-48 -81q-26 19 -57 35t-55 27q-54 -29 -83 -86.5
t-29 -135.5q0 -36 8.5 -62.5t23 -44t33.5 -27.5t39 -14z" />
    <glyph glyph-name="d" unicode="d" horiz-adv-x="505" 
d="M290 18l11 59l18 43l-144 -135q-26 5 -50.5 17t-43 34t-30 56t-11.5 83q0 45 10.5 86.5t31.5 78t54 66t78 49.5l67 30q16 -1 39.5 -6.5t49.5 -13.5l34 191l-97 -27l-12 31l176 55l24 -23l-112 -632l83 52l17 -25l-142 -102zM135 194q0 -59 19.5 -90.5t45.5 -43.5l115 96
l42 239q-10 7 -26.5 12.5t-34.5 10t-35.5 7t-28.5 2.5q-23 -17 -41 -42.5t-30.5 -56t-19 -65.5t-6.5 -69z" />
    <glyph glyph-name="e" unicode="e" horiz-adv-x="426" 
d="M259 437q-27 -11 -47 -31t-34.5 -45t-23.5 -53.5t-14 -58.5l163 67q10 31 10 54q0 34 -15.5 48.5t-38.5 18.5zM238 59q26 11 59 29t59 35l18 -25q-9 -8 -24 -19t-32.5 -23.5t-36.5 -25t-37 -22.5l-39 -23q-37 0 -67.5 13.5t-52 37.5t-33.5 58t-12 75q0 47 13 92.5
t38.5 84.5t63 69.5t85.5 48.5l56 21q47 -8 78.5 -31t31.5 -74q0 -34 -18 -86l-252 -80q-1 -7 -1 -13.5v-12.5q0 -33 9.5 -57.5t24.5 -40t33 -23.5t36 -8z" />
    <glyph glyph-name="f" unicode="f" horiz-adv-x="315" 
d="M3 -153q17 18 27.5 41.5t13.5 41.5l84 480h-97l5 18l37 33h64l9 54q7 40 22 71t43 49l127 80h82l-16 -79h-124q-17 -17 -28.5 -41.5t-14.5 -44.5l-16 -92h113l-11 -48h-111l-77 -445q-7 -38 -23 -70.5t-43 -49.5l-124 -80h-70l17 82h111z" />
    <glyph glyph-name="g" unicode="g" horiz-adv-x="478" 
d="M20 -235l14 82h184q23 16 44.5 51t28.5 78l16 100l17 43l-142 -134q-26 5 -50.5 17t-43 34t-30 56t-11.5 83q0 45 10.5 86.5t31.5 78t54 66t78 49.5l67 30q15 0 35.5 -3.5t44 -9.5t47 -14.5t43.5 -19.5l-87 -484q-6 -32 -35 -60.5t-75 -63.5l-87 -65h-154zM142 194
q0 -59 19.5 -90.5t45.5 -43.5l114 92l44 240q-10 7 -24.5 13.5t-32 11.5t-35.5 7.5t-34 2.5q-23 -17 -41 -42.5t-30.5 -56t-19 -65.5t-6.5 -69z" />
    <glyph glyph-name="h" unicode="h" horiz-adv-x="509" 
d="M130 0h-85l116 656l-97 -27l-12 31l176 55l24 -23l-50 -286l-15 -31l171 110q30 0 50.5 -9.5t32 -25t15 -35.5t-0.5 -42l-56 -313l83 52l17 -25l-142 -102l-51 32l57 321q5 29 -0.5 48t-31.5 19q-22 0 -48 -12.5t-46 -26.5l-48 -33z" />
    <glyph glyph-name="i" unicode="i" horiz-adv-x="287" 
d="M187 688l29 5l56 -5v-48l-17 -43l-27 -5l-63 5l4 50zM46 383l-11 28l164 74l31 -32l-69 -393l83 52l17 -25l-142 -102l-51 32l71 399z" />
    <glyph glyph-name="j" unicode="j" horiz-adv-x="273" 
d="M-110 -235l14 82h117q16 20 25.5 43t12.5 41l86 485l-93 -33l-11 28l164 74l31 -32l-87 -487q-7 -38 -22.5 -70.5t-42.5 -49.5l-124 -81h-70zM192 688l29 5l56 -5v-48l-17 -43l-27 -5l-63 5l4 50z" />
    <glyph glyph-name="k" unicode="k" horiz-adv-x="480" 
d="M62 631l-11 30l176 55l24 -23l-72 -412l19 5l181 189h96l-20 -93h-61q-26 -7 -47 -18.5t-47 -32.5l-70 -58l27 -10l109 -205l86 54l17 -25l-142 -102l-39 24l-114 247l-44 -256h-85l115 658z" />
    <glyph glyph-name="l" unicode="l" horiz-adv-x="269" 
d="M71 629l-12 31l176 55l24 -23l-111 -632l83 52l17 -25l-142 -102l-51 32l113 639z" />
    <glyph glyph-name="m" unicode="m" horiz-adv-x="766" 
d="M368 485q29 0 48.5 -8.5t31 -23t15.5 -33.5t1 -40l151 105q30 0 50.5 -9.5t32 -25t15 -35.5t-0.5 -42l-56 -313l83 52l17 -25l-142 -102l-51 32l57 321q5 29 -1 48t-26 19t-45 -12.5t-44 -26.5l-46 -33l-60 -333h-85l60 338q5 29 -1 48t-26 19t-45 -13t-44 -26l-48 -33
l-59 -333h-85l74 416l-93 -33l-11 28l164 74l31 -32l-9 -48l-14 -30z" />
    <glyph glyph-name="n" unicode="n" horiz-adv-x="529" 
d="M383 338q5 29 -0.5 48t-31.5 19q-22 0 -48 -12.5t-46 -26.5l-48 -33l-59 -333h-85l74 416l-93 -33l-11 28l164 74l31 -32l-9 -48l-14 -30l171 110q30 0 50.5 -9.5t32 -25t15 -35.5t-0.5 -42l-56 -313l83 52l17 -25l-142 -102l-51 32z" />
    <glyph glyph-name="o" unicode="o" horiz-adv-x="477" 
d="M294 485q32 0 61.5 -13t52 -38t36 -62.5t13.5 -85.5q0 -46 -13 -88.5t-37.5 -79t-60.5 -65t-82 -45.5l-61 -23q-32 0 -61.5 13t-52 38t-36 62.5t-13.5 85.5q0 46 13 88.5t37.5 79t60.5 65t82 45.5zM253 437q-34 -11 -57 -38t-36.5 -61t-19 -71.5t-5.5 -68.5
q0 -42 9 -71.5t23.5 -49t34 -30t40.5 -14.5q34 11 57 38t37 61t20 71t6 69q0 42 -9 71.5t-24.5 49t-35 30t-40.5 14.5z" />
    <glyph glyph-name="p" unicode="p" horiz-adv-x="500" 
d="M143 -50l-33 -180h-85l113 646l-93 -33l-11 28l164 74l31 -32l-8 -51l-18 -45l150 128q26 -5 49 -18t40.5 -35t27.5 -53.5t10 -74.5q0 -47 -12 -92.5t-35.5 -84.5t-58 -69.5t-80.5 -48.5l-62 -24q-20 4 -41 8.5t-42 15.5zM207 321l-42 -237q13 -9 28.5 -16.5t31.5 -13
t31 -9t28 -3.5q27 12 46 37t31 56.5t18 65.5t6 66q0 67 -18.5 100.5t-39.5 39.5z" />
    <glyph glyph-name="q" unicode="q" horiz-adv-x="466" 
d="M177 -15q-29 5 -53.5 18t-43.5 35t-29.5 53.5t-10.5 74.5q0 47 12 92.5t35.5 84.5t58 69.5t80.5 48.5l62 24q18 -1 39.5 -4t43.5 -8.5t43 -13t37 -16.5l-119 -673h-85l52 298l18 45zM315 149l44 252q-13 8 -30.5 13.5t-34.5 8.5t-32.5 4t-25.5 1q-27 -12 -46 -37
t-31 -56.5t-18 -66t-6 -65.5q0 -67 21.5 -100.5t46.5 -39.5z" />
    <glyph glyph-name="r" unicode="r" horiz-adv-x="384" 
d="M212 376l-32 -108l134 207h80l-21 -92h-44q-20 -12 -47 -37t-49 -53l-39 -50l-44 -243h-85l74 416l-93 -33l-11 28l164 74l26 -27z" />
    <glyph glyph-name="s" unicode="s" horiz-adv-x="372" 
d="M125 -15q-11 4 -28 11.5t-35 16t-34 16.5t-23 14l48 71q10 -7 26.5 -17t34.5 -20.5t35.5 -20t30.5 -15.5q26 8 37.5 24t11.5 43q0 14 -6 33t-23 34l-85 78q-17 17 -29.5 40t-12.5 48q0 40 30.5 69.5t98.5 54.5l54 20q9 -2 24.5 -7.5t31.5 -13t31 -14.5t24 -12l-46 -71
q-11 7 -26 15.5t-31 17.5t-31.5 17t-27.5 13q-21 -8 -34 -22t-13 -36q0 -18 7 -34.5t27 -34.5l79 -72q23 -21 34.5 -43t11.5 -51q0 -43 -22.5 -72.5t-80.5 -49.5z" />
    <glyph glyph-name="t" unicode="t" horiz-adv-x="338" 
d="M158 60l130 53l16 -27l-188 -101l-51 28l68 397h-93l5 17l37 35h60l13 70l72 64h24l-25 -139h127l-10 -47h-125z" />
    <glyph glyph-name="u" unicode="u" horiz-adv-x="524" 
d="M41 383l-11 28l164 74l30 -31l-56 -326q-6 -34 3.5 -48.5t27.5 -14.5q11 0 24 5t26 12.5t24.5 15t20.5 13.5l46 31l56 328h85l-72 -410l83 52l17 -25l-142 -102l-44 28l8 58l14 30l-172 -116q-30 0 -50 10.5t-31 27t-14 36.5t0 39l56 318z" />
    <glyph glyph-name="v" unicode="v" horiz-adv-x="446" 
d="M316 432l86 53l39 -53l-21 -116l-226 -331l-81 20l-12 409l-90 -32l-11 28l164 75l27 -28v-373l-8 -45l199 308z" />
    <glyph glyph-name="w" unicode="w" horiz-adv-x="677" 
d="M547 432l86 53l39 -53l-21 -116l-226 -331l-81 20l-5 163l8 60l-153 -243l-81 20l-12 409l-90 -32l-11 28l164 75l27 -28v-373l-8 -45l153 240l-4 161l90 32v-388l-8 -45l199 308z" />
    <glyph glyph-name="x" unicode="x" horiz-adv-x="488" 
d="M156 421l-88 -33l-11 28l152 69l31 -27l38 -132v-49l124 198h96l-21 -87h-44q-11 -3 -20 -7.5t-18.5 -12.5t-20.5 -21t-26 -32l-48 -62l58 -191l86 47l16 -26l-142 -98l-35 24l-42 136v46l-145 -196h-96l21 87h58q11 3 21 7.5t20.5 13t22.5 21.5t27 33l48 63z" />
    <glyph glyph-name="y" unicode="y" horiz-adv-x="467" 
d="M214 6l-56 -6l-60 411l-85 -31l-15 25l138 80l54 -25l44 -420l169 307l-66 85l86 53l39 -53l-21 -116l-328 -551h-128l16 92h76z" />
    <glyph glyph-name="z" unicode="z" horiz-adv-x="409" 
d="M324 78l33 33l26 -8l-54 -120l-270 39l-41 -28l-28 19l335 383l-68 -26l-149 20l-28 -29l-25 7l53 110l260 -27l31 19l25 -19l-324 -372l62 24z" />
    <glyph glyph-name="braceleft" unicode="{" horiz-adv-x="314" 
d="M27 269q26 8 41.5 19.5t24.5 26t13.5 32.5t7.5 38l32 190q6 32 21 58t37.5 44t51 28t60.5 10h48l-6 -35h-48q-13 0 -28 -5t-28 -17.5t-23.5 -32.5t-14.5 -50l-27 -190q-3 -17 -8 -34t-15.5 -32.5t-28.5 -30t-46 -26.5l67 -52l-59 -300q-6 -30 -3 -50t12 -32.5t21.5 -17.5
t25.5 -5h48l-6 -35h-48q-64 0 -97.5 38t-22.5 102l51 285l-55 60z" />
    <glyph glyph-name="bar" unicode="|" horiz-adv-x="408" 
d="M259 718h59l-169 -963h-59z" />
    <glyph glyph-name="braceright" unicode="}" horiz-adv-x="314" 
d="M291 244q-26 -8 -41.5 -19.5t-24.5 -26t-13.5 -32.5t-7.5 -38l-37 -218q-6 -32 -21 -58t-37.5 -44t-51 -28t-60.5 -10h-47l6 35h47q13 0 28 5t28 17.5t23.5 32.5t14.5 50l32 218q3 17 8 34t15.5 32.5t28 30t46.5 26.5l-67 52l54 272q6 30 3 50t-12 32.5t-21.5 17.5
t-25.5 5h-48l6 35h48q64 0 97.5 -38t22.5 -102l-46 -257l55 -60z" />
    <glyph glyph-name="asciitilde" unicode="~" horiz-adv-x="734" 
d="M630 320h35l-57 -100l-97 -22l-349 56l-54 -59h-35l54 95l103 27l346 -56z" />
    <glyph glyph-name="nonbreakingspace" unicode="&#xa0;" horiz-adv-x="0" 
 />
    <glyph glyph-name="exclamdown" unicode="&#xa1;" horiz-adv-x="267" 
d="M81 24l58 206h35l-15 -205l-42 -270h-91zM152 355l-29 5l5 56l14 49l76 5l29 -5l-5 -57l-14 -48z" />
    <glyph glyph-name="cent" unicode="&#xa2;" horiz-adv-x="432" 
d="M249 60q12 5 28 13t32.5 16.5t31.5 17.5t24 15l19 -24q-23 -18 -58.5 -42t-70.5 -46l-36 -22l-10 -68h-52l9 72q-50 15 -83 62t-33 125q0 93 53 169t151 115l6 2l15 85h53l-12 -65l-1 -1q10 -1 23.5 -4.5t27.5 -8.5t27.5 -10.5t23.5 -11.5l-48 -81q-26 19 -57 35t-55 27
q-54 -29 -83 -86.5t-29 -135.5q0 -36 8.5 -62.5t23 -44t33.5 -27.5t39 -14z" />
    <glyph glyph-name="sterling" unicode="&#xa3;" horiz-adv-x="557" 
d="M483 586q-9 10 -24 22.5t-31.5 23.5t-33 20t-28.5 12q-15 -8 -27.5 -21t-22 -29.5t-16.5 -34.5t-10 -36l-30 -173h186l-10 -53l-185 1l-35 -196l-43 -75l235 3l56 105h58l-53 -155l-321 3l-138 -3l2 35l107 45l42 238h-88l3 17l36 35h58l27 158q6 33 16 59t28 46.5
t45.5 36t69.5 27.5l70 21q24 -8 57 -24t59 -36z" />
    <glyph glyph-name="currency" unicode="&#xa4;" 
d="M153 350q14 77 71 136l-49 60l54 46l50 -62q30 19 64 29.5t69 10.5t64.5 -10.5t53.5 -28.5l70 59l38 -47l-68 -58q17 -28 23.5 -62.5t-0.5 -72.5q-6 -35 -22.5 -67t-39.5 -59l44 -52l-54 -46l-42 51q-33 -23 -70 -35t-75 -12t-70.5 12t-56.5 34l-64 -54l-39 47l66 56
q-29 54 -17 125zM206 350q-6 -35 2 -65t26.5 -53t46.5 -36t63 -13q34 0 67 13t59.5 36t45 53t24.5 65q6 34 -1.5 64.5t-26.5 53.5t-47 36t-62 13q-35 0 -67.5 -13t-59.5 -36t-45.5 -53.5t-24.5 -64.5z" />
    <glyph glyph-name="yen" unicode="&#xa5;" horiz-adv-x="613" 
d="M363 285l-3 -15h161l-8 -45h-160l-7 -50h158l-8 -45h-157l-13 -83l113 -13l-10 -35l-162 3l-163 -3v35l122 13l13 83h-148l8 45h147l7 50h-145l8 45h144l3 16l-152 369l-56 11l10 35l113 -3l132 3v-35l-87 -13l113 -282v-38l203 320l-85 13l10 35l112 -3l77 3v-35
l-50 -11z" />
    <glyph glyph-name="brokenbar" unicode="&#xa6;" horiz-adv-x="407" 
d="M259 718h58l-75 -430h-58zM165 185h58l-75 -430h-58z" />
    <glyph glyph-name="section" unicode="&#xa7;" horiz-adv-x="502" 
d="M268 320q-22 18 -43.5 40.5t-40.5 48.5q-24 -20 -37 -44t-13 -56q0 -38 27.5 -73.5t80.5 -85.5q20 -20 37.5 -35.5t32.5 -34.5q12 10 23.5 21.5t20.5 26.5t14.5 34t5.5 43v25zM75 -73q8 -10 26.5 -27.5t39.5 -36t42 -34.5t35 -24l12 9q22 17 37 41t15 55q0 24 -6.5 45
t-20 42t-34.5 43.5t-50 49.5q-30 28 -52 50t-37 43t-22 42.5t-7 49.5q0 55 33.5 93.5t82.5 61.5q-10 18 -17 41.5t-7 45.5q0 33 7.5 61t25 50.5t46.5 40.5t72 30l65 19q15 -7 32 -19t33.5 -25t29.5 -25.5t21 -20.5l-71 -55q-7 11 -21 25.5t-30 28t-33 24.5t-30 17l-15 -11
q-23 -17 -36 -44t-13 -58q0 -38 19.5 -77.5t79.5 -89.5l130 -110v-28q0 -47 -11 -78t-29 -52.5t-40.5 -36t-44.5 -28.5q15 -19 24 -49.5t9 -52.5q0 -63 -27.5 -108t-89.5 -62l-99 -28q-20 9 -40 23.5t-38 29.5t-33 29.5t-23 24.5z" />
    <glyph glyph-name="dieresis" unicode="&#xa8;" horiz-adv-x="500" 
d="M165 670l51 -5v-45l-17 -40l-22 -5l-58 5l4 47l18 38zM329 670l51 -5v-45l-17 -40l-22 -5l-58 5l4 47l18 38z" />
    <glyph glyph-name="copyright" unicode="&#xa9;" horiz-adv-x="832" 
d="M435 25q60 0 115.5 21.5t98 62.5t67.5 100.5t25 134.5q0 85 -30 147.5t-75.5 103t-99 60.5t-99.5 20q-60 0 -115.5 -21.5t-98 -62.5t-67.5 -100.5t-25 -134.5q0 -85 30 -147.5t75.5 -103t99 -60.5t99.5 -20zM437 -15q-74 1 -140.5 26t-116.5 72.5t-80 116t-30 156.5
q0 79 26 140.5t74 106t115.5 72.5t149.5 40q73 -1 140 -26t117 -72.5t80 -116t30 -156.5q0 -79 -26 -140.5t-74 -106t-115.5 -72.5t-149.5 -40zM603 270l-14 -85q-25 -10 -65 -24.5t-78 -19.5q-41 0 -78.5 13.5t-66 39t-46 63.5t-17.5 87q0 50 16 87t44.5 63.5t68.5 42
t88 22.5q47 0 85 -15.5t56 -28.5v-79h-36l-18 51q-11 14 -34.5 26.5t-58.5 12.5q-61 0 -99 -42t-38 -125q0 -35 10 -67.5t29.5 -58.5t47 -41.5t63.5 -15.5q26 0 45 10t30 20l31 64h35z" />
    <glyph glyph-name="ordfeminine" unicode="&#xaa;" horiz-adv-x="433" 
d="M344 376l64 36l15 -24l-115 -82l-52 26l9 47l15 37l-121 -110q-21 4 -40.5 14.5t-35 28.5t-24.5 45.5t-9 66.5q0 79 43.5 135t121.5 91l48 24q12 -1 30 -4t37.5 -7.5t40.5 -10.5t39 -12zM131 477q0 -18 5 -34.5t12 -29.5t15.5 -22.5t15.5 -13.5l99 74l39 188
q-16 11 -44.5 18t-49.5 7q-16 -12 -32.5 -29.5t-29.5 -41t-21.5 -53t-8.5 -63.5z" />
    <glyph glyph-name="guillemotleft" unicode="&#xab;" horiz-adv-x="492" 
d="M361 15l-142 220l220 220h48l-166 -221l89 -219h-49zM177 15l-142 220l220 220h48l-166 -221l89 -219h-49z" />
    <glyph glyph-name="logicalnot" unicode="&#xac;" 
d="M567 180h-65v130h-450v65h515v-195z" />
    <glyph glyph-name="softhyphen" unicode="&#xad;" horiz-adv-x="341" 
d="M31 307h285l-11 -60h-285z" />
    <glyph glyph-name="registered" unicode="&#xae;" horiz-adv-x="592" 
d="M325 212q42 0 80 15t67 43t46 68.5t17 92.5q0 58 -20.5 101t-52 71t-68 41.5t-67.5 13.5q-42 0 -80 -15t-67 -43t-46 -68.5t-17 -92.5q0 -58 20.5 -101t52 -71t67.5 -41.5t68 -13.5zM288 424v-98l32 -5l-2 -20l-62 1l-63 -1l-2 20l33 5v222l-33 4l2 20l62 -1l94 1
q38 0 64.5 -17.5t26.5 -49.5q0 -30 -27 -47t-65 -25l45 -19l63 -87l20 -6l-1 -20l-47 1l-34 -1l-81 119l-6 4h-19zM327 185q-51 0 -96.5 17.5t-80 50t-55 79.5t-20.5 107q0 54 18 96t51 72.5t79 50t102 27.5q51 0 96.5 -17.5t80 -49.5t55 -79.5t20.5 -107.5q0 -54 -18 -96
t-51 -72.5t-79 -50t-102 -27.5zM288 448h27q24 0 40.5 14t16.5 40q0 25 -15 37.5t-37 12.5l-32 -3v-101z" />
    <glyph glyph-name="macron" unicode="&#xaf;" horiz-adv-x="500" 
d="M114 655h280l-9 -55h-280z" />
    <glyph glyph-name="degree" unicode="&#xb0;" horiz-adv-x="407" 
d="M115 600q0 31 10.5 55t30 42t48.5 31.5t65 24.5q31 0 59 -12t49 -33t33 -49t12 -59q0 -63 -36 -99.5t-117 -54.5q-32 0 -60 12t-49 33t-33 49t-12 60zM171 600q0 -20 8 -37.5t21.5 -31t31 -21.5t37.5 -8t37.5 8t31 21.5t21 31t7.5 37.5t-7.5 37.5t-21 31t-31 21
t-37.5 7.5t-37.5 -7.5t-31 -21t-21.5 -31t-8 -37.5z" />
    <glyph glyph-name="plusminus" unicode="&#xb1;" 
d="M272 141v220h-225v65h225v230h65v-230h225v-65h-225v-220h-65zM47 65h525v-65h-525v65z" />
    <glyph glyph-name="twosuperior" unicode="&#xb2;" horiz-adv-x="345" 
d="M390 709q0 -30 -13 -56.5t-35 -50t-50.5 -44t-59.5 -38.5l-115 -74l101 21h143v-25l-26 -42h-268l-12 27l126 107q52 41 86 82.5t34 86.5q0 26 -12 41.5t-33 16.5l-34 -11l-28 -63h-55l9 67l135 41q54 0 80.5 -23.5t26.5 -62.5z" />
    <glyph glyph-name="threesuperior" unicode="&#xb3;" horiz-adv-x="303" 
d="M50 399l12 65h135q44 30 44 71q0 23 -19.5 37t-63.5 14l-6 19l28 11q38 14 60 40t22 59q0 20 -10.5 31.5t-27.5 12.5l-35 -9l-27 -61h-62l9 67l140 39q54 0 76.5 -20.5t22.5 -50.5q0 -21 -9.5 -37t-25.5 -28.5t-36.5 -21t-41.5 -14.5q51 -4 74.5 -26t23.5 -48
q0 -30 -15.5 -51t-39 -35t-51.5 -23.5t-53 -18.5l-59 -22h-65z" />
    <glyph glyph-name="acute" unicode="&#xb4;" horiz-adv-x="500" 
d="M158 542l78 173h105l-145 -173h-38z" />
    <glyph glyph-name="uni00B5" unicode="&#xb5;" 
d="M186 470h85l-58 -342q-6 -34 3.5 -48.5t27.5 -14.5q11 0 24 5t26 12.5t24.5 15t20.5 13.5l46 31l56 328h85l-72 -410l83 52l17 -25l-142 -102l-44 28l8 58l14 30l-172 -116q-17 0 -30 3.5t-24 9.5l-4 -28l15 -200h-110z" />
    <glyph glyph-name="paragraph" unicode="&#xb6;" horiz-adv-x="501" 
d="M461 700v-50l-51 -10v-799h-58v799h-110v-799h-58v569q-30 0 -56.5 9t-46 25.5t-30.5 40.5t-11 54q0 24 11.5 45.5t31 41t46 37.5t56.5 37h276z" />
    <glyph glyph-name="periodcentered" unicode="&#xb7;" horiz-adv-x="434" 
d="M275 460l29 -5l-5 -56l-14 -49l-76 -5l-29 5l5 57l14 48z" />
    <glyph glyph-name="cedilla" unicode="&#xb8;" horiz-adv-x="500" 
d="M292 16l25 -16l-41 -47q15 0 29.5 -4.5t26 -12.5t18.5 -21t7 -29q0 -23 -10.5 -41t-26 -31t-34.5 -22t-35 -15l-51 -17h-58l29 40h84q17 10 26 26.5t9 33.5t-8 28.5t-20.5 18.5t-27.5 10t-29 3z" />
    <glyph glyph-name="onesuperior" unicode="&#xb9;" horiz-adv-x="308" 
d="M246 437l87 -9l-8 -29l-125 2l-130 -2l2 29l90 9l55 277l9 15l-31 -15l-63 -10l-7 26l146 58h43z" />
    <glyph glyph-name="ordmasculine" unicode="&#xba;" horiz-adv-x="429" 
d="M277 710q28 0 54 -10.5t45.5 -31t31 -50.5t11.5 -69q0 -74 -43.5 -135.5t-123.5 -89.5l-49 -18q-28 0 -54 10.5t-45.5 30.5t-31.5 50.5t-12 69.5q0 37 11.5 71.5t33 64t52.5 52t70 36.5zM243 668q-26 -9 -43.5 -30.5t-28.5 -48.5t-15.5 -56.5t-4.5 -54.5q0 -33 7 -56.5
t19 -38.5t27 -23.5t31 -11.5q26 9 43.5 30.5t28.5 48.5t15.5 56.5t4.5 54.5q0 33 -7 56t-19 38.5t-27 24t-31 11.5z" />
    <glyph glyph-name="guillemotright" unicode="&#xbb;" horiz-adv-x="518" 
d="M35 15l165 219l-88 221h48l144 -220l-220 -220h-49zM219 15l165 219l-88 221h48l144 -220l-220 -220h-49z" />
    <glyph glyph-name="onequarter" unicode="&#xbc;" horiz-adv-x="818" 
d="M691 177h77l-10 -58h-77l-23 -119h-73l22 119h-151l-18 39l229 234h81l-6 -33l-255 -196l38 14h92l10 43l66 48h17zM181 -50h-63l521 760h61zM226 352l87 -9l-8 -29l-125 2l-130 -2l2 29l90 9l55 277l9 15l-31 -15l-63 -10l-7 26l146 58h43z" />
    <glyph glyph-name="onehalf" unicode="&#xbd;" horiz-adv-x="819" 
d="M769 309q0 -30 -13 -56.5t-35 -50t-50.5 -44t-59.5 -38.5l-115 -74l101 21h143v-25l-26 -42h-268l-12 27l126 107q52 41 86 82.5t34 86.5q0 26 -12 41.5t-33 16.5l-34 -11l-28 -63h-55l9 67l135 41q54 0 80.5 -23.5t26.5 -62.5zM181 -50h-63l521 760h61zM226 352l87 -9
l-8 -29l-125 2l-130 -2l2 29l90 9l55 277l9 15l-31 -15l-63 -10l-7 26l146 58h43z" />
    <glyph glyph-name="threequarters" unicode="&#xbe;" horiz-adv-x="791" 
d="M664 177h77l-10 -58h-77l-23 -119h-73l22 119h-151l-18 39l229 234h81l-6 -33l-255 -196l38 14h92l10 43l66 48h17zM154 -50h-63l521 760h61zM50 314l12 65h135q44 30 44 71q0 23 -19.5 37t-63.5 14l-6 19l28 11q38 14 60 40t22 59q0 20 -10.5 31.5t-27.5 12.5l-35 -9
l-27 -61h-62l9 67l140 39q54 0 76.5 -20.5t22.5 -50.5q0 -21 -9.5 -37t-25.5 -28.5t-36.5 -21t-41.5 -14.5q51 -4 74.5 -26t23.5 -48q0 -30 -15.5 -51t-39 -35t-51.5 -23.5t-53 -18.5l-59 -22h-65z" />
    <glyph glyph-name="questiondown" unicode="&#xbf;" horiz-adv-x="375" 
d="M260 355l-29 5l5 56l14 49l76 5l29 -5l-5 -57l-14 -48zM233 -108h67v-72l-164 -65q-28 0 -53.5 11.5t-45 32t-31 48.5t-11.5 62q0 69 36 113.5t101 74.5l68 31l38 117h52l-20 -115l-91 -53q-45 -26 -64.5 -64.5t-19.5 -76.5q0 -19 3 -40t11.5 -39.5t22.5 -32.5t35 -19
l49 16z" />
    <glyph glyph-name="Agrave" unicode="&#xc0;" horiz-adv-x="665" 
d="M445 767l-91 133h110l24 -133h-43zM501 2l-128 -3v35l87 13l-19 187h-220l-100 -187l85 -13l-10 -35l-108 3l-108 -3v35l80 11l367 653l67 20l71 -673l75 -11l-9 -35zM246 281h190l-24 240v72z" />
    <glyph glyph-name="Aacute" unicode="&#xc1;" horiz-adv-x="665" 
d="M447 767l62 133h120l-139 -133h-43zM501 2l-128 -3v35l87 13l-19 187h-220l-100 -187l85 -13l-10 -35l-108 3l-108 -3v35l80 11l367 653l67 20l71 -673l75 -11l-9 -35zM246 281h190l-24 240v72z" />
    <glyph glyph-name="Acircumflex" unicode="&#xc2;" horiz-adv-x="665" 
d="M343 767l110 133h83l64 -133h-48l-69 77l-92 -77h-48zM501 2l-128 -3v35l87 13l-19 187h-220l-100 -187l85 -13l-10 -35l-108 3l-108 -3v35l80 11l367 653l67 20l71 -673l75 -11l-9 -35zM246 281h190l-24 240v72z" />
    <glyph glyph-name="Atilde" unicode="&#xc3;" horiz-adv-x="665" 
d="M376 870l69 22l137 -60l49 58h20l-43 -100l-67 -17l-138 60l-48 -58h-20zM501 2l-128 -3v35l87 13l-19 187h-220l-100 -187l85 -13l-10 -35l-108 3l-108 -3v35l80 11l367 653l67 20l71 -673l75 -11l-9 -35zM246 281h190l-24 240v72z" />
    <glyph glyph-name="Adieresis" unicode="&#xc4;" horiz-adv-x="665" 
d="M381 873l56 -5v-45l-17 -45l-27 -5l-58 5l4 52l18 38zM585 873l56 -5v-45l-17 -45l-27 -5l-58 5l4 52l18 38zM501 2l-128 -3v35l87 13l-19 187h-220l-100 -187l85 -13l-10 -35l-108 3l-108 -3v35l80 11l367 653l67 20l71 -673l75 -11l-9 -35zM246 281h190l-24 240v72z
" />
    <glyph glyph-name="Aring" unicode="&#xc5;" horiz-adv-x="665" 
d="M573 835q0 -25 -8 -39.5t-21.5 -23.5t-31.5 -14.5t-39 -13.5q-19 0 -38 4.5t-34 15t-24 28t-9 43.5q0 23 8.5 39t23 26.5t32.5 17t38 12.5q22 0 40.5 -4.5t32.5 -15.5t22 -29.5t8 -45.5zM415 835q0 -23 16.5 -37.5t39.5 -14.5t39.5 14.5t16.5 37.5t-16.5 39.5t-39.5 16.5
t-39.5 -16.5t-16.5 -39.5zM501 2l-128 -3v35l87 13l-19 187h-220l-100 -187l85 -13l-10 -35l-108 3l-108 -3v35l80 11l367 653l67 20l71 -673l75 -11l-9 -35zM246 281h190l-24 240v72z" />
    <glyph glyph-name="AE" unicode="&#xc6;" horiz-adv-x="878" 
d="M207 34l-12 -35l-113 3l-107 -3l2 35l79 11l410 656l81 -3l346 3v-171h-34l-43 120l-229 3l-46 -292l115 4l64 120h25l-38 -145l-9 -150h-25l-25 120l-115 4l-43 -268l241 3l80 146h38l-46 -196l-367 2l-132 -2v35l91 13l42 267h-153l-162 -267zM309 361h136l48 294z" />
    <glyph glyph-name="Ccedilla" unicode="&#xc7;" horiz-adv-x="616" 
d="M230 -240h-58l29 40h84q17 10 26 26.5t9 33.5t-8 28.5t-20.5 18.5t-27.5 10t-29 3l58 64q-56 6 -101 30t-76.5 63t-48 93t-16.5 120q0 57 13.5 117t46 114.5t86 99t134.5 71.5l84 28q37 0 69.5 -7t59.5 -18.5t48 -25t35 -25.5l-5 -144h-53l-21 97q-22 22 -65.5 40
t-115.5 29q-103 -45 -154.5 -136.5t-51.5 -219.5q0 -68 17 -118.5t46.5 -84.5t68 -52t81.5 -21q38 14 62 28t48 35l59 119h55l-39 -168l-228 -66l-25 -29q15 0 29.5 -4.5t26 -12.5t18.5 -21t7 -29q0 -23 -10.5 -41t-26 -31t-34.5 -22t-35 -15z" />
    <glyph glyph-name="Egrave" unicode="&#xc8;" horiz-adv-x="590" 
d="M370 767l-91 133h110l24 -133h-43zM605 701v-171h-34l-44 121l-249 3l-42 -266l140 4l61 105h30l-35 -131l-9 -129h-30l-24 105l-140 4l-48 -300l271 3l77 135h38l-43 -185l-397 3l-137 -3v35l91 13l97 607l-88 13l10 34l138 -3z" />
    <glyph glyph-name="Eacute" unicode="&#xc9;" horiz-adv-x="590" 
d="M352 767l62 133h120l-139 -133h-43zM605 701v-171h-34l-44 121l-249 3l-42 -266l140 4l61 105h30l-35 -131l-9 -129h-30l-24 105l-140 4l-48 -300l271 3l77 135h38l-43 -185l-397 3l-137 -3v35l91 13l97 607l-88 13l10 34l138 -3z" />
    <glyph glyph-name="Ecircumflex" unicode="&#xca;" horiz-adv-x="590" 
d="M246 767l110 133h83l64 -133h-48l-69 77l-92 -77h-48zM605 701v-171h-34l-44 121l-249 3l-42 -266l140 4l61 105h30l-35 -131l-9 -129h-30l-24 105l-140 4l-48 -300l271 3l77 135h38l-43 -185l-397 3l-137 -3v35l91 13l97 607l-88 13l10 34l138 -3z" />
    <glyph glyph-name="Edieresis" unicode="&#xcb;" horiz-adv-x="590" 
d="M286 873l56 -5v-45l-17 -45l-27 -5l-58 5l4 52l18 38zM490 873l56 -5v-45l-17 -45l-27 -5l-58 5l4 52l18 38zM605 701v-171h-34l-44 121l-249 3l-42 -266l140 4l61 105h30l-35 -131l-9 -129h-30l-24 105l-140 4l-48 -300l271 3l77 135h38l-43 -185l-397 3l-137 -3v35
l91 13l97 607l-88 13l10 34l138 -3z" />
    <glyph glyph-name="Igrave" unicode="&#xcc;" horiz-adv-x="314" 
d="M220 767l-91 133h110l24 -133h-43zM180 47l83 -13l-10 -35l-132 3l-131 -3v35l90 13l97 606l-88 13l10 35l133 -3l132 3v-35l-87 -13z" />
    <glyph glyph-name="Iacute" unicode="&#xcd;" horiz-adv-x="314" 
d="M216 767l62 133h120l-139 -133h-43zM180 47l83 -13l-10 -35l-132 3l-131 -3v35l90 13l97 606l-88 13l10 35l133 -3l132 3v-35l-87 -13z" />
    <glyph glyph-name="Icircumflex" unicode="&#xce;" horiz-adv-x="314" 
d="M113 767l110 133h83l64 -133h-48l-69 77l-92 -77h-48zM180 47l83 -13l-10 -35l-132 3l-131 -3v35l90 13l97 606l-88 13l10 35l133 -3l132 3v-35l-87 -13z" />
    <glyph glyph-name="Idieresis" unicode="&#xcf;" horiz-adv-x="314" 
d="M156 873l51 -5v-45l-17 -40l-22 -5l-58 5l4 47l18 38zM340 873l51 -5v-45l-17 -40l-22 -5l-58 5l4 47l18 38zM180 47l83 -13l-10 -35l-132 3l-131 -3v35l90 13l97 606l-88 13l10 35l133 -3l132 3v-35l-87 -13z" />
    <glyph glyph-name="Eth" unicode="&#xd0;" horiz-adv-x="671" 
d="M123 2l-132 -3l-1 35l90 13l46 291h-88l9 50h87l43 270l-90 9l10 34l132 -3l170 3q62 1 111.5 -19.5t84 -59.5t53 -94t18.5 -123q0 -54 -15.5 -110.5t-50 -107.5t-88.5 -93.5t-131 -67.5l-81 -27zM277 658l-43 -270h123l-9 -50h-122l-44 -280h176q39 21 75 53t63 74
t43.5 93.5t16.5 111.5q0 66 -16 115.5t-43 82.5t-63 50t-77 20h-80z" />
    <glyph glyph-name="Ntilde" unicode="&#xd1;" horiz-adv-x="706" 
d="M326 870l69 22l137 -60l49 58h20l-43 -100l-67 -17l-138 60l-48 -58h-20zM140 47l83 -13l-10 -35l-107 3l-116 -3v35l90 13l95 599l-83 20l10 35l93 -3l69 3l251 -490l17 -76l77 518l-83 13l10 35l107 -3l118 3v-35l-92 -13l-103 -653h-56l-270 536l-10 82z" />
    <glyph glyph-name="Ograve" unicode="&#xd2;" horiz-adv-x="695" 
d="M402 767l-91 133h110l24 -133h-43zM160 295q0 -65 16 -112.5t43 -79t63 -48.5t77 -21q49 19 89 55t68.5 84.5t43.5 107.5t15 124t-16 112.5t-43 79t-63 48t-77 21.5q-50 -19 -89.5 -55t-68 -84.5t-43.5 -107.5t-15 -124zM418 718q62 0 111.5 -20.5t84 -59.5t53 -94
t18.5 -124q0 -60 -15.5 -122.5t-50 -119t-89.5 -102t-133 -69.5l-80 -25q-62 0 -111.5 20.5t-84 59.5t-53 94t-18.5 124q0 60 15.5 122.5t50 119t89.5 102t133 69.5z" />
    <glyph glyph-name="Oacute" unicode="&#xd3;" horiz-adv-x="695" 
d="M412 767l62 133h120l-139 -133h-43zM160 295q0 -65 16 -112.5t43 -79t63 -48.5t77 -21q49 19 89 55t68.5 84.5t43.5 107.5t15 124t-16 112.5t-43 79t-63 48t-77 21.5q-50 -19 -89.5 -55t-68 -84.5t-43.5 -107.5t-15 -124zM418 718q62 0 111.5 -20.5t84 -59.5t53 -94
t18.5 -124q0 -60 -15.5 -122.5t-50 -119t-89.5 -102t-133 -69.5l-80 -25q-62 0 -111.5 20.5t-84 59.5t-53 94t-18.5 124q0 60 15.5 122.5t50 119t89.5 102t133 69.5z" />
    <glyph glyph-name="Ocircumflex" unicode="&#xd4;" horiz-adv-x="695" 
d="M308 767l110 133h83l64 -133h-48l-69 77l-92 -77h-48zM160 295q0 -65 16 -112.5t43 -79t63 -48.5t77 -21q49 19 89 55t68.5 84.5t43.5 107.5t15 124t-16 112.5t-43 79t-63 48t-77 21.5q-50 -19 -89.5 -55t-68 -84.5t-43.5 -107.5t-15 -124zM418 718q62 0 111.5 -20.5
t84 -59.5t53 -94t18.5 -124q0 -60 -15.5 -122.5t-50 -119t-89.5 -102t-133 -69.5l-80 -25q-62 0 -111.5 20.5t-84 59.5t-53 94t-18.5 124q0 60 15.5 122.5t50 119t89.5 102t133 69.5z" />
    <glyph glyph-name="Otilde" unicode="&#xd5;" horiz-adv-x="695" 
d="M341 870l69 22l137 -60l49 58h20l-43 -100l-67 -17l-138 60l-48 -58h-20zM160 295q0 -65 16 -112.5t43 -79t63 -48.5t77 -21q49 19 89 55t68.5 84.5t43.5 107.5t15 124t-16 112.5t-43 79t-63 48t-77 21.5q-50 -19 -89.5 -55t-68 -84.5t-43.5 -107.5t-15 -124zM418 718
q62 0 111.5 -20.5t84 -59.5t53 -94t18.5 -124q0 -60 -15.5 -122.5t-50 -119t-89.5 -102t-133 -69.5l-80 -25q-62 0 -111.5 20.5t-84 59.5t-53 94t-18.5 124q0 60 15.5 122.5t50 119t89.5 102t133 69.5z" />
    <glyph glyph-name="Odieresis" unicode="&#xd6;" horiz-adv-x="695" 
d="M346 873l56 -5v-45l-17 -45l-27 -5l-58 5l4 52l18 38zM550 873l56 -5v-45l-17 -45l-27 -5l-58 5l4 52l18 38zM160 295q0 -65 16 -112.5t43 -79t63 -48.5t77 -21q49 19 89 55t68.5 84.5t43.5 107.5t15 124t-16 112.5t-43 79t-63 48t-77 21.5q-50 -19 -89.5 -55t-68 -84.5
t-43.5 -107.5t-15 -124zM418 718q62 0 111.5 -20.5t84 -59.5t53 -94t18.5 -124q0 -60 -15.5 -122.5t-50 -119t-89.5 -102t-133 -69.5l-80 -25q-62 0 -111.5 20.5t-84 59.5t-53 94t-18.5 124q0 60 15.5 122.5t50 119t89.5 102t133 69.5z" />
    <glyph glyph-name="multiply" unicode="&#xd7;" 
d="M476 16l-167 167l-166 -167l-46 46l167 166l-167 167l46 46l166 -167l167 167l46 -46l-167 -167l167 -166z" />
    <glyph glyph-name="Oslash" unicode="&#xd8;" horiz-adv-x="695" 
d="M418 718q110 0 179 -63l52 60h51l-77 -89q30 -38 46 -90t16 -116q0 -60 -15.5 -122.5t-50 -119t-89.5 -102t-133 -69.5l-80 -25q-60 0 -107.5 19t-82.5 54l-61 -70h-53l89 102q-52 75 -52 193q0 60 15.5 122.5t50 119t89.5 102t133 69.5zM575 405q0 42 -6.5 75.5
t-18.5 61.5l-354 -407q27 -48 69.5 -72t93.5 -29q49 19 89 55t68.5 84.5t43.5 107.5t15 124zM160 295q0 -35 5 -65t13 -55l352 403q-28 41 -68 62t-86 26q-50 -19 -89.5 -55t-68 -84.5t-43.5 -107.5t-15 -124z" />
    <glyph glyph-name="Ugrave" unicode="&#xd9;" horiz-adv-x="666" 
d="M401 767l-91 133h110l24 -133h-43zM570 234q-7 -43 -19.5 -79.5t-36 -66t-61.5 -51.5t-96 -37l-71 -18q-61 0 -102 18t-63.5 52t-27.5 82t4 107l65 412l-87 13l10 35l133 -3l137 3v-35l-88 -13l-71 -431q-6 -36 0 -69.5t24.5 -60t49.5 -42.5t76 -16q31 11 55 26
t42.5 37.5t31 55.5t20.5 81l67 419l-87 13l10 35l114 -3l127 3v-35l-89 -13z" />
    <glyph glyph-name="Uacute" unicode="&#xda;" horiz-adv-x="666" 
d="M383 767l62 133h120l-139 -133h-43zM570 234q-7 -43 -19.5 -79.5t-36 -66t-61.5 -51.5t-96 -37l-71 -18q-61 0 -102 18t-63.5 52t-27.5 82t4 107l65 412l-87 13l10 35l133 -3l137 3v-35l-88 -13l-71 -431q-6 -36 0 -69.5t24.5 -60t49.5 -42.5t76 -16q31 11 55 26
t42.5 37.5t31 55.5t20.5 81l67 419l-87 13l10 35l114 -3l127 3v-35l-89 -13z" />
    <glyph glyph-name="Ucircumflex" unicode="&#xdb;" horiz-adv-x="666" 
d="M299 767l110 133h83l64 -133h-48l-69 77l-92 -77h-48zM570 234q-7 -43 -19.5 -79.5t-36 -66t-61.5 -51.5t-96 -37l-71 -18q-61 0 -102 18t-63.5 52t-27.5 82t4 107l65 412l-87 13l10 35l133 -3l137 3v-35l-88 -13l-71 -431q-6 -36 0 -69.5t24.5 -60t49.5 -42.5t76 -16
q31 11 55 26t42.5 37.5t31 55.5t20.5 81l67 419l-87 13l10 35l114 -3l127 3v-35l-89 -13z" />
    <glyph glyph-name="Udieresis" unicode="&#xdc;" horiz-adv-x="666" 
d="M335 873l56 -5v-45l-17 -45l-27 -5l-58 5l4 52l18 38zM539 873l56 -5v-45l-17 -45l-27 -5l-58 5l4 52l18 38zM570 234q-7 -43 -19.5 -79.5t-36 -66t-61.5 -51.5t-96 -37l-71 -18q-61 0 -102 18t-63.5 52t-27.5 82t4 107l65 412l-87 13l10 35l133 -3l137 3v-35l-88 -13
l-71 -431q-6 -36 0 -69.5t24.5 -60t49.5 -42.5t76 -16q31 11 55 26t42.5 37.5t31 55.5t20.5 81l67 419l-87 13l10 35l114 -3l127 3v-35l-89 -13z" />
    <glyph glyph-name="Yacute" unicode="&#xdd;" horiz-adv-x="613" 
d="M368 767l62 133h120l-139 -133h-43zM383 285l-37 -238l113 -13l-10 -35l-162 3l-163 -3v35l122 13l37 239l-152 369l-56 11l10 35l113 -3l132 3v-35l-87 -13l113 -282v-38l203 320l-85 13l10 35l112 -3l77 3v-35l-50 -11z" />
    <glyph glyph-name="Thorn" unicode="&#xde;" horiz-adv-x="553" 
d="M261 555l111 3q95 2 148 -41t53 -114q0 -78 -53 -131.5t-171 -95.5l-54 -19h-98l-17 -110l113 -13l-10 -35l-162 3l-131 -3v35l90 13l97 606l-88 13l10 35l133 -3l132 3v-35l-87 -13zM254 514l-47 -298h150q45 22 75.5 66.5t30.5 101.5q0 58 -29.5 92.5t-93.5 37.5h-86z
" />
    <glyph glyph-name="germandbls" unicode="&#xdf;" horiz-adv-x="529" 
d="M-88 -153h91q17 18 27.5 41.5t13.5 41.5l84 480h-97l5 18l37 33h64l8 49q6 38 22 70t43 50l127 85q29 -1 58 -5.5t52 -17t37.5 -35t14.5 -59.5q0 -26 -9 -46.5t-22.5 -37.5t-30.5 -31t-33 -26l-62 -47q-3 -4 -5 -13.5t-2 -14.5q0 -26 14.5 -47t45.5 -48q17 -15 34.5 -30
t31.5 -32.5t23 -38.5t9 -46q0 -46 -23.5 -77t-84.5 -51l-89 -30q-9 4 -23.5 11.5t-29.5 16t-28 16.5t-19 14l48 68q9 -7 22.5 -17t28 -20t29 -19.5t25.5 -15.5q29 8 42.5 27t13.5 46q0 21 -7 38.5t-18.5 32t-25.5 27t-28 25.5q-26 23 -46.5 49t-20.5 66q0 20 4.5 33.5
t11.5 22.5l52 46q14 13 28 26.5t25 29.5t17.5 34.5t6.5 41.5q0 24 -6.5 39t-17 24t-23.5 12.5t-25 3.5l-17 -10q-29 -17 -50.5 -40t-29.5 -65l-101 -580q-7 -38 -22.5 -70.5t-42.5 -49.5l-124 -80h-50z" />
    <glyph glyph-name="agrave" unicode="&#xe0;" horiz-adv-x="483" 
d="M325 542l-78 173h100l12 -173h-34zM378 60l83 52l17 -25l-142 -102l-51 32l10 59l17 43l-142 -134q-25 6 -48.5 18t-41.5 34t-29 55t-11 81q0 99 47.5 168.5t135.5 113.5l60 30q14 -1 33.5 -4.5t41.5 -9.5t44.5 -13.5t42.5 -14.5zM135 193q0 -53 21 -86.5t45 -45.5
l108 91l43 243q-10 7 -25 12.5t-31.5 10t-32.5 7t-29 2.5q-19 -15 -36.5 -37.5t-31.5 -52t-22.5 -65.5t-8.5 -79z" />
    <glyph glyph-name="aacute" unicode="&#xe1;" horiz-adv-x="483" 
d="M303 542l78 173h105l-145 -173h-38zM378 60l83 52l17 -25l-142 -102l-51 32l10 59l17 43l-142 -134q-25 6 -48.5 18t-41.5 34t-29 55t-11 81q0 99 47.5 168.5t135.5 113.5l60 30q14 -1 33.5 -4.5t41.5 -9.5t44.5 -13.5t42.5 -14.5zM135 193q0 -53 21 -86.5t45 -45.5
l108 91l43 243q-10 7 -25 12.5t-31.5 10t-32.5 7t-29 2.5q-19 -15 -36.5 -37.5t-31.5 -52t-22.5 -65.5t-8.5 -79z" />
    <glyph glyph-name="acircumflex" unicode="&#xe2;" horiz-adv-x="483" 
d="M215 542l118 173h68l56 -173h-38l-67 100l-99 -100h-38zM378 60l83 52l17 -25l-142 -102l-51 32l10 59l17 43l-142 -134q-25 6 -48.5 18t-41.5 34t-29 55t-11 81q0 99 47.5 168.5t135.5 113.5l60 30q14 -1 33.5 -4.5t41.5 -9.5t44.5 -13.5t42.5 -14.5zM135 193
q0 -53 21 -86.5t45 -45.5l108 91l43 243q-10 7 -25 12.5t-31.5 10t-32.5 7t-29 2.5q-19 -15 -36.5 -37.5t-31.5 -52t-22.5 -65.5t-8.5 -79z" />
    <glyph glyph-name="atilde" unicode="&#xe3;" horiz-adv-x="483" 
d="M228 680l69 22l137 -60l49 58h20l-43 -100l-67 -17l-138 60l-48 -58h-20zM378 60l83 52l17 -25l-142 -102l-51 32l10 59l17 43l-142 -134q-25 6 -48.5 18t-41.5 34t-29 55t-11 81q0 99 47.5 168.5t135.5 113.5l60 30q14 -1 33.5 -4.5t41.5 -9.5t44.5 -13.5t42.5 -14.5z
M135 193q0 -53 21 -86.5t45 -45.5l108 91l43 243q-10 7 -25 12.5t-31.5 10t-32.5 7t-29 2.5q-19 -15 -36.5 -37.5t-31.5 -52t-22.5 -65.5t-8.5 -79z" />
    <glyph glyph-name="adieresis" unicode="&#xe4;" horiz-adv-x="483" 
d="M260 670l51 -5v-45l-17 -40l-22 -5l-58 5l4 47l18 38zM424 670l51 -5v-45l-17 -40l-22 -5l-58 5l4 47l18 38zM378 60l83 52l17 -25l-142 -102l-51 32l10 59l17 43l-142 -134q-25 6 -48.5 18t-41.5 34t-29 55t-11 81q0 99 47.5 168.5t135.5 113.5l60 30q14 -1 33.5 -4.5
t41.5 -9.5t44.5 -13.5t42.5 -14.5zM135 193q0 -53 21 -86.5t45 -45.5l108 91l43 243q-10 7 -25 12.5t-31.5 10t-32.5 7t-29 2.5q-19 -15 -36.5 -37.5t-31.5 -52t-22.5 -65.5t-8.5 -79z" />
    <glyph glyph-name="aring" unicode="&#xe5;" horiz-adv-x="483" 
d="M462 630q0 -25 -8 -39.5t-21.5 -23.5t-31.5 -14.5t-39 -13.5q-19 0 -38 4.5t-34 15t-24 28t-9 43.5q0 23 8.5 39t23 26.5t32.5 17t38 12.5q22 0 40.5 -4.5t32.5 -15.5t22 -29.5t8 -45.5zM304 630q0 -23 16.5 -37.5t39.5 -14.5t39.5 14.5t16.5 37.5t-16.5 39.5t-39.5 16.5
t-39.5 -16.5t-16.5 -39.5zM378 60l83 52l17 -25l-142 -102l-51 32l10 59l17 43l-142 -134q-25 6 -48.5 18t-41.5 34t-29 55t-11 81q0 99 47.5 168.5t135.5 113.5l60 30q14 -1 33.5 -4.5t41.5 -9.5t44.5 -13.5t42.5 -14.5zM135 193q0 -53 21 -86.5t45 -45.5l108 91l43 243
q-10 7 -25 12.5t-31.5 10t-32.5 7t-29 2.5q-19 -15 -36.5 -37.5t-31.5 -52t-22.5 -65.5t-8.5 -79z" />
    <glyph glyph-name="ae" unicode="&#xe6;" horiz-adv-x="657" 
d="M469 59q26 11 59 29t59 35l18 -25q-9 -8 -24 -19t-32.5 -23.5t-36.5 -25t-37 -22.5l-39 -23q-55 0 -94.5 28.5t-57.5 78.5l-114 -107q-26 6 -50.5 18t-43 34t-30 55t-11.5 81q0 99 47.5 168.5t135.5 113.5l60 30q13 -1 31.5 -4.5t39.5 -8.5t42.5 -11.5t41.5 -13.5l94 38
q47 -8 78.5 -31t31.5 -74q0 -34 -18 -86l-252 -80q-1 -7 -1 -13.5v-12.5q0 -33 9.5 -57.5t24.5 -40t33 -23.5t36 -8zM130 193q0 -53 22.5 -86.5t48.5 -45.5l74 62q-6 35 -3 71.5t14 71.5t29.5 67.5t44.5 58.5q-32 17 -69.5 26t-61.5 9q-19 -15 -36.5 -37.5t-31.5 -52
t-22.5 -65.5t-8.5 -79zM490 437q-27 -11 -47 -31t-34.5 -45t-23.5 -53.5t-14 -58.5l163 67q10 31 10 54q0 34 -15.5 48.5t-38.5 18.5z" />
    <glyph glyph-name="ccedilla" unicode="&#xe7;" horiz-adv-x="412" 
d="M101 -240h-58l29 40h84q17 10 26 26.5t9 33.5t-8 28.5t-20.5 18.5t-27.5 10t-29 3l63 69q-55 12 -92 60.5t-37 129.5q0 93 53 169t151 115l55 22q10 0 24 -3t29 -8.5t29.5 -12t25.5 -12.5l-48 -81q-26 19 -57 35t-55 27q-54 -29 -83 -86.5t-29 -135.5q0 -36 8.5 -62.5
t23 -44t33.5 -27.5t39 -14q12 5 28 13t32.5 16.5t31.5 17.5t24 15l19 -24q-23 -18 -58.5 -42t-70.5 -46l-40 -25l-28 -32q15 0 29.5 -4.5t26 -12.5t18.5 -21t7 -29q0 -23 -10.5 -41t-26 -31t-34.5 -22t-35 -15z" />
    <glyph glyph-name="egrave" unicode="&#xe8;" horiz-adv-x="426" 
d="M282 542l-78 173h100l12 -173h-34zM259 437q-27 -11 -47 -31t-34.5 -45t-23.5 -53.5t-14 -58.5l163 67q10 31 10 54q0 34 -15.5 48.5t-38.5 18.5zM238 59q26 11 59 29t59 35l18 -25q-9 -8 -24 -19t-32.5 -23.5t-36.5 -25t-37 -22.5l-39 -23q-37 0 -67.5 13.5t-52 37.5
t-33.5 58t-12 75q0 47 13 92.5t38.5 84.5t63 69.5t85.5 48.5l56 21q47 -8 78.5 -31t31.5 -74q0 -34 -18 -86l-252 -80q-1 -7 -1 -13.5v-12.5q0 -33 9.5 -57.5t24.5 -40t33 -23.5t36 -8z" />
    <glyph glyph-name="eacute" unicode="&#xe9;" horiz-adv-x="426" 
d="M264 542l78 173h105l-145 -173h-38zM259 437q-27 -11 -47 -31t-34.5 -45t-23.5 -53.5t-14 -58.5l163 67q10 31 10 54q0 34 -15.5 48.5t-38.5 18.5zM238 59q26 11 59 29t59 35l18 -25q-9 -8 -24 -19t-32.5 -23.5t-36.5 -25t-37 -22.5l-39 -23q-37 0 -67.5 13.5t-52 37.5
t-33.5 58t-12 75q0 47 13 92.5t38.5 84.5t63 69.5t85.5 48.5l56 21q47 -8 78.5 -31t31.5 -74q0 -34 -18 -86l-252 -80q-1 -7 -1 -13.5v-12.5q0 -33 9.5 -57.5t24.5 -40t33 -23.5t36 -8z" />
    <glyph glyph-name="ecircumflex" unicode="&#xea;" horiz-adv-x="426" 
d="M174 542l118 173h68l56 -173h-38l-67 100l-99 -100h-38zM259 437q-27 -11 -47 -31t-34.5 -45t-23.5 -53.5t-14 -58.5l163 67q10 31 10 54q0 34 -15.5 48.5t-38.5 18.5zM238 59q26 11 59 29t59 35l18 -25q-9 -8 -24 -19t-32.5 -23.5t-36.5 -25t-37 -22.5l-39 -23
q-37 0 -67.5 13.5t-52 37.5t-33.5 58t-12 75q0 47 13 92.5t38.5 84.5t63 69.5t85.5 48.5l56 21q47 -8 78.5 -31t31.5 -74q0 -34 -18 -86l-252 -80q-1 -7 -1 -13.5v-12.5q0 -33 9.5 -57.5t24.5 -40t33 -23.5t36 -8z" />
    <glyph glyph-name="edieresis" unicode="&#xeb;" horiz-adv-x="426" 
d="M222 670l51 -5v-45l-17 -40l-22 -5l-58 5l4 47l18 38zM386 670l51 -5v-45l-17 -40l-22 -5l-58 5l4 47l18 38zM259 437q-27 -11 -47 -31t-34.5 -45t-23.5 -53.5t-14 -58.5l163 67q10 31 10 54q0 34 -15.5 48.5t-38.5 18.5zM238 59q26 11 59 29t59 35l18 -25q-9 -8 -24 -19
t-32.5 -23.5t-36.5 -25t-37 -22.5l-39 -23q-37 0 -67.5 13.5t-52 37.5t-33.5 58t-12 75q0 47 13 92.5t38.5 84.5t63 69.5t85.5 48.5l56 21q47 -8 78.5 -31t31.5 -74q0 -34 -18 -86l-252 -80q-1 -7 -1 -13.5v-12.5q0 -33 9.5 -57.5t24.5 -40t33 -23.5t36 -8z" />
    <glyph glyph-name="igrave" unicode="&#xec;" horiz-adv-x="287" 
d="M204 542l-78 173h100l12 -173h-34zM46 383l-11 28l164 74l31 -32l-69 -393l83 52l17 -25l-142 -102l-51 32l71 399z" />
    <glyph glyph-name="iacute" unicode="&#xed;" horiz-adv-x="287" 
d="M180 542l78 173h105l-145 -173h-38zM46 383l-11 28l164 74l31 -32l-69 -393l83 52l17 -25l-142 -102l-51 32l71 399z" />
    <glyph glyph-name="icircumflex" unicode="&#xee;" horiz-adv-x="287" 
d="M81 542l118 173h68l56 -173h-38l-67 100l-99 -100h-38zM46 383l-11 28l164 74l31 -32l-69 -393l83 52l17 -25l-142 -102l-51 32l71 399z" />
    <glyph glyph-name="idieresis" unicode="&#xef;" horiz-adv-x="287" 
d="M127 670l51 -5v-45l-17 -40l-22 -5l-58 5l4 47l18 38zM291 670l51 -5v-45l-17 -40l-22 -5l-58 5l4 47l18 38zM46 383l-11 28l164 74l31 -32l-69 -393l83 52l17 -25l-142 -102l-51 32l71 399z" />
    <glyph glyph-name="eth" unicode="&#xf0;" horiz-adv-x="486" 
d="M296 485q18 -5 40.5 -12.5t33.5 -14.5q0 11 -6 27t-16 34.5t-24.5 37t-30.5 35.5l-112 -55v47l78 38q-23 18 -47.5 31.5t-47.5 19.5l15 43q40 -11 72.5 -26.5t58.5 -34.5l123 61v-48l-85 -43q39 -35 62.5 -75.5t35.5 -79.5t16 -74.5t4 -61.5q0 -132 -51.5 -209.5
t-148.5 -118.5l-56 -21q-35 0 -65.5 12.5t-54 37t-37 61t-13.5 83.5q0 46 13 90t38.5 81t62.5 66.5t86 47.5zM371 379q-14 10 -33 18.5t-37.5 14.5t-35 9t-25.5 3q-28 -12 -47 -37t-31 -56.5t-17 -66.5t-5 -66q0 -42 8.5 -71.5t23 -48.5t33.5 -29t39 -14q35 10 59 37.5
t39 62.5t22 73t7 70v101z" />
    <glyph glyph-name="ntilde" unicode="&#xf1;" horiz-adv-x="529" 
d="M229 680l69 22l137 -60l49 58h20l-43 -100l-67 -17l-138 60l-48 -58h-20zM383 338q5 29 -0.5 48t-31.5 19q-22 0 -48 -12.5t-46 -26.5l-48 -33l-59 -333h-85l74 416l-93 -33l-11 28l164 74l31 -32l-9 -48l-14 -30l171 110q30 0 50.5 -9.5t32 -25t15 -35.5t-0.5 -42
l-56 -313l83 52l17 -25l-142 -102l-51 32z" />
    <glyph glyph-name="ograve" unicode="&#xf2;" horiz-adv-x="477" 
d="M293 542l-78 173h100l12 -173h-34zM294 485q32 0 61.5 -13t52 -38t36 -62.5t13.5 -85.5q0 -46 -13 -88.5t-37.5 -79t-60.5 -65t-82 -45.5l-61 -23q-32 0 -61.5 13t-52 38t-36 62.5t-13.5 85.5q0 46 13 88.5t37.5 79t60.5 65t82 45.5zM253 437q-34 -11 -57 -38t-36.5 -61
t-19 -71.5t-5.5 -68.5q0 -42 9 -71.5t23.5 -49t34 -30t40.5 -14.5q34 11 57 38t37 61t20 71t6 69q0 42 -9 71.5t-24.5 49t-35 30t-40.5 14.5z" />
    <glyph glyph-name="oacute" unicode="&#xf3;" horiz-adv-x="477" 
d="M280 542l78 173h105l-145 -173h-38zM294 485q32 0 61.5 -13t52 -38t36 -62.5t13.5 -85.5q0 -46 -13 -88.5t-37.5 -79t-60.5 -65t-82 -45.5l-61 -23q-32 0 -61.5 13t-52 38t-36 62.5t-13.5 85.5q0 46 13 88.5t37.5 79t60.5 65t82 45.5zM253 437q-34 -11 -57 -38t-36.5 -61
t-19 -71.5t-5.5 -68.5q0 -42 9 -71.5t23.5 -49t34 -30t40.5 -14.5q34 11 57 38t37 61t20 71t6 69q0 42 -9 71.5t-24.5 49t-35 30t-40.5 14.5z" />
    <glyph glyph-name="ocircumflex" unicode="&#xf4;" horiz-adv-x="477" 
d="M190 542l118 173h68l56 -173h-38l-67 100l-99 -100h-38zM294 485q32 0 61.5 -13t52 -38t36 -62.5t13.5 -85.5q0 -46 -13 -88.5t-37.5 -79t-60.5 -65t-82 -45.5l-61 -23q-32 0 -61.5 13t-52 38t-36 62.5t-13.5 85.5q0 46 13 88.5t37.5 79t60.5 65t82 45.5zM253 437
q-34 -11 -57 -38t-36.5 -61t-19 -71.5t-5.5 -68.5q0 -42 9 -71.5t23.5 -49t34 -30t40.5 -14.5q34 11 57 38t37 61t20 71t6 69q0 42 -9 71.5t-24.5 49t-35 30t-40.5 14.5z" />
    <glyph glyph-name="otilde" unicode="&#xf5;" horiz-adv-x="477" 
d="M214 680l69 22l137 -60l49 58h20l-43 -100l-67 -17l-138 60l-48 -58h-20zM294 485q32 0 61.5 -13t52 -38t36 -62.5t13.5 -85.5q0 -46 -13 -88.5t-37.5 -79t-60.5 -65t-82 -45.5l-61 -23q-32 0 -61.5 13t-52 38t-36 62.5t-13.5 85.5q0 46 13 88.5t37.5 79t60.5 65t82 45.5
zM253 437q-34 -11 -57 -38t-36.5 -61t-19 -71.5t-5.5 -68.5q0 -42 9 -71.5t23.5 -49t34 -30t40.5 -14.5q34 11 57 38t37 61t20 71t6 69q0 42 -9 71.5t-24.5 49t-35 30t-40.5 14.5z" />
    <glyph glyph-name="odieresis" unicode="&#xf6;" horiz-adv-x="477" 
d="M247 670l51 -5v-45l-17 -40l-22 -5l-58 5l4 47l18 38zM411 670l51 -5v-45l-17 -40l-22 -5l-58 5l4 47l18 38zM294 485q32 0 61.5 -13t52 -38t36 -62.5t13.5 -85.5q0 -46 -13 -88.5t-37.5 -79t-60.5 -65t-82 -45.5l-61 -23q-32 0 -61.5 13t-52 38t-36 62.5t-13.5 85.5
q0 46 13 88.5t37.5 79t60.5 65t82 45.5zM253 437q-34 -11 -57 -38t-36.5 -61t-19 -71.5t-5.5 -68.5q0 -42 9 -71.5t23.5 -49t34 -30t40.5 -14.5q34 11 57 38t37 61t20 71t6 69q0 42 -9 71.5t-24.5 49t-35 30t-40.5 14.5z" />
    <glyph glyph-name="divide" unicode="&#xf7;" 
d="M334 110l30 -5l5 -56l-5 -49l-75 -5l-30 5l-5 57l5 48zM47 277h525v-65h-525v65zM334 480l30 -5l5 -56l-5 -49l-75 -5l-30 5l-5 57l5 48z" />
    <glyph glyph-name="oslash" unicode="&#xf8;" horiz-adv-x="477" 
d="M294 485q32 0 60.5 -12.5t51.5 -36.5l41 44h51l-70 -75q14 -23 21.5 -53t7.5 -66q0 -46 -13 -88.5t-37.5 -79t-60.5 -65t-82 -45.5l-61 -23q-34 0 -64 14t-53 41l-38 -40h-52l68 73q-11 23 -17.5 50.5t-6.5 60.5q0 46 13 88.5t37.5 79t60.5 65t82 45.5zM362 272
q0 31 -6 57l-206 -221q14 -35 38.5 -52.5t53.5 -22.5q34 11 57 38t37 61t20 71t6 69zM253 437q-34 -11 -57 -38t-36.5 -61t-19 -71.5t-5.5 -68.5q0 -25 3 -46l205 217q-16 32 -40 47.5t-50 20.5z" />
    <glyph glyph-name="ugrave" unicode="&#xf9;" horiz-adv-x="524" 
d="M303 542l-78 173h100l12 -173h-34zM41 383l-11 28l164 74l30 -31l-56 -326q-6 -34 3.5 -48.5t27.5 -14.5q11 0 24 5t26 12.5t24.5 15t20.5 13.5l46 31l56 328h85l-72 -410l83 52l17 -25l-142 -102l-44 28l8 58l14 30l-172 -116q-30 0 -50 10.5t-31 27t-14 36.5t0 39
l56 318z" />
    <glyph glyph-name="uacute" unicode="&#xfa;" horiz-adv-x="524" 
d="M283 542l78 173h105l-145 -173h-38zM41 383l-11 28l164 74l30 -31l-56 -326q-6 -34 3.5 -48.5t27.5 -14.5q11 0 24 5t26 12.5t24.5 15t20.5 13.5l46 31l56 328h85l-72 -410l83 52l17 -25l-142 -102l-44 28l8 58l14 30l-172 -116q-30 0 -50 10.5t-31 27t-14 36.5t0 39
l56 318z" />
    <glyph glyph-name="ucircumflex" unicode="&#xfb;" horiz-adv-x="524" 
d="M202 542l118 173h68l56 -173h-38l-67 100l-99 -100h-38zM41 383l-11 28l164 74l30 -31l-56 -326q-6 -34 3.5 -48.5t27.5 -14.5q11 0 24 5t26 12.5t24.5 15t20.5 13.5l46 31l56 328h85l-72 -410l83 52l17 -25l-142 -102l-44 28l8 58l14 30l-172 -116q-30 0 -50 10.5
t-31 27t-14 36.5t0 39l56 318z" />
    <glyph glyph-name="udieresis" unicode="&#xfc;" horiz-adv-x="524" 
d="M252 670l51 -5v-45l-17 -40l-22 -5l-58 5l4 47l18 38zM416 670l51 -5v-45l-17 -40l-22 -5l-58 5l4 47l18 38zM41 383l-11 28l164 74l30 -31l-56 -326q-6 -34 3.5 -48.5t27.5 -14.5q11 0 24 5t26 12.5t24.5 15t20.5 13.5l46 31l56 328h85l-72 -410l83 52l17 -25l-142 -102
l-44 28l8 58l14 30l-172 -116q-30 0 -50 10.5t-31 27t-14 36.5t0 39l56 318z" />
    <glyph glyph-name="yacute" unicode="&#xfd;" horiz-adv-x="467" 
d="M239 542l78 173h105l-145 -173h-38zM214 6l-56 -6l-60 411l-85 -31l-15 25l138 80l54 -25l44 -420l169 307l-66 85l86 53l39 -53l-21 -116l-328 -551h-128l16 92h76z" />
    <glyph glyph-name="thorn" unicode="&#xfe;" horiz-adv-x="500" 
d="M83 629l-12 31l176 55l24 -23l-50 -290l-18 -45l140 128q28 -5 53 -18t44 -35t29.5 -53.5t10.5 -74.5q0 -47 -12 -92.5t-35.5 -84.5t-58 -69.5t-80.5 -48.5l-62 -24q-20 4 -41 8.5t-42 15.5l-6 -59l-33 -180h-85l155 886zM207 321l-42 -237q13 -9 28.5 -16.5t31.5 -13
t31 -9t28 -3.5q27 12 46 37t31 56.5t18 65.5t6 66q0 67 -21.5 100.5t-46.5 39.5z" />
    <glyph glyph-name="ydieresis" unicode="&#xff;" horiz-adv-x="467" 
d="M220 670l51 -5v-45l-17 -40l-22 -5l-58 5l4 47l18 38zM384 670l51 -5v-45l-17 -40l-22 -5l-58 5l4 47l18 38zM214 6l-56 -6l-60 411l-85 -31l-15 25l138 80l54 -25l44 -420l169 307l-66 85l86 53l39 -53l-21 -116l-328 -551h-128l16 92h76z" />
    <glyph glyph-name="Amacron" unicode="&#x100;" horiz-adv-x="665" 
d="M344 855h280l-9 -55h-280zM501 2l-128 -3v35l87 13l-19 187h-220l-100 -187l85 -13l-10 -35l-108 3l-108 -3v35l80 11l367 653l67 20l71 -673l75 -11l-9 -35zM246 281h190l-24 240v72z" />
    <glyph glyph-name="amacron" unicode="&#x101;" horiz-adv-x="483" 
d="M215 655h280l-9 -55h-280zM378 60l83 52l17 -25l-142 -102l-51 32l10 59l17 43l-142 -134q-25 6 -48.5 18t-41.5 34t-29 55t-11 81q0 99 47.5 168.5t135.5 113.5l60 30q14 -1 33.5 -4.5t41.5 -9.5t44.5 -13.5t42.5 -14.5zM135 193q0 -53 21 -86.5t45 -45.5l108 91l43 243
q-10 7 -25 12.5t-31.5 10t-32.5 7t-29 2.5q-19 -15 -36.5 -37.5t-31.5 -52t-22.5 -65.5t-8.5 -79z" />
    <glyph glyph-name="Abreve" unicode="&#x102;" horiz-adv-x="665" 
d="M469 826q22 0 41 6t34.5 15t27 19.5t20.5 18.5l21 -20q-8 -10 -18 -23.5t-26 -28.5t-39.5 -30.5t-58.5 -28.5q-32 0 -54 11t-37 28t-25 36t-16 36l30 20q6 -8 13.5 -18.5t19.5 -19.5t28 -15t39 -6zM501 2l-128 -3v35l87 13l-19 187h-220l-100 -187l85 -13l-10 -35l-108 3
l-108 -3v35l80 11l367 653l67 20l71 -673l75 -11l-9 -35zM246 281h190l-24 240v72z" />
    <glyph glyph-name="abreve" unicode="&#x103;" horiz-adv-x="483" 
d="M358 617q22 0 39 8t31 20t24.5 27t19.5 29l25 -20q-8 -13 -18.5 -29t-26.5 -33.5t-40 -35t-60 -33.5q-30 0 -52 13t-38 33t-25.5 42.5t-13.5 42.5l33 20q6 -14 13.5 -29t19.5 -27t28.5 -20t40.5 -8zM378 60l83 52l17 -25l-142 -102l-51 32l10 59l17 43l-142 -134
q-25 6 -48.5 18t-41.5 34t-29 55t-11 81q0 99 47.5 168.5t135.5 113.5l60 30q14 -1 33.5 -4.5t41.5 -9.5t44.5 -13.5t42.5 -14.5zM135 193q0 -53 21 -86.5t45 -45.5l108 91l43 243q-10 7 -25 12.5t-31.5 10t-32.5 7t-29 2.5q-19 -15 -36.5 -37.5t-31.5 -52t-22.5 -65.5
t-8.5 -79z" />
    <glyph glyph-name="Aogonek" unicode="&#x104;" horiz-adv-x="660" 
d="M225 234l-105 -187l85 -13l-10 -35l-108 3l-108 -3v35l80 11l377 653l62 20l61 -673l75 -11l-9 -35l-143 3l-74 -112l-6 -33q-6 -36 19.5 -50t72.5 -14l-6 -33q-98 0 -134.5 25t-27.5 76l9 54l127 102l-18 217h-219zM421 521v72l-170 -312h189z" />
    <glyph glyph-name="aogonek" unicode="&#x105;" horiz-adv-x="483" 
d="M370 -240q-98 0 -134.5 25t-27.5 76l9 54l109 76l-41 26l10 59l17 43l-142 -134q-25 6 -48.5 18t-41.5 34t-29 55t-11 81q0 99 47.5 168.5t135.5 113.5l60 30q14 -1 33.5 -4.5t41.5 -9.5t44.5 -13.5t42.5 -14.5l-67 -383l83 52l17 -25l-92 -66l-92 -112l-10 -52
q-7 -36 19 -50t73 -14zM135 193q0 -53 21 -86.5t45 -45.5l108 91l43 243q-10 7 -25 12.5t-31.5 10t-32.5 7t-29 2.5q-19 -15 -36.5 -37.5t-31.5 -52t-22.5 -65.5t-8.5 -79z" />
    <glyph glyph-name="Cacute" unicode="&#x106;" horiz-adv-x="616" 
d="M407 767l62 133h110l-129 -133h-43zM330 -18q-65 0 -116.5 21.5t-88 61.5t-56 97t-19.5 128q0 57 13.5 117t46 114.5t86 99t134.5 71.5l84 28q37 0 69.5 -7t59.5 -18.5t48 -25t35 -25.5l-5 -144h-53l-21 97q-22 22 -65.5 40t-115.5 29q-103 -45 -154.5 -136.5
t-51.5 -219.5q0 -68 17 -118.5t46.5 -84.5t68 -52t81.5 -21q38 14 62 28t48 35l59 119h55l-39 -168z" />
    <glyph glyph-name="cacute" unicode="&#x107;" horiz-adv-x="412" 
d="M274 542l78 173h105l-145 -173h-38zM239 60q12 5 28 13t32.5 16.5t31.5 17.5t24 15l19 -24q-23 -18 -58.5 -42t-70.5 -46l-40 -25q-33 0 -63 12.5t-52.5 37t-36 61t-13.5 83.5q0 93 53 169t151 115l55 22q10 0 24 -3t29 -8.5t29.5 -12t25.5 -12.5l-48 -81q-26 19 -57 35
t-55 27q-54 -29 -83 -86.5t-29 -135.5q0 -36 8.5 -62.5t23 -44t33.5 -27.5t39 -14z" />
    <glyph glyph-name="Ccircumflex" unicode="&#x108;" horiz-adv-x="616" 
d="M313 767l110 133h83l64 -133h-48l-69 77l-92 -77h-48zM330 -18q-65 0 -116.5 21.5t-88 61.5t-56 97t-19.5 128q0 57 13.5 117t46 114.5t86 99t134.5 71.5l84 28q37 0 69.5 -7t59.5 -18.5t48 -25t35 -25.5l-5 -144h-53l-21 97q-22 22 -65.5 40t-115.5 29
q-103 -45 -154.5 -136.5t-51.5 -219.5q0 -68 17 -118.5t46.5 -84.5t68 -52t81.5 -21q38 14 62 28t48 35l59 119h55l-39 -168z" />
    <glyph glyph-name="ccircumflex" unicode="&#x109;" horiz-adv-x="412" 
d="M184 542l118 173h68l56 -173h-38l-67 100l-99 -100h-38zM239 60q12 5 28 13t32.5 16.5t31.5 17.5t24 15l19 -24q-23 -18 -58.5 -42t-70.5 -46l-40 -25q-33 0 -63 12.5t-52.5 37t-36 61t-13.5 83.5q0 93 53 169t151 115l55 22q10 0 24 -3t29 -8.5t29.5 -12t25.5 -12.5
l-48 -81q-26 19 -57 35t-55 27q-54 -29 -83 -86.5t-29 -135.5q0 -36 8.5 -62.5t23 -44t33.5 -27.5t39 -14z" />
    <glyph glyph-name="Cdotaccent" unicode="&#x10a;" horiz-adv-x="616" 
d="M417 871l29 5l56 -5v-48l-17 -43l-27 -5l-63 5l4 50zM330 -18q-65 0 -116.5 21.5t-88 61.5t-56 97t-19.5 128q0 57 13.5 117t46 114.5t86 99t134.5 71.5l84 28q37 0 69.5 -7t59.5 -18.5t48 -25t35 -25.5l-5 -144h-53l-21 97q-22 22 -65.5 40t-115.5 29
q-103 -45 -154.5 -136.5t-51.5 -219.5q0 -68 17 -118.5t46.5 -84.5t68 -52t81.5 -21q38 14 62 28t48 35l59 119h55l-39 -168z" />
    <glyph glyph-name="cdotaccent" unicode="&#x10b;" horiz-adv-x="412" 
d="M288 688l29 5l56 -5v-48l-17 -43l-27 -5l-63 5l4 50zM239 60q12 5 28 13t32.5 16.5t31.5 17.5t24 15l19 -24q-23 -18 -58.5 -42t-70.5 -46l-40 -25q-33 0 -63 12.5t-52.5 37t-36 61t-13.5 83.5q0 93 53 169t151 115l55 22q10 0 24 -3t29 -8.5t29.5 -12t25.5 -12.5
l-48 -81q-26 19 -57 35t-55 27q-54 -29 -83 -86.5t-29 -135.5q0 -36 8.5 -62.5t23 -44t33.5 -27.5t39 -14z" />
    <glyph glyph-name="Ccaron" unicode="&#x10c;" horiz-adv-x="616" 
d="M590 900l-110 -133h-83l-64 133h48l69 -77l92 77h48zM330 -18q-65 0 -116.5 21.5t-88 61.5t-56 97t-19.5 128q0 57 13.5 117t46 114.5t86 99t134.5 71.5l84 28q37 0 69.5 -7t59.5 -18.5t48 -25t35 -25.5l-5 -144h-53l-21 97q-22 22 -65.5 40t-115.5 29
q-103 -45 -154.5 -136.5t-51.5 -219.5q0 -68 17 -118.5t46.5 -84.5t68 -52t81.5 -21q38 14 62 28t48 35l59 119h55l-39 -168z" />
    <glyph glyph-name="ccaron" unicode="&#x10d;" horiz-adv-x="412" 
d="M448 725l-118 -173h-68l-56 173h38l67 -100l99 100h38zM239 60q12 5 28 13t32.5 16.5t31.5 17.5t24 15l19 -24q-23 -18 -58.5 -42t-70.5 -46l-40 -25q-33 0 -63 12.5t-52.5 37t-36 61t-13.5 83.5q0 93 53 169t151 115l55 22q10 0 24 -3t29 -8.5t29.5 -12t25.5 -12.5
l-48 -81q-26 19 -57 35t-55 27q-54 -29 -83 -86.5t-29 -135.5q0 -36 8.5 -62.5t23 -44t33.5 -27.5t39 -14z" />
    <glyph glyph-name="Dcaron" unicode="&#x10e;" horiz-adv-x="671" 
d="M528 900l-110 -133h-83l-64 133h48l69 -77l92 77h48zM277 658l-95 -600h176q39 21 75 53t63 74t43.5 93.5t16.5 111.5q0 66 -16 115.5t-43 82.5t-63 50t-77 20h-80zM123 2l-132 -3l-1 35l90 13l97 611l-90 9l10 34l132 -3l170 3q62 1 111.5 -19.5t84 -59.5t53 -94
t18.5 -123q0 -54 -15.5 -110.5t-50 -107.5t-88.5 -93.5t-131 -67.5l-81 -27z" />
    <glyph glyph-name="dcaron" unicode="&#x10f;" horiz-adv-x="583" 
d="M546 675l7 40h100l-14 -80l-82 -110l-35 10l41 105zM290 18l11 59l18 43l-144 -135q-26 5 -50.5 17t-43 34t-30 56t-11.5 83q0 45 10.5 86.5t31.5 78t54 66t78 49.5l67 30q16 -1 39.5 -6.5t49.5 -13.5l34 191l-97 -27l-12 31l176 55l24 -23l-112 -632l83 52l17 -25
l-142 -102zM135 194q0 -59 19.5 -90.5t45.5 -43.5l115 96l42 239q-10 7 -26.5 12.5t-34.5 10t-35.5 7t-28.5 2.5q-23 -17 -41 -42.5t-30.5 -56t-19 -65.5t-6.5 -69z" />
    <glyph glyph-name="Dcroat" unicode="&#x110;" horiz-adv-x="671" 
d="M123 2l-132 -3l-1 35l90 13l46 291h-88l9 50h87l43 270l-90 9l10 34l132 -3l170 3q62 1 111.5 -19.5t84 -59.5t53 -94t18.5 -123q0 -54 -15.5 -110.5t-50 -107.5t-88.5 -93.5t-131 -67.5l-81 -27zM277 658l-43 -270h123l-9 -50h-122l-44 -280h176q39 21 75 53t63 74
t43.5 93.5t16.5 111.5q0 66 -16 115.5t-43 82.5t-63 50t-77 20h-80z" />
    <glyph glyph-name="dcroat" unicode="&#x111;" horiz-adv-x="505" 
d="M290 18l11 59l18 43l-144 -135q-26 5 -50.5 17t-43 34t-30 56t-11.5 83q0 45 10.5 86.5t31.5 78t54 66t78 49.5l67 30q16 -1 39.5 -6.5t49.5 -13.5l16 92h-118l7 40h118l11 59l-97 -27l-12 31l176 55l24 -23l-17 -95h72l-7 -40h-72l-88 -497l83 52l17 -25l-142 -102z
M135 194q0 -59 19.5 -90.5t45.5 -43.5l115 96l42 239q-10 7 -26.5 12.5t-34.5 10t-35.5 7t-28.5 2.5q-23 -17 -41 -42.5t-30.5 -56t-19 -65.5t-6.5 -69z" />
    <glyph glyph-name="Emacron" unicode="&#x112;" horiz-adv-x="590" 
d="M249 855h280l-9 -55h-280zM605 701v-171h-34l-44 121l-249 3l-42 -266l140 4l61 105h30l-35 -131l-9 -129h-30l-24 105l-140 4l-48 -300l271 3l77 135h38l-43 -185l-397 3l-137 -3v35l91 13l97 607l-88 13l10 34l138 -3z" />
    <glyph glyph-name="emacron" unicode="&#x113;" horiz-adv-x="426" 
d="M177 655h280l-9 -55h-280zM259 437q-27 -11 -47 -31t-34.5 -45t-23.5 -53.5t-14 -58.5l163 67q10 31 10 54q0 34 -15.5 48.5t-38.5 18.5zM238 59q26 11 59 29t59 35l18 -25q-9 -8 -24 -19t-32.5 -23.5t-36.5 -25t-37 -22.5l-39 -23q-37 0 -67.5 13.5t-52 37.5t-33.5 58
t-12 75q0 47 13 92.5t38.5 84.5t63 69.5t85.5 48.5l56 21q47 -8 78.5 -31t31.5 -74q0 -34 -18 -86l-252 -80q-1 -7 -1 -13.5v-12.5q0 -33 9.5 -57.5t24.5 -40t33 -23.5t36 -8z" />
    <glyph glyph-name="Ebreve" unicode="&#x114;" horiz-adv-x="590" 
d="M383 826q22 0 41 6t34.5 15t27 19.5t20.5 18.5l21 -20q-8 -10 -18 -23.5t-26 -28.5t-39.5 -30.5t-58.5 -28.5q-32 0 -54 11t-37 28t-25 36t-16 36l30 20q6 -8 13.5 -18.5t19.5 -19.5t28 -15t39 -6zM605 701v-171h-34l-44 121l-249 3l-42 -266l140 4l61 105h30l-35 -131
l-9 -129h-30l-24 105l-140 4l-48 -300l271 3l77 135h38l-43 -185l-397 3l-137 -3v35l91 13l97 607l-88 13l10 34l138 -3z" />
    <glyph glyph-name="ebreve" unicode="&#x115;" horiz-adv-x="426" 
d="M303 617q22 0 39 8t31 20t24.5 27t19.5 29l25 -20q-8 -13 -18.5 -29t-26.5 -33.5t-40 -35t-60 -33.5q-30 0 -52 13t-38 33t-25.5 42.5t-13.5 42.5l33 20q6 -14 13.5 -29t19.5 -27t28.5 -20t40.5 -8zM259 437q-27 -11 -47 -31t-34.5 -45t-23.5 -53.5t-14 -58.5l163 67
q10 31 10 54q0 34 -15.5 48.5t-38.5 18.5zM238 59q26 11 59 29t59 35l18 -25q-9 -8 -24 -19t-32.5 -23.5t-36.5 -25t-37 -22.5l-39 -23q-37 0 -67.5 13.5t-52 37.5t-33.5 58t-12 75q0 47 13 92.5t38.5 84.5t63 69.5t85.5 48.5l56 21q47 -8 78.5 -31t31.5 -74q0 -34 -18 -86
l-252 -80q-1 -7 -1 -13.5v-12.5q0 -33 9.5 -57.5t24.5 -40t33 -23.5t36 -8z" />
    <glyph glyph-name="Edotaccent" unicode="&#x116;" horiz-adv-x="590" 
d="M347 871l29 5l56 -5v-48l-17 -43l-27 -5l-63 5l4 50zM605 701v-171h-34l-44 121l-249 3l-42 -266l140 4l61 105h30l-35 -131l-9 -129h-30l-24 105l-140 4l-48 -300l271 3l77 135h38l-43 -185l-397 3l-137 -3v35l91 13l97 607l-88 13l10 34l138 -3z" />
    <glyph glyph-name="edotaccent" unicode="&#x117;" horiz-adv-x="426" 
d="M268 688l29 5l56 -5v-48l-17 -43l-27 -5l-63 5l4 50zM259 437q-27 -11 -47 -31t-34.5 -45t-23.5 -53.5t-14 -58.5l163 67q10 31 10 54q0 34 -15.5 48.5t-38.5 18.5zM238 59q26 11 59 29t59 35l18 -25q-9 -8 -24 -19t-32.5 -23.5t-36.5 -25t-37 -22.5l-39 -23
q-37 0 -67.5 13.5t-52 37.5t-33.5 58t-12 75q0 47 13 92.5t38.5 84.5t63 69.5t85.5 48.5l56 21q47 -8 78.5 -31t31.5 -74q0 -34 -18 -86l-252 -80q-1 -7 -1 -13.5v-12.5q0 -33 9.5 -57.5t24.5 -40t33 -23.5t36 -8z" />
    <glyph glyph-name="Eogonek" unicode="&#x118;" horiz-adv-x="590" 
d="M475 -240q-98 0 -134.5 25t-27.5 76l9 54l105 85l-300 2l-137 -3v35l91 13l97 607l-88 13l10 34l138 -3l367 3v-171h-34l-44 121l-249 3l-42 -266l140 4l61 105h30l-35 -131l-9 -129h-30l-24 105l-140 4l-48 -300l271 3l77 135h38l-43 -185h-57l-72 -109l-6 -33
q-6 -36 19.5 -50t72.5 -14z" />
    <glyph glyph-name="eogonek" unicode="&#x119;" horiz-adv-x="426" 
d="M244 -240q-98 0 -134.5 25t-27.5 76l9 54l89 72q-32 4 -57.5 19t-44 38.5t-28.5 55t-10 69.5q0 47 13 92.5t38.5 84.5t63 69.5t85.5 48.5l56 21q47 -8 78.5 -31t31.5 -74q0 -34 -18 -86l-252 -80q-1 -7 -1 -13.5v-12.5q0 -33 9.5 -57.5t24.5 -40t33 -23.5t36 -8
q26 11 59 29t59 35l18 -25q-9 -8 -24 -19t-32.5 -23.5t-36.5 -25t-37 -22.5l-80 -118l-6 -33q-6 -36 19.5 -50t72.5 -14zM259 437q-27 -11 -47 -31t-34.5 -45t-23.5 -53.5t-14 -58.5l163 67q10 31 10 54q0 34 -15.5 48.5t-38.5 18.5z" />
    <glyph glyph-name="Ecaron" unicode="&#x11a;" horiz-adv-x="590" 
d="M525 900l-110 -133h-83l-64 133h48l69 -77l92 77h48zM605 701v-171h-34l-44 121l-249 3l-42 -266l140 4l61 105h30l-35 -131l-9 -129h-30l-24 105l-140 4l-48 -300l271 3l77 135h38l-43 -185l-397 3l-137 -3v35l91 13l97 607l-88 13l10 34l138 -3z" />
    <glyph glyph-name="ecaron" unicode="&#x11b;" horiz-adv-x="426" 
d="M446 727l-118 -173h-68l-56 173h38l67 -100l99 100h38zM259 437q-27 -11 -47 -31t-34.5 -45t-23.5 -53.5t-14 -58.5l163 67q10 31 10 54q0 34 -15.5 48.5t-38.5 18.5zM238 59q26 11 59 29t59 35l18 -25q-9 -8 -24 -19t-32.5 -23.5t-36.5 -25t-37 -22.5l-39 -23
q-37 0 -67.5 13.5t-52 37.5t-33.5 58t-12 75q0 47 13 92.5t38.5 84.5t63 69.5t85.5 48.5l56 21q47 -8 78.5 -31t31.5 -74q0 -34 -18 -86l-252 -80q-1 -7 -1 -13.5v-12.5q0 -33 9.5 -57.5t24.5 -40t33 -23.5t36 -8z" />
    <glyph glyph-name="Gcircumflex" unicode="&#x11c;" horiz-adv-x="660" 
d="M294 767l110 133h83l64 -133h-48l-69 77l-92 -77h-48zM487 280l-84 13l10 32h125l117 3v-35l-68 -13l-36 -227l-238 -71q-65 0 -117 20t-89 58t-57 93.5t-20 126.5q0 58 16.5 120t53 118.5t95 103t143.5 72.5l77 24q34 0 65 -7t56.5 -18t46 -24.5t33.5 -26.5l-2 -137h-53
l-24 93q-10 12 -27.5 24t-39.5 22t-47.5 16t-51.5 6q-52 -23 -94.5 -54.5t-73 -75.5t-47 -101t-16.5 -130q0 -68 16.5 -117.5t45 -83t67 -50.5t81.5 -20q32 11 59.5 24.5t46.5 27.5z" />
    <glyph glyph-name="gcircumflex" unicode="&#x11d;" horiz-adv-x="478" 
d="M205 544l118 173h68l56 -173h-38l-67 100l-99 -100h-38zM20 -235l14 82h184q23 16 44.5 51t28.5 78l16 100l17 43l-142 -134q-26 5 -50.5 17t-43 34t-30 56t-11.5 83q0 45 10.5 86.5t31.5 78t54 66t78 49.5l67 30q15 0 35.5 -3.5t44 -9.5t47 -14.5t43.5 -19.5l-87 -484
q-6 -32 -35 -60.5t-75 -63.5l-87 -65h-154zM142 194q0 -59 19.5 -90.5t45.5 -43.5l114 92l44 240q-10 7 -24.5 13.5t-32 11.5t-35.5 7.5t-34 2.5q-23 -17 -41 -42.5t-30.5 -56t-19 -65.5t-6.5 -69z" />
    <glyph glyph-name="Gbreve" unicode="&#x11e;" horiz-adv-x="660" 
d="M430 826q22 0 41 6t34.5 15t27 19.5t20.5 18.5l21 -20q-8 -10 -18 -23.5t-26 -28.5t-39.5 -30.5t-58.5 -28.5q-32 0 -54 11t-37 28t-25 36t-16 36l30 20q6 -8 13.5 -18.5t19.5 -19.5t28 -15t39 -6zM487 280l-84 13l10 32h125l117 3v-35l-68 -13l-36 -227l-238 -71
q-65 0 -117 20t-89 58t-57 93.5t-20 126.5q0 58 16.5 120t53 118.5t95 103t143.5 72.5l77 24q34 0 65 -7t56.5 -18t46 -24.5t33.5 -26.5l-2 -137h-53l-24 93q-10 12 -27.5 24t-39.5 22t-47.5 16t-51.5 6q-52 -23 -94.5 -54.5t-73 -75.5t-47 -101t-16.5 -130
q0 -68 16.5 -117.5t45 -83t67 -50.5t81.5 -20q32 11 59.5 24.5t46.5 27.5z" />
    <glyph glyph-name="gbreve" unicode="&#x11f;" horiz-adv-x="478" 
d="M337 617q22 0 39 8t31 20t24.5 27t19.5 29l25 -20q-8 -13 -18.5 -29t-26.5 -33.5t-40 -35t-60 -33.5q-30 0 -52 13t-38 33t-25.5 42.5t-13.5 42.5l33 20q6 -14 13.5 -29t19.5 -27t28.5 -20t40.5 -8zM20 -235l14 82h184q23 16 44.5 51t28.5 78l16 100l17 43l-142 -134
q-26 5 -50.5 17t-43 34t-30 56t-11.5 83q0 45 10.5 86.5t31.5 78t54 66t78 49.5l67 30q15 0 35.5 -3.5t44 -9.5t47 -14.5t43.5 -19.5l-87 -484q-6 -32 -35 -60.5t-75 -63.5l-87 -65h-154zM142 194q0 -59 19.5 -90.5t45.5 -43.5l114 92l44 240q-10 7 -24.5 13.5t-32 11.5
t-35.5 7.5t-34 2.5q-23 -17 -41 -42.5t-30.5 -56t-19 -65.5t-6.5 -69z" />
    <glyph glyph-name="Gdotaccent" unicode="&#x120;" horiz-adv-x="660" 
d="M417 871l29 5l56 -5v-48l-17 -43l-27 -5l-63 5l4 50zM487 280l-84 13l10 32h125l117 3v-35l-68 -13l-36 -227l-238 -71q-65 0 -117 20t-89 58t-57 93.5t-20 126.5q0 58 16.5 120t53 118.5t95 103t143.5 72.5l77 24q34 0 65 -7t56.5 -18t46 -24.5t33.5 -26.5l-2 -137h-53
l-24 93q-10 12 -27.5 24t-39.5 22t-47.5 16t-51.5 6q-52 -23 -94.5 -54.5t-73 -75.5t-47 -101t-16.5 -130q0 -68 16.5 -117.5t45 -83t67 -50.5t81.5 -20q32 11 59.5 24.5t46.5 27.5z" />
    <glyph glyph-name="gdotaccent" unicode="&#x121;" horiz-adv-x="478" 
d="M308 688l29 5l56 -5v-48l-17 -43l-27 -5l-63 5l4 50zM20 -235l14 82h184q23 16 44.5 51t28.5 78l16 100l17 43l-142 -134q-26 5 -50.5 17t-43 34t-30 56t-11.5 83q0 45 10.5 86.5t31.5 78t54 66t78 49.5l67 30q15 0 35.5 -3.5t44 -9.5t47 -14.5t43.5 -19.5l-87 -484
q-6 -32 -35 -60.5t-75 -63.5l-87 -65h-154zM142 194q0 -59 19.5 -90.5t45.5 -43.5l114 92l44 240q-10 7 -24.5 13.5t-32 11.5t-35.5 7.5t-34 2.5q-23 -17 -41 -42.5t-30.5 -56t-19 -65.5t-6.5 -69z" />
    <glyph glyph-name="Gcommaaccent" unicode="&#x122;" horiz-adv-x="660" 
d="M246 -90l7 40h100l-14 -80l-82 -110l-35 10l41 105zM487 280l-84 13l10 32h125l117 3v-35l-68 -13l-36 -227l-238 -71q-65 0 -117 20t-89 58t-57 93.5t-20 126.5q0 58 16.5 120t53 118.5t95 103t143.5 72.5l77 24q34 0 65 -7t56.5 -18t46 -24.5t33.5 -26.5l-2 -137h-53
l-24 93q-10 12 -27.5 24t-39.5 22t-47.5 16t-51.5 6q-52 -23 -94.5 -54.5t-73 -75.5t-47 -101t-16.5 -130q0 -68 16.5 -117.5t45 -83t67 -50.5t81.5 -20q32 11 59.5 24.5t46.5 27.5z" />
    <glyph glyph-name="gcommaaccent" unicode="&#x123;" horiz-adv-x="478" 
d="M375 587l-7 -40h-100l14 80l82 110l35 -10l-41 -105zM20 -235l14 82h184q23 16 44.5 51t28.5 78l16 100l17 43l-142 -134q-26 5 -50.5 17t-43 34t-30 56t-11.5 83q0 45 10.5 86.5t31.5 78t54 66t78 49.5l67 30q15 0 35.5 -3.5t44 -9.5t47 -14.5t43.5 -19.5l-87 -484
q-6 -32 -35 -60.5t-75 -63.5l-87 -65h-154zM142 194q0 -59 19.5 -90.5t45.5 -43.5l114 92l44 240q-10 7 -24.5 13.5t-32 11.5t-35.5 7.5t-34 2.5q-23 -17 -41 -42.5t-30.5 -56t-19 -65.5t-6.5 -69z" />
    <glyph glyph-name="Hcircumflex" unicode="&#x124;" horiz-adv-x="694" 
d="M302 767l110 133h83l64 -133h-48l-69 77l-92 -77h-48zM89 666l10 35l135 -3l130 3v-35l-87 -13l-43 -265h281l42 265l-86 13l10 35l136 -3l127 3v-35l-87 -13l-97 -606l83 -13l-10 -35l-127 3l-136 -3v35l90 13l47 291h-281l-46 -291l83 -13l-10 -35l-130 3l-133 -3v35
l90 13l97 606z" />
    <glyph glyph-name="hcircumflex" unicode="&#x125;" horiz-adv-x="509" 
d="M92 767l110 133h83l64 -133h-48l-69 77l-92 -77h-48zM130 0h-85l116 656l-97 -27l-12 31l176 55l24 -23l-50 -286l-15 -31l171 110q30 0 50.5 -9.5t32 -25t15 -35.5t-0.5 -42l-56 -313l83 52l17 -25l-142 -102l-51 32l57 321q5 29 -0.5 48t-31.5 19q-22 0 -48 -12.5
t-46 -26.5l-48 -33z" />
    <glyph glyph-name="Hbar" unicode="&#x126;" horiz-adv-x="694" 
d="M89 666l10 35l135 -3l130 3v-35l-87 -13l-27 -163h281l26 163l-86 13l10 35l136 -3l127 3v-35l-87 -13l-97 -606l83 -13l-10 -35l-127 3l-136 -3v35l90 13l47 291h-281l-46 -291l83 -13l-10 -35l-130 3l-133 -3v35l90 13l97 606zM515 388l10 62h-281l-10 -62h281z" />
    <glyph glyph-name="hbar" unicode="&#x127;" horiz-adv-x="509" 
d="M130 0h-85l98 557h-65l7 40h65l11 59l-97 -27l-12 31l176 55l24 -23l-17 -95h125l-7 -40h-125l-26 -151l-15 -31l171 110q30 0 50.5 -9.5t32 -25t15 -35.5t-0.5 -42l-56 -313l83 52l17 -25l-142 -102l-51 32l57 321q5 29 -0.5 48t-31.5 19q-22 0 -48 -12.5t-46 -26.5
l-48 -33z" />
    <glyph glyph-name="Itilde" unicode="&#x128;" horiz-adv-x="314" 
d="M137 870l69 22l137 -60l49 58h20l-43 -100l-67 -17l-138 60l-48 -58h-20zM180 47l83 -13l-10 -35l-132 3l-131 -3v35l90 13l97 606l-88 13l10 35l133 -3l132 3v-35l-87 -13z" />
    <glyph glyph-name="itilde" unicode="&#x129;" horiz-adv-x="287" 
d="M95 680l69 22l137 -60l49 58h20l-43 -100l-67 -17l-138 60l-48 -58h-20zM46 383l-11 28l164 74l31 -32l-69 -393l83 52l17 -25l-142 -102l-51 32l71 399z" />
    <glyph glyph-name="Imacron" unicode="&#x12a;" horiz-adv-x="314" 
d="M118 855h280l-9 -55h-280zM180 47l83 -13l-10 -35l-132 3l-131 -3v35l90 13l97 606l-88 13l10 35l133 -3l132 3v-35l-87 -13z" />
    <glyph glyph-name="imacron" unicode="&#x12b;" horiz-adv-x="287" 
d="M76 655h280l-9 -55h-280zM46 383l-11 28l164 74l31 -32l-69 -393l83 52l17 -25l-142 -102l-51 32l71 399z" />
    <glyph glyph-name="Ibreve" unicode="&#x12c;" horiz-adv-x="314" 
d="M258 826q22 0 41 6t34.5 15t27 19.5t20.5 18.5l21 -20q-8 -10 -18 -23.5t-26 -28.5t-39.5 -30.5t-58.5 -28.5q-32 0 -54 11t-37 28t-25 36t-16 36l30 20q6 -8 13.5 -18.5t19.5 -19.5t28 -15t39 -6zM180 47l83 -13l-10 -35l-132 3l-131 -3v35l90 13l97 606l-88 13l10 35
l133 -3l132 3v-35l-87 -13z" />
    <glyph glyph-name="ibreve" unicode="&#x12d;" horiz-adv-x="287" 
d="M210 617q22 0 39 8t31 20t24.5 27t19.5 29l25 -20q-8 -13 -18.5 -29t-26.5 -33.5t-40 -35t-60 -33.5q-30 0 -52 13t-38 33t-25.5 42.5t-13.5 42.5l33 20q6 -14 13.5 -29t19.5 -27t28.5 -20t40.5 -8zM46 383l-11 28l164 74l31 -32l-69 -393l83 52l17 -25l-142 -102l-51 32
l71 399z" />
    <glyph glyph-name="Iogonek" unicode="&#x12e;" horiz-adv-x="314" 
d="M180 47l83 -13l-10 -35l-116 2l-57 -111l-6 -33q-6 -36 19.5 -50t72.5 -14l-6 -33q-98 0 -134.5 25t-27.5 76l9 54l92 86l-109 -2v35l90 13l97 606l-88 13l10 35l133 -3l132 3v-35l-87 -13z" />
    <glyph glyph-name="iogonek" unicode="&#x12f;" horiz-adv-x="287" 
d="M187 688l29 5l56 -5v-48l-17 -43l-27 -5l-63 5l4 50zM165 -240q-98 0 -134.5 25t-27.5 76l9 54l96 77l-40 25l71 399l-93 -33l-11 28l164 74l31 -32l-69 -393l83 52l17 -25l-87 -62l-89 -135l-6 -33q-6 -36 19.5 -50t72.5 -14z" />
    <glyph glyph-name="Idotaccent" unicode="&#x130;" horiz-adv-x="314" 
d="M220 871l29 5l56 -5v-48l-17 -43l-27 -5l-63 5l4 50zM180 47l83 -13l-10 -35l-132 3l-131 -3v35l90 13l97 606l-88 13l10 35l133 -3l132 3v-35l-87 -13z" />
    <glyph glyph-name="dotlessi" unicode="&#x131;" horiz-adv-x="287" 
d="M46 383l-11 28l164 74l31 -32l-69 -393l83 52l17 -25l-142 -102l-51 32l71 399z" />
    <glyph glyph-name="IJ" unicode="&#x132;" horiz-adv-x="570" 
d="M180 47l83 -13l-10 -35l-132 3l-131 -3v35l90 13l97 606l-88 13l10 35l133 -3l102 3v-35l-57 -13zM178 -175l17 82h97q15 18 24 35t15.5 37.5t11.5 46t10 59.5l90 568l-58 13l10 35l103 -3l132 3v-35l-87 -13l-89 -563q-10 -64 -26 -101.5t-50 -65.5l-121 -98h-79z" />
    <glyph glyph-name="ij" unicode="&#x133;" horiz-adv-x="479" 
d="M187 688l29 5l56 -5v-48l-17 -43l-27 -5l-63 5l4 50zM46 383l-11 28l164 74l31 -32l-69 -393l58 37l17 -25l-117 -87l-51 32l71 399zM97 -235l14 82h117q16 20 25.5 43t12.5 41l86 485l-68 -23l-11 28l139 64l31 -32l-87 -487q-7 -38 -22.5 -70.5t-42.5 -49.5l-124 -81
h-70zM399 688l29 5l56 -5v-48l-17 -43l-27 -5l-63 5l4 50z" />
    <glyph glyph-name="Jcircumflex" unicode="&#x134;" horiz-adv-x="312" 
d="M111 767l110 133h83l64 -133h-48l-69 77l-92 -77h-48zM-80 -175l17 82h102q13 18 21.5 35t14.5 37.5t10.5 46t9.5 59.5l90 568l-88 13l10 35l133 -3l132 3v-35l-87 -13l-89 -563q-10 -64 -26 -101.5t-50 -65.5l-121 -98h-79z" />
    <glyph glyph-name="jcircumflex" unicode="&#x135;" horiz-adv-x="272" 
d="M83 542l118 173h68l56 -173h-38l-67 100l-99 -100h-38zM-110 -235l14 82h117q16 20 25.5 43t12.5 41l86 485l-93 -33l-11 28l164 74l31 -32l-87 -487q-7 -38 -22.5 -70.5t-42.5 -49.5l-124 -81h-70z" />
    <glyph glyph-name="Kcommaaccent" unicode="&#x136;" horiz-adv-x="677" 
d="M263 -90l7 40h100l-14 -80l-82 -110l-35 10l41 105zM236 388l25 16l276 249l-62 13l5 35l115 -3l97 3v-35l-86 -13l-294 -263l25 -16l252 -325l51 -15l-10 -35l-75 3l-68 -3l-241 341l-13 30l-51 -323l73 -13l-11 -35l-121 3l-133 -3l1 35l91 13l95 606l-87 13l10 35
l132 -3l122 3v-35l-76 -13z" />
    <glyph glyph-name="kcommaaccent" unicode="&#x137;" horiz-adv-x="480" 
d="M139 -90l7 40h100l-14 -80l-82 -110l-35 10l41 105zM62 631l-11 30l176 55l24 -23l-72 -412l19 5l181 189h96l-20 -93h-61q-26 -7 -47 -18.5t-47 -32.5l-70 -58l27 -10l109 -205l86 54l17 -25l-142 -102l-39 24l-114 247l-44 -256h-85l115 658z" />
    <glyph glyph-name="kgreenlandic" unicode="&#x138;" horiz-adv-x="501" 
d="M200 281l19 5l181 189h96l-20 -93h-61q-26 -7 -47 -18.5t-47 -32.5l-70 -58l27 -10l109 -205l86 54l17 -25l-142 -102l-39 24l-114 247l-44 -256h-85l73 416l-93 -33l-11 28l164 74l31 -32z" />
    <glyph glyph-name="Lacute" unicode="&#x139;" horiz-adv-x="554" 
d="M212 767l62 133h120l-139 -133h-43zM232 698l137 3v-35l-92 -13l-97 -607l231 3l95 136h38l-61 -186l-357 3l-136 -3v35l90 13l97 606l-88 13l10 35z" />
    <glyph glyph-name="lacute" unicode="&#x13a;" horiz-adv-x="269" 
d="M197 767l62 133h120l-139 -133h-43zM71 629l-12 31l176 55l24 -23l-111 -632l83 52l17 -25l-142 -102l-51 32l113 639z" />
    <glyph glyph-name="Lcommaaccent" unicode="&#x13b;" horiz-adv-x="554" 
d="M195 -90l7 40h100l-14 -80l-82 -110l-35 10l41 105zM232 698l137 3v-35l-92 -13l-97 -607l231 3l95 136h38l-61 -186l-357 3l-136 -3v35l90 13l97 606l-88 13l10 35z" />
    <glyph glyph-name="lcommaaccent" unicode="&#x13c;" horiz-adv-x="269" 
d="M39 -90l7 40h100l-14 -80l-82 -110l-35 10l41 105zM71 629l-12 31l176 55l24 -23l-111 -632l83 52l17 -25l-142 -102l-51 32l113 639z" />
    <glyph glyph-name="Lcaron" unicode="&#x13d;" horiz-adv-x="554" 
d="M557 710l36 -5l-5 -56l-13 -49l-91 -145l-34 15q8 13 17.5 30.5t18 35.5t15 34t8.5 26l-39 4l5 57l18 48zM232 698l137 3v-35l-92 -13l-97 -607l231 3l95 136h38l-61 -186l-357 3l-136 -3v35l90 13l97 606l-88 13l10 35z" />
    <glyph glyph-name="lcaron" unicode="&#x13e;" horiz-adv-x="412" 
d="M325 675l7 40h100l-14 -80l-82 -110l-35 10l41 105zM71 629l-12 31l176 55l24 -23l-111 -632l83 52l17 -25l-142 -102l-51 32l113 639z" />
    <glyph glyph-name="Ldot" unicode="&#x13f;" horiz-adv-x="554" 
d="M412 460l29 -5l-5 -56l-14 -49l-76 -5l-29 5l5 57l14 48zM232 698l137 3v-35l-92 -13l-97 -607l231 3l95 136h38l-61 -186l-357 3l-136 -3v35l90 13l97 606l-88 13l10 35z" />
    <glyph glyph-name="ldot" unicode="&#x140;" horiz-adv-x="398" 
d="M359 460l29 -5l-5 -56l-14 -49l-76 -5l-29 5l5 57l14 48zM71 629l-12 31l176 55l24 -23l-111 -632l83 52l17 -25l-142 -102l-51 32l113 639z" />
    <glyph glyph-name="Lslash" unicode="&#x141;" horiz-adv-x="554" 
d="M232 698l137 3v-35l-92 -13l-36 -222l107 49l-9 -50l-106 -48l-53 -336l231 3l95 136h38l-61 -186l-357 3l-136 -3v35l90 13l45 285l-93 -42l9 50l92 42l44 271l-88 13l10 35z" />
    <glyph glyph-name="lslash" unicode="&#x142;" horiz-adv-x="269" 
d="M71 629l-12 31l176 55l24 -23l-44 -253l85 39l-9 -50l-85 -39l-58 -329l83 52l17 -25l-142 -102l-51 32l58 330l-77 -35l10 50l76 35l46 259z" />
    <glyph glyph-name="Nacute" unicode="&#x143;" horiz-adv-x="706" 
d="M387 767l62 133h120l-139 -133h-43zM140 47l83 -13l-10 -35l-107 3l-116 -3v35l90 13l95 599l-83 20l10 35l93 -3l69 3l251 -490l17 -76l77 518l-83 13l10 35l107 -3l118 3v-35l-92 -13l-103 -653h-56l-270 536l-10 82z" />
    <glyph glyph-name="nacute" unicode="&#x144;" horiz-adv-x="529" 
d="M290 542l78 173h105l-145 -173h-38zM383 338q5 29 -0.5 48t-31.5 19q-22 0 -48 -12.5t-46 -26.5l-48 -33l-59 -333h-85l74 416l-93 -33l-11 28l164 74l31 -32l-9 -48l-14 -30l171 110q30 0 50.5 -9.5t32 -25t15 -35.5t-0.5 -42l-56 -313l83 52l17 -25l-142 -102l-51 32z
" />
    <glyph glyph-name="Ncommaaccent" unicode="&#x145;" horiz-adv-x="706" 
d="M259 -90l7 40h100l-14 -80l-82 -110l-35 10l41 105zM140 47l83 -13l-10 -35l-107 3l-116 -3v35l90 13l95 599l-83 20l10 35l93 -3l69 3l251 -490l17 -76l77 518l-83 13l10 35l107 -3l118 3v-35l-92 -13l-103 -653h-56l-270 536l-10 82z" />
    <glyph glyph-name="ncommaaccent" unicode="&#x146;" horiz-adv-x="529" 
d="M173 -90l7 40h100l-14 -80l-82 -110l-35 10l41 105zM383 338q5 29 -0.5 48t-31.5 19q-22 0 -48 -12.5t-46 -26.5l-48 -33l-59 -333h-85l74 416l-93 -33l-11 28l164 74l31 -32l-9 -48l-14 -30l171 110q30 0 50.5 -9.5t32 -25t15 -35.5t-0.5 -42l-56 -313l83 52l17 -25
l-142 -102l-51 32z" />
    <glyph glyph-name="Ncaron" unicode="&#x147;" horiz-adv-x="706" 
d="M570 900l-110 -133h-83l-64 133h48l69 -77l92 77h48zM140 47l83 -13l-10 -35l-107 3l-116 -3v35l90 13l95 599l-83 20l10 35l93 -3l69 3l251 -490l17 -76l77 518l-83 13l10 35l107 -3l118 3v-35l-92 -13l-103 -653h-56l-270 536l-10 82z" />
    <glyph glyph-name="ncaron" unicode="&#x148;" horiz-adv-x="529" 
d="M474 725l-118 -173h-68l-56 173h38l67 -100l99 100h38zM383 338q5 29 -0.5 48t-31.5 19q-22 0 -48 -12.5t-46 -26.5l-48 -33l-59 -333h-85l74 416l-93 -33l-11 28l164 74l31 -32l-9 -48l-14 -30l171 110q30 0 50.5 -9.5t32 -25t15 -35.5t-0.5 -42l-56 -313l83 52l17 -25
l-142 -102l-51 32z" />
    <glyph glyph-name="napostrophe" unicode="&#x149;" horiz-adv-x="529" 
d="M160 675l7 40h100l-14 -80l-82 -110l-35 10l41 105zM383 338q5 29 -0.5 48t-31.5 19q-22 0 -48 -12.5t-46 -26.5l-48 -33l-59 -333h-85l74 416l-93 -33l-11 28l164 74l31 -32l-9 -48l-14 -30l171 110q30 0 50.5 -9.5t32 -25t15 -35.5t-0.5 -42l-56 -313l83 52l17 -25
l-142 -102l-51 32z" />
    <glyph glyph-name="Eng" unicode="&#x14a;" horiz-adv-x="706" 
d="M140 47l83 -13l-10 -35l-107 3l-116 -3v35l90 13l95 599l-83 20l10 35l93 -3l69 3l251 -490l17 -76l77 518l-83 13l10 35l107 -3l118 3v-35l-92 -13l-103 -653l-137 -235h-124l15 83h76l89 125l49 27h-24l-270 536l-10 82z" />
    <glyph glyph-name="eng" unicode="&#x14b;" horiz-adv-x="528" 
d="M398 -35q-7 -38 -21.5 -70.5t-41.5 -49.5l-124 -80h-70l14 70h100q24 19 37.5 45.5t17.5 49.5l73 408q5 29 -0.5 48t-31.5 19q-22 0 -48 -12.5t-46 -26.5l-48 -33l-59 -333h-85l74 416l-93 -33l-11 28l164 74l31 -32l-9 -48l-14 -30l171 110q30 0 50.5 -9.5t32 -25
t15 -35.5t-0.5 -42z" />
    <glyph glyph-name="Omacron" unicode="&#x14c;" horiz-adv-x="695" 
d="M315 855h280l-9 -55h-280zM160 295q0 -65 16 -112.5t43 -79t63 -48.5t77 -21q49 19 89 55t68.5 84.5t43.5 107.5t15 124t-16 112.5t-43 79t-63 48t-77 21.5q-50 -19 -89.5 -55t-68 -84.5t-43.5 -107.5t-15 -124zM418 718q62 0 111.5 -20.5t84 -59.5t53 -94t18.5 -124
q0 -60 -15.5 -122.5t-50 -119t-89.5 -102t-133 -69.5l-80 -25q-62 0 -111.5 20.5t-84 59.5t-53 94t-18.5 124q0 60 15.5 122.5t50 119t89.5 102t133 69.5z" />
    <glyph glyph-name="omacron" unicode="&#x14d;" horiz-adv-x="477" 
d="M196 655h280l-9 -55h-280zM294 485q32 0 61.5 -13t52 -38t36 -62.5t13.5 -85.5q0 -46 -13 -88.5t-37.5 -79t-60.5 -65t-82 -45.5l-61 -23q-32 0 -61.5 13t-52 38t-36 62.5t-13.5 85.5q0 46 13 88.5t37.5 79t60.5 65t82 45.5zM253 437q-34 -11 -57 -38t-36.5 -61
t-19 -71.5t-5.5 -68.5q0 -42 9 -71.5t23.5 -49t34 -30t40.5 -14.5q34 11 57 38t37 61t20 71t6 69q0 42 -9 71.5t-24.5 49t-35 30t-40.5 14.5z" />
    <glyph glyph-name="Obreve" unicode="&#x14e;" horiz-adv-x="695" 
d="M433 826q22 0 41 6t34.5 15t27 19.5t20.5 18.5l21 -20q-8 -10 -18 -23.5t-26 -28.5t-39.5 -30.5t-58.5 -28.5q-32 0 -54 11t-37 28t-25 36t-16 36l30 20q6 -8 13.5 -18.5t19.5 -19.5t28 -15t39 -6zM160 295q0 -65 16 -112.5t43 -79t63 -48.5t77 -21q49 19 89 55
t68.5 84.5t43.5 107.5t15 124t-16 112.5t-43 79t-63 48t-77 21.5q-50 -19 -89.5 -55t-68 -84.5t-43.5 -107.5t-15 -124zM418 718q62 0 111.5 -20.5t84 -59.5t53 -94t18.5 -124q0 -60 -15.5 -122.5t-50 -119t-89.5 -102t-133 -69.5l-80 -25q-62 0 -111.5 20.5t-84 59.5
t-53 94t-18.5 124q0 60 15.5 122.5t50 119t89.5 102t133 69.5z" />
    <glyph glyph-name="obreve" unicode="&#x14f;" horiz-adv-x="477" 
d="M329 617q22 0 39 8t31 20t24.5 27t19.5 29l25 -20q-8 -13 -18.5 -29t-26.5 -33.5t-40 -35t-60 -33.5q-30 0 -52 13t-38 33t-25.5 42.5t-13.5 42.5l33 20q6 -14 13.5 -29t19.5 -27t28.5 -20t40.5 -8zM294 485q32 0 61.5 -13t52 -38t36 -62.5t13.5 -85.5q0 -46 -13 -88.5
t-37.5 -79t-60.5 -65t-82 -45.5l-61 -23q-32 0 -61.5 13t-52 38t-36 62.5t-13.5 85.5q0 46 13 88.5t37.5 79t60.5 65t82 45.5zM253 437q-34 -11 -57 -38t-36.5 -61t-19 -71.5t-5.5 -68.5q0 -42 9 -71.5t23.5 -49t34 -30t40.5 -14.5q34 11 57 38t37 61t20 71t6 69
q0 42 -9 71.5t-24.5 49t-35 30t-40.5 14.5z" />
    <glyph glyph-name="Ohungarumlaut" unicode="&#x150;" horiz-adv-x="695" 
d="M312 767l62 133h120l-139 -133h-43zM478 767l62 133h120l-139 -133h-43zM160 295q0 -65 16 -112.5t43 -79t63 -48.5t77 -21q49 19 89 55t68.5 84.5t43.5 107.5t15 124t-16 112.5t-43 79t-63 48t-77 21.5q-50 -19 -89.5 -55t-68 -84.5t-43.5 -107.5t-15 -124zM418 718
q62 0 111.5 -20.5t84 -59.5t53 -94t18.5 -124q0 -60 -15.5 -122.5t-50 -119t-89.5 -102t-133 -69.5l-80 -25q-62 0 -111.5 20.5t-84 59.5t-53 94t-18.5 124q0 60 15.5 122.5t50 119t89.5 102t133 69.5z" />
    <glyph glyph-name="ohungarumlaut" unicode="&#x151;" horiz-adv-x="477" 
d="M197 542l78 173h105l-145 -173h-38zM363 542l78 173h105l-145 -173h-38zM294 485q32 0 61.5 -13t52 -38t36 -62.5t13.5 -85.5q0 -46 -13 -88.5t-37.5 -79t-60.5 -65t-82 -45.5l-61 -23q-32 0 -61.5 13t-52 38t-36 62.5t-13.5 85.5q0 46 13 88.5t37.5 79t60.5 65t82 45.5z
M253 437q-34 -11 -57 -38t-36.5 -61t-19 -71.5t-5.5 -68.5q0 -42 9 -71.5t23.5 -49t34 -30t40.5 -14.5q34 11 57 38t37 61t20 71t6 69q0 42 -9 71.5t-24.5 49t-35 30t-40.5 14.5z" />
    <glyph glyph-name="OE" unicode="&#x152;" horiz-adv-x="919" 
d="M430 47l97 607l-151 12q-50 -19 -89.5 -55t-68 -84.5t-43.5 -107.5t-15 -124t16 -112.5t43 -79t63 -48.5t77 -21zM317 -18q-62 0 -111.5 20.5t-84 59.5t-53 94t-18.5 124q0 60 15.5 122.5t50 119t89.5 102t133 69.5l80 25l169 -20l347 3v-171h-34l-44 121l-229 3
l-42 -266l120 4l61 105h30l-35 -131l-9 -129h-30l-24 105l-120 4l-48 -300l251 3l77 135h38l-43 -185l-377 3z" />
    <glyph glyph-name="oe" unicode="&#x153;" horiz-adv-x="745" 
d="M557 59q26 11 59 29t59 35l18 -25q-9 -8 -24 -19t-32.5 -23.5t-36.5 -25t-37 -22.5l-39 -23q-52 0 -90 25t-58 70q-23 -23 -51 -42t-61 -32l-56 -21q-33 0 -63.5 12.5t-54 37t-37 61t-13.5 83.5q0 46 13 89.5t38.5 81t62 67t84.5 47.5l56 21q48 0 88.5 -24t61.5 -73
q48 51 115 76l56 21q47 -8 78.5 -31t31.5 -74q0 -34 -18 -86l-252 -80q-1 -7 -1 -13.5v-12.5q0 -33 9.5 -57.5t24.5 -40t33 -23.5t36 -8zM258 436q-36 -11 -59.5 -38t-37.5 -61t-20 -71t-6 -68q0 -42 9 -71.5t23.5 -49t34 -29.5t40.5 -14q36 12 60 39.5t38.5 62.5t20.5 72.5
t6 69.5q0 42 -8 70.5t-22.5 46.5t-34.5 27.5t-44 13.5zM578 437q-27 -11 -47 -31t-34.5 -45t-23.5 -53.5t-14 -58.5l163 67q10 31 10 54q0 34 -15.5 48.5t-38.5 18.5z" />
    <glyph glyph-name="Racute" unicode="&#x154;" horiz-adv-x="638" 
d="M224 321l-44 -274l98 -13l-10 -35l-147 3l-131 -3v35l90 13l98 611l-89 9l10 34l133 -3l163 3q47 1 84.5 -10.5t63.5 -32t39.5 -48.5t13.5 -61q0 -72 -45.5 -117.5t-137.5 -81.5l-48 -18l64 -42l122 -244l52 -14l-6 -33l-83 3l-60 -3l-140 311l-12 11h-78zM278 658
l-45 -278h142q45 19 78 58t33 97q0 54 -29 87t-94 36h-85zM322 767l62 133h120l-139 -133h-43z" />
    <glyph glyph-name="racute" unicode="&#x155;" horiz-adv-x="384" 
d="M236 542l78 173h105l-145 -173h-38zM212 376l-32 -108l134 207h80l-21 -92h-44q-20 -12 -47 -37t-49 -53l-39 -50l-44 -243h-85l74 416l-93 -33l-11 28l164 74l26 -27z" />
    <glyph glyph-name="Rcommaaccent" unicode="&#x156;" horiz-adv-x="638" 
d="M224 321l-44 -274l98 -13l-10 -35l-147 3l-131 -3v35l90 13l98 611l-89 9l10 34l133 -3l163 3q47 1 84.5 -10.5t63.5 -32t39.5 -48.5t13.5 -61q0 -72 -45.5 -117.5t-137.5 -81.5l-48 -18l64 -42l122 -244l52 -14l-6 -33l-83 3l-60 -3l-140 311l-12 11h-78zM278 658
l-45 -278h142q45 19 78 58t33 97q0 54 -29 87t-94 36h-85zM233 -90l7 40h100l-14 -80l-82 -110l-35 10l41 105z" />
    <glyph glyph-name="rcommaaccent" unicode="&#x157;" horiz-adv-x="384" 
d="M45 -90l7 40h100l-14 -80l-82 -110l-35 10l41 105zM212 376l-32 -108l134 207h80l-21 -92h-44q-20 -12 -47 -37t-49 -53l-39 -50l-44 -243h-85l74 416l-93 -33l-11 28l164 74l26 -27z" />
    <glyph glyph-name="Rcaron" unicode="&#x158;" horiz-adv-x="638" 
d="M224 321l-44 -274l98 -13l-10 -35l-147 3l-131 -3v35l90 13l98 611l-89 9l10 34l133 -3l163 3q47 1 84.5 -10.5t63.5 -32t39.5 -48.5t13.5 -61q0 -72 -45.5 -117.5t-137.5 -81.5l-48 -18l64 -42l122 -244l52 -14l-6 -33l-83 3l-60 -3l-140 311l-12 11h-78zM278 658
l-45 -278h142q45 19 78 58t33 97q0 54 -29 87t-94 36h-85zM505 900l-110 -133h-83l-64 133h48l69 -77l92 77h48z" />
    <glyph glyph-name="rcaron" unicode="&#x159;" horiz-adv-x="384" 
d="M413 725l-118 -173h-68l-56 173h38l67 -100l99 100h38zM212 376l-32 -108l134 207h80l-21 -92h-44q-20 -12 -47 -37t-49 -53l-39 -50l-44 -243h-85l74 416l-93 -33l-11 28l164 74l26 -27z" />
    <glyph glyph-name="Sacute" unicode="&#x15a;" horiz-adv-x="507" 
d="M317 767l62 133h120l-139 -133h-43zM503 525h-54l-5 92q-10 9 -24.5 18.5t-32 17t-36.5 12.5t-39 5q-55 -17 -80 -44.5t-25 -65.5q0 -44 23.5 -72t55.5 -52l91 -70q17 -13 34 -29t30 -36.5t21 -46.5t8 -60q0 -61 -37 -107t-103 -69l-102 -36q-70 0 -124.5 18.5
t-88.5 44.5l24 140h64v-83q10 -12 27 -25t38 -23.5t44 -17.5t45 -7q57 15 82.5 49.5t25.5 80.5q0 26 -5.5 45t-16 34.5t-25 28.5t-31.5 26l-102 79q-36 28 -59 62.5t-23 85.5q0 110 149 165l91 33q68 0 113 -16t71 -36z" />
    <glyph glyph-name="sacute" unicode="&#x15b;" horiz-adv-x="372" 
d="M226 542l78 173h105l-145 -173h-38zM125 -15q-11 4 -28 11.5t-35 16t-34 16.5t-23 14l48 71q10 -7 26.5 -17t34.5 -20.5t35.5 -20t30.5 -15.5q26 8 37.5 24t11.5 43q0 14 -6 33t-23 34l-85 78q-17 17 -29.5 40t-12.5 48q0 40 30.5 69.5t98.5 54.5l54 20q9 -2 24.5 -7.5
t31.5 -13t31 -14.5t24 -12l-46 -71q-11 7 -26 15.5t-31 17.5t-31.5 17t-27.5 13q-21 -8 -34 -22t-13 -36q0 -18 7 -34.5t27 -34.5l79 -72q23 -21 34.5 -43t11.5 -51q0 -43 -22.5 -72.5t-80.5 -49.5z" />
    <glyph glyph-name="Scircumflex" unicode="&#x15c;" horiz-adv-x="507" 
d="M223 767l110 133h83l64 -133h-48l-69 77l-92 -77h-48zM503 525h-54l-5 92q-10 9 -24.5 18.5t-32 17t-36.5 12.5t-39 5q-55 -17 -80 -44.5t-25 -65.5q0 -44 23.5 -72t55.5 -52l91 -70q17 -13 34 -29t30 -36.5t21 -46.5t8 -60q0 -61 -37 -107t-103 -69l-102 -36
q-70 0 -124.5 18.5t-88.5 44.5l24 140h64v-83q10 -12 27 -25t38 -23.5t44 -17.5t45 -7q57 15 82.5 49.5t25.5 80.5q0 26 -5.5 45t-16 34.5t-25 28.5t-31.5 26l-102 79q-36 28 -59 62.5t-23 85.5q0 110 149 165l91 33q68 0 113 -16t71 -36z" />
    <glyph glyph-name="scircumflex" unicode="&#x15d;" horiz-adv-x="372" 
d="M131 542l118 173h68l56 -173h-38l-67 100l-99 -100h-38zM125 -15q-11 4 -28 11.5t-35 16t-34 16.5t-23 14l48 71q10 -7 26.5 -17t34.5 -20.5t35.5 -20t30.5 -15.5q26 8 37.5 24t11.5 43q0 14 -6 33t-23 34l-85 78q-17 17 -29.5 40t-12.5 48q0 40 30.5 69.5t98.5 54.5
l54 20q9 -2 24.5 -7.5t31.5 -13t31 -14.5t24 -12l-46 -71q-11 7 -26 15.5t-31 17.5t-31.5 17t-27.5 13q-21 -8 -34 -22t-13 -36q0 -18 7 -34.5t27 -34.5l79 -72q23 -21 34.5 -43t11.5 -51q0 -43 -22.5 -72.5t-80.5 -49.5z" />
    <glyph glyph-name="Scedilla" unicode="&#x15e;" horiz-adv-x="507" 
d="M69 -240l29 40h84q17 10 26 26.5t9 33.5t-8 28.5t-20.5 18.5t-27.5 10t-29 3l58 64q-57 5 -101.5 22t-73.5 39l24 140h64v-83q10 -12 27 -25t38 -23.5t44 -17.5t45 -7q57 15 82.5 49.5t25.5 80.5q0 26 -5.5 45t-16 34.5t-25 28.5t-31.5 26l-102 79q-36 28 -59 62.5
t-23 85.5q0 110 149 165l91 33q68 0 113 -16t71 -36l-24 -141h-54l-5 92q-10 9 -24.5 18.5t-32 17t-36.5 12.5t-39 5q-55 -17 -80 -44.5t-25 -65.5q0 -44 23.5 -72t55.5 -52l91 -70q17 -13 34 -29t30 -36.5t21 -46.5t8 -60q0 -61 -37 -107t-103 -69l-102 -36l-25 -29
q15 0 29.5 -4.5t26 -12.5t18.5 -21t7 -29q0 -23 -10.5 -41t-26 -31t-34.5 -22t-35 -15l-51 -17h-58z" />
    <glyph glyph-name="scedilla" unicode="&#x15f;" horiz-adv-x="372" 
d="M-37 -240l29 40h84q17 10 26 26.5t9 33.5t-8 28.5t-20.5 18.5t-27.5 10t-29 3l70 77q-12 5 -26 11.5t-26.5 12.5t-22.5 12t-16 10l48 71q10 -7 26.5 -17t34.5 -20.5t35.5 -20t30.5 -15.5q26 8 37.5 24t11.5 43q0 14 -6 33t-23 34l-85 78q-17 17 -29.5 40t-12.5 48
q0 40 30.5 69.5t98.5 54.5l54 20q9 -2 24.5 -7.5t31.5 -13t31 -14.5t24 -12l-46 -71q-11 7 -26 15.5t-31 17.5t-31.5 17t-27.5 13q-21 -8 -34 -22t-13 -36q0 -18 7 -34.5t27 -34.5l79 -72q23 -21 34.5 -43t11.5 -51q0 -43 -22.5 -72.5t-80.5 -49.5l-89 -30l-28 -32
q15 0 29.5 -4.5t26 -12.5t18.5 -21t7 -29q0 -23 -10.5 -41t-26 -31t-34.5 -22t-35 -15l-51 -17h-58z" />
    <glyph glyph-name="Scaron" unicode="&#x160;" horiz-adv-x="507" 
d="M500 900l-110 -133h-83l-64 133h48l69 -77l92 77h48zM503 525h-54l-5 92q-10 9 -24.5 18.5t-32 17t-36.5 12.5t-39 5q-55 -17 -80 -44.5t-25 -65.5q0 -44 23.5 -72t55.5 -52l91 -70q17 -13 34 -29t30 -36.5t21 -46.5t8 -60q0 -61 -37 -107t-103 -69l-102 -36
q-70 0 -124.5 18.5t-88.5 44.5l24 140h64v-83q10 -12 27 -25t38 -23.5t44 -17.5t45 -7q57 15 82.5 49.5t25.5 80.5q0 26 -5.5 45t-16 34.5t-25 28.5t-31.5 26l-102 79q-36 28 -59 62.5t-23 85.5q0 110 149 165l91 33q68 0 113 -16t71 -36z" />
    <glyph glyph-name="scaron" unicode="&#x161;" horiz-adv-x="372" 
d="M400 725l-118 -173h-68l-56 173h38l67 -100l99 100h38zM125 -15q-11 4 -28 11.5t-35 16t-34 16.5t-23 14l48 71q10 -7 26.5 -17t34.5 -20.5t35.5 -20t30.5 -15.5q26 8 37.5 24t11.5 43q0 14 -6 33t-23 34l-85 78q-17 17 -29.5 40t-12.5 48q0 40 30.5 69.5t98.5 54.5
l54 20q9 -2 24.5 -7.5t31.5 -13t31 -14.5t24 -12l-46 -71q-11 7 -26 15.5t-31 17.5t-31.5 17t-27.5 13q-21 -8 -34 -22t-13 -36q0 -18 7 -34.5t27 -34.5l79 -72q23 -21 34.5 -43t11.5 -51q0 -43 -22.5 -72.5t-80.5 -49.5z" />
    <glyph glyph-name="Tcommaaccent" unicode="&#x162;" horiz-adv-x="593" 
d="M202 -90l7 40h100l-14 -80l-82 -110l-35 10l41 105zM314 47l83 -13l-10 -35l-132 3l-131 -3v35l90 13l97 608l-140 -3l-66 -127h-40l28 176l276 -3l274 3l-26 -176h-40l-23 127l-143 3z" />
    <glyph glyph-name="tcommaaccent" unicode="&#x163;" horiz-adv-x="338" 
d="M48 -90l7 40h100l-14 -80l-82 -110l-35 10l41 105zM158 60l130 53l16 -27l-188 -101l-51 28l68 397h-93l5 17l37 35h60l13 70l72 64h24l-25 -139h127l-10 -47h-125z" />
    <glyph glyph-name="Tcaron" unicode="&#x164;" horiz-adv-x="593" 
d="M529 900l-110 -133h-83l-64 133h48l69 -77l92 77h48zM314 47l83 -13l-10 -35l-132 3l-131 -3v35l90 13l97 608l-140 -3l-66 -127h-40l28 176l276 -3l274 3l-26 -176h-40l-23 127l-143 3z" />
    <glyph glyph-name="tcaron" unicode="&#x165;" horiz-adv-x="338" 
d="M316 675l7 40h100l-14 -80l-82 -110l-35 10l41 105zM158 60l130 53l16 -27l-188 -101l-51 28l68 397h-93l5 17l37 35h60l13 70l72 64h24l-25 -139h127l-10 -47h-125z" />
    <glyph glyph-name="Tbar" unicode="&#x166;" horiz-adv-x="593" 
d="M381 470h107l-9 -50h-106l-59 -373l83 -13l-10 -35l-132 3l-131 -3v35l90 13l59 373h-99l9 50h98l30 185l-140 -3l-66 -127h-40l28 176l276 -3l274 3l-26 -176h-40l-23 127l-143 3z" />
    <glyph glyph-name="tbar" unicode="&#x167;" horiz-adv-x="338" 
d="M204 330h89l-7 -40h-89l-39 -230l130 53l16 -27l-188 -101l-51 28l47 277h-61l7 40h61l14 80h-93l5 17l37 35h60l13 70l72 64h24l-25 -139h127l-10 -47h-125z" />
    <glyph glyph-name="Utilde" unicode="&#x168;" horiz-adv-x="666" 
d="M326 870l69 22l137 -60l49 58h20l-43 -100l-67 -17l-138 60l-48 -58h-20zM570 234q-7 -43 -19.5 -79.5t-36 -66t-61.5 -51.5t-96 -37l-71 -18q-61 0 -102 18t-63.5 52t-27.5 82t4 107l65 412l-87 13l10 35l133 -3l137 3v-35l-88 -13l-71 -431q-6 -36 0 -69.5t24.5 -60
t49.5 -42.5t76 -16q31 11 55 26t42.5 37.5t31 55.5t20.5 81l67 419l-87 13l10 35l114 -3l127 3v-35l-89 -13z" />
    <glyph glyph-name="utilde" unicode="&#x169;" horiz-adv-x="524" 
d="M228 680l69 22l137 -60l49 58h20l-43 -100l-67 -17l-138 60l-48 -58h-20zM41 383l-11 28l164 74l30 -31l-56 -326q-6 -34 3.5 -48.5t27.5 -14.5q11 0 24 5t26 12.5t24.5 15t20.5 13.5l46 31l56 328h85l-72 -410l83 52l17 -25l-142 -102l-44 28l8 58l14 30l-172 -116
q-30 0 -50 10.5t-31 27t-14 36.5t0 39l56 318z" />
    <glyph glyph-name="Umacron" unicode="&#x16a;" horiz-adv-x="666" 
d="M300 855h280l-9 -55h-280zM570 234q-7 -43 -19.5 -79.5t-36 -66t-61.5 -51.5t-96 -37l-71 -18q-61 0 -102 18t-63.5 52t-27.5 82t4 107l65 412l-87 13l10 35l133 -3l137 3v-35l-88 -13l-71 -431q-6 -36 0 -69.5t24.5 -60t49.5 -42.5t76 -16q31 11 55 26t42.5 37.5
t31 55.5t20.5 81l67 419l-87 13l10 35l114 -3l127 3v-35l-89 -13z" />
    <glyph glyph-name="umacron" unicode="&#x16b;" horiz-adv-x="524" 
d="M203 655h280l-9 -55h-280zM41 383l-11 28l164 74l30 -31l-56 -326q-6 -34 3.5 -48.5t27.5 -14.5q11 0 24 5t26 12.5t24.5 15t20.5 13.5l46 31l56 328h85l-72 -410l83 52l17 -25l-142 -102l-44 28l8 58l14 30l-172 -116q-30 0 -50 10.5t-31 27t-14 36.5t0 39l56 318z" />
    <glyph glyph-name="Ubreve" unicode="&#x16c;" horiz-adv-x="666" 
d="M434 826q22 0 41 6t34.5 15t27 19.5t20.5 18.5l21 -20q-8 -10 -18 -23.5t-26 -28.5t-39.5 -30.5t-58.5 -28.5q-32 0 -54 11t-37 28t-25 36t-16 36l30 20q6 -8 13.5 -18.5t19.5 -19.5t28 -15t39 -6zM570 234q-7 -43 -19.5 -79.5t-36 -66t-61.5 -51.5t-96 -37l-71 -18
q-61 0 -102 18t-63.5 52t-27.5 82t4 107l65 412l-87 13l10 35l133 -3l137 3v-35l-88 -13l-71 -431q-6 -36 0 -69.5t24.5 -60t49.5 -42.5t76 -16q31 11 55 26t42.5 37.5t31 55.5t20.5 81l67 419l-87 13l10 35l114 -3l127 3v-35l-89 -13z" />
    <glyph glyph-name="ubreve" unicode="&#x16d;" horiz-adv-x="524" 
d="M346 617q22 0 39 8t31 20t24.5 27t19.5 29l25 -20q-8 -13 -18.5 -29t-26.5 -33.5t-40 -35t-60 -33.5q-30 0 -52 13t-38 33t-25.5 42.5t-13.5 42.5l33 20q6 -14 13.5 -29t19.5 -27t28.5 -20t40.5 -8zM41 383l-11 28l164 74l30 -31l-56 -326q-6 -34 3.5 -48.5t27.5 -14.5
q11 0 24 5t26 12.5t24.5 15t20.5 13.5l46 31l56 328h85l-72 -410l83 52l17 -25l-142 -102l-44 28l8 58l14 30l-172 -116q-30 0 -50 10.5t-31 27t-14 36.5t0 39l56 318z" />
    <glyph glyph-name="Uring" unicode="&#x16e;" horiz-adv-x="666" 
d="M534 835q0 -25 -8 -39.5t-21.5 -23.5t-31.5 -14.5t-39 -13.5q-19 0 -38 4.5t-34 15t-24 28t-9 43.5q0 23 8.5 39t23 26.5t32.5 17t38 12.5q22 0 40.5 -4.5t32.5 -15.5t22 -29.5t8 -45.5zM376 835q0 -23 16.5 -37.5t39.5 -14.5t39.5 14.5t16.5 37.5t-16.5 39.5t-39.5 16.5
t-39.5 -16.5t-16.5 -39.5zM570 234q-7 -43 -19.5 -79.5t-36 -66t-61.5 -51.5t-96 -37l-71 -18q-61 0 -102 18t-63.5 52t-27.5 82t4 107l65 412l-87 13l10 35l133 -3l137 3v-35l-88 -13l-71 -431q-6 -36 0 -69.5t24.5 -60t49.5 -42.5t76 -16q31 11 55 26t42.5 37.5t31 55.5
t20.5 81l67 419l-87 13l10 35l114 -3l127 3v-35l-89 -13z" />
    <glyph glyph-name="uring" unicode="&#x16f;" horiz-adv-x="524" 
d="M428 630q0 -25 -8 -39.5t-21.5 -23.5t-31.5 -14.5t-39 -13.5q-19 0 -38 4.5t-34 15t-24 28t-9 43.5q0 23 8.5 39t23 26.5t32.5 17t38 12.5q22 0 40.5 -4.5t32.5 -15.5t22 -29.5t8 -45.5zM270 630q0 -23 16.5 -37.5t39.5 -14.5t39.5 14.5t16.5 37.5t-16.5 39.5t-39.5 16.5
t-39.5 -16.5t-16.5 -39.5zM41 383l-11 28l164 74l30 -31l-56 -326q-6 -34 3.5 -48.5t27.5 -14.5q11 0 24 5t26 12.5t24.5 15t20.5 13.5l46 31l56 328h85l-72 -410l83 52l17 -25l-142 -102l-44 28l8 58l14 30l-172 -116q-30 0 -50 10.5t-31 27t-14 36.5t0 39l56 318z" />
    <glyph glyph-name="Uhungarumlaut" unicode="&#x170;" horiz-adv-x="666" 
d="M303 767l62 133h120l-139 -133h-43zM469 767l62 133h120l-139 -133h-43zM570 234q-7 -43 -19.5 -79.5t-36 -66t-61.5 -51.5t-96 -37l-71 -18q-61 0 -102 18t-63.5 52t-27.5 82t4 107l65 412l-87 13l10 35l133 -3l137 3v-35l-88 -13l-71 -431q-6 -36 0 -69.5t24.5 -60
t49.5 -42.5t76 -16q31 11 55 26t42.5 37.5t31 55.5t20.5 81l67 419l-87 13l10 35l114 -3l127 3v-35l-89 -13z" />
    <glyph glyph-name="uhungarumlaut" unicode="&#x171;" horiz-adv-x="524" 
d="M207 542l78 173h105l-145 -173h-38zM373 542l78 173h105l-145 -173h-38zM41 383l-11 28l164 74l30 -31l-56 -326q-6 -34 3.5 -48.5t27.5 -14.5q11 0 24 5t26 12.5t24.5 15t20.5 13.5l46 31l56 328h85l-72 -410l83 52l17 -25l-142 -102l-44 28l8 58l14 30l-172 -116
q-30 0 -50 10.5t-31 27t-14 36.5t0 39l56 318z" />
    <glyph glyph-name="Uogonek" unicode="&#x172;" horiz-adv-x="666" 
d="M570 234q-6 -39 -16.5 -72.5t-30 -61t-49.5 -50t-75 -38.5l-81 -122l-6 -33q-6 -36 19.5 -50t72.5 -14l-6 -33q-98 0 -134.5 25t-27.5 76l9 54l103 83l-62 -16q-61 0 -102 18t-63.5 52t-27.5 82t4 107l65 412l-87 13l10 35l133 -3l137 3v-35l-88 -13l-71 -431
q-6 -36 0 -69.5t24.5 -60t49.5 -42.5t76 -16q31 11 55 26t42.5 37.5t31 55.5t20.5 81l67 419l-87 13l10 35l114 -3l127 3v-35l-89 -13z" />
    <glyph glyph-name="uogonek" unicode="&#x173;" horiz-adv-x="524" 
d="M412 -240q-98 0 -134.5 25t-27.5 76l9 54l96 77l-32 21l8 58l14 30l-172 -116q-30 0 -50 10.5t-31 27t-14 36.5t0 39l56 318l-93 -33l-11 28l164 74l30 -31l-56 -326q-6 -34 3.5 -48.5t27.5 -14.5q11 0 24 5t26 12.5t24.5 15t20.5 13.5l46 31l56 328h85l-72 -410l83 52
l17 -25l-89 -64l-88 -133l-6 -33q-6 -36 19.5 -50t72.5 -14l-6 -33v0z" />
    <glyph glyph-name="Wcircumflex" unicode="&#x174;" horiz-adv-x="906" 
d="M415 767l110 133h83l64 -133h-48l-69 77l-92 -77h-48zM255 -18l-105 673l-75 11l10 35l131 -3l103 3v-35l-67 -13l68 -493l-10 -57l172 443l-15 109l-55 11l10 35l111 -3l123 3v-35l-87 -13l68 -493l-10 -57l221 550l-85 13l10 35l115 -3l78 3v-35l-50 -11l-283 -653
l-61 -20l-73 448l2 55l-185 -483z" />
    <glyph glyph-name="wcircumflex" unicode="&#x175;" horiz-adv-x="677" 
d="M261 542l118 173h68l56 -173h-38l-67 100l-99 -100h-38zM547 432l86 53l39 -53l-21 -116l-226 -331l-81 20l-5 163l8 60l-153 -243l-81 20l-12 409l-90 -32l-11 28l164 75l27 -28v-373l-8 -45l153 240l-4 161l90 32v-388l-8 -45l199 308z" />
    <glyph glyph-name="Ycircumflex" unicode="&#x176;" horiz-adv-x="613" 
d="M285 767l110 133h83l64 -133h-48l-69 77l-92 -77h-48zM383 285l-37 -238l113 -13l-10 -35l-162 3l-163 -3v35l122 13l37 239l-152 369l-56 11l10 35l113 -3l132 3v-35l-87 -13l113 -282v-38l203 320l-85 13l10 35l112 -3l77 3v-35l-50 -11z" />
    <glyph glyph-name="ycircumflex" unicode="&#x177;" horiz-adv-x="467" 
d="M160 542l118 173h68l56 -173h-38l-67 100l-99 -100h-38zM214 6l-56 -6l-60 411l-85 -31l-15 25l138 80l54 -25l44 -420l169 307l-66 85l86 53l39 -53l-21 -116l-328 -551h-128l16 92h76z" />
    <glyph glyph-name="Ydieresis" unicode="&#x178;" horiz-adv-x="613" 
d="M314 873l56 -5v-45l-17 -45l-27 -5l-58 5l4 52l18 38zM518 873l56 -5v-45l-17 -45l-27 -5l-58 5l4 52l18 38zM383 285l-37 -238l113 -13l-10 -35l-162 3l-163 -3v35l122 13l37 239l-152 369l-56 11l10 35l113 -3l132 3v-35l-87 -13l113 -282v-38l203 320l-85 13l10 35
l112 -3l77 3v-35l-50 -11z" />
    <glyph glyph-name="Zacute" unicode="&#x179;" horiz-adv-x="519" 
d="M301 767l62 133h120l-139 -133h-43zM484 205h38l-67 -205h-470v40l431 581l60 39l-295 -10l-67 -128h-34l29 178h435l20 -40l-431 -580l-56 -35l306 5z" />
    <glyph glyph-name="zacute" unicode="&#x17a;" horiz-adv-x="409" 
d="M244 542l78 173h105l-145 -173h-38zM324 78l33 33l26 -8l-54 -120l-270 39l-41 -28l-28 19l335 383l-68 -26l-149 20l-28 -29l-25 7l53 110l260 -27l31 19l25 -19l-324 -372l62 24z" />
    <glyph glyph-name="Zdotaccent" unicode="&#x17b;" horiz-adv-x="519" 
d="M312 871l29 5l56 -5v-48l-17 -43l-27 -5l-63 5l4 50zM484 205h38l-67 -205h-470v40l431 581l60 39l-295 -10l-67 -128h-34l29 178h435l20 -40l-431 -580l-56 -35l306 5z" />
    <glyph glyph-name="zdotaccent" unicode="&#x17c;" horiz-adv-x="409" 
d="M255 688l29 5l56 -5v-48l-17 -43l-27 -5l-63 5l4 50zM324 78l33 33l26 -8l-54 -120l-270 39l-41 -28l-28 19l335 383l-68 -26l-149 20l-28 -29l-25 7l53 110l260 -27l31 19l25 -19l-324 -372l62 24z" />
    <glyph glyph-name="Zcaron" unicode="&#x17d;" horiz-adv-x="519" 
d="M237 900h48l69 -77l92 77h48l-110 -133h-83zM484 205h38l-67 -205h-470v40l431 581l60 39l-295 -10l-67 -128h-34l29 178h435l20 -40l-431 -580l-56 -35l306 5z" />
    <glyph glyph-name="zcaron" unicode="&#x17e;" horiz-adv-x="409" 
d="M427 725l-118 -173h-68l-56 173h38l67 -100l99 100h38zM324 78l33 33l26 -8l-54 -120l-270 39l-41 -28l-28 19l335 383l-68 -26l-149 20l-28 -29l-25 7l53 110l260 -27l31 19l25 -19l-324 -372l62 24z" />
    <glyph glyph-name="longs" unicode="&#x17f;" horiz-adv-x="315" 
d="M135 -35q-7 -38 -23 -70.5t-43 -49.5l-124 -80h-70l17 82h111q17 18 27.5 41.5t13.5 41.5l84 480h-97l5 18l37 33h64l9 54q7 40 22 71t43 49l127 80h82l-16 -79h-124q-17 -17 -28 -41.5t-15 -44.5z" />
    <glyph glyph-name="florin" unicode="&#x192;" horiz-adv-x="356" 
d="M23 -153q17 18 27.5 41.5t13.5 41.5l84 480h-97l5 18l37 33h64l9 54q7 40 22 71t43 49l127 80h82l-16 -79h-124q-17 -17 -28.5 -41.5t-14.5 -44.5l-16 -92h113l-11 -48h-111l-77 -445q-7 -38 -23 -70.5t-43 -49.5l-124 -80h-70l17 82h111z" />
    <glyph glyph-name="Aringacute" unicode="&#x1fa;" horiz-adv-x="665" 
d="M573 835q0 -25 -8 -39.5t-21.5 -23.5t-31.5 -14.5t-39 -13.5q-19 0 -38 4.5t-34 15t-24 28t-9 43.5q0 23 8.5 39t23 26.5t32.5 17t38 12.5l21 45l105 5l-71 -60q22 -9 35 -29.5t13 -55.5zM415 835q0 -23 16.5 -37.5t39.5 -14.5t39.5 14.5t16.5 37.5t-16.5 39.5
t-39.5 16.5t-39.5 -16.5t-16.5 -39.5zM501 2l-128 -3v35l87 13l-19 187h-220l-100 -187l85 -13l-10 -35l-108 3l-108 -3v35l80 11l367 653l67 20l71 -673l75 -11l-9 -35zM246 281h190l-24 240v72z" />
    <glyph glyph-name="aringacute" unicode="&#x1fb;" horiz-adv-x="483" 
d="M462 630q0 -25 -8 -39.5t-21.5 -23.5t-31.5 -14.5t-39 -13.5q-19 0 -38 4.5t-34 15t-24 28t-9 43.5q0 23 8.5 39t23 26.5t32.5 17t38 12.5l21 45l105 5l-71 -60q22 -9 35 -29.5t13 -55.5zM304 630q0 -23 16.5 -37.5t39.5 -14.5t39.5 14.5t16.5 37.5t-16.5 39.5
t-39.5 16.5t-39.5 -16.5t-16.5 -39.5zM378 60l83 52l17 -25l-142 -102l-51 32l10 59l17 43l-142 -134q-25 6 -48.5 18t-41.5 34t-29 55t-11 81q0 99 47.5 168.5t135.5 113.5l60 30q14 -1 33.5 -4.5t41.5 -9.5t44.5 -13.5t42.5 -14.5zM135 193q0 -53 21 -86.5t45 -45.5
l108 91l43 243q-10 7 -25 12.5t-31.5 10t-32.5 7t-29 2.5q-19 -15 -36.5 -37.5t-31.5 -52t-22.5 -65.5t-8.5 -79z" />
    <glyph glyph-name="AEacute" unicode="&#x1fc;" horiz-adv-x="878" 
d="M542 767l62 133h120l-139 -133h-43zM207 34l-12 -35l-113 3l-107 -3l2 35l79 11l410 656l81 -3l346 3v-171h-34l-43 120l-229 3l-46 -292l115 4l64 120h25l-38 -145l-9 -150h-25l-25 120l-115 4l-43 -268l241 3l80 146h38l-46 -196l-367 2l-132 -2v35l91 13l42 267h-153
l-162 -267zM309 361h136l48 294z" />
    <glyph glyph-name="aeacute" unicode="&#x1fd;" horiz-adv-x="657" 
d="M371 542l78 173h105l-145 -173h-38zM469 59q26 11 59 29t59 35l18 -25q-9 -8 -24 -19t-32.5 -23.5t-36.5 -25t-37 -22.5l-39 -23q-55 0 -94.5 28.5t-57.5 78.5l-114 -107q-26 6 -50.5 18t-43 34t-30 55t-11.5 81q0 99 47.5 168.5t135.5 113.5l60 30q13 -1 31.5 -4.5
t39.5 -8.5t42.5 -11.5t41.5 -13.5l94 38q47 -8 78.5 -31t31.5 -74q0 -34 -18 -86l-252 -80q-1 -7 -1 -13.5v-12.5q0 -33 9.5 -57.5t24.5 -40t33 -23.5t36 -8zM130 193q0 -53 22.5 -86.5t48.5 -45.5l74 62q-6 35 -3 71.5t14 71.5t29.5 67.5t44.5 58.5q-32 17 -69.5 26
t-61.5 9q-19 -15 -36.5 -37.5t-31.5 -52t-22.5 -65.5t-8.5 -79zM490 437q-27 -11 -47 -31t-34.5 -45t-23.5 -53.5t-14 -58.5l163 67q10 31 10 54q0 34 -15.5 48.5t-38.5 18.5z" />
    <glyph glyph-name="Oslashacute" unicode="&#x1fe;" horiz-adv-x="695" 
d="M418 718q110 0 179 -63l52 60h51l-77 -89q30 -38 46 -90t16 -116q0 -60 -15.5 -122.5t-50 -119t-89.5 -102t-133 -69.5l-80 -25q-60 0 -107.5 19t-82.5 54l-61 -70h-53l89 102q-52 75 -52 193q0 60 15.5 122.5t50 119t89.5 102t133 69.5zM575 405q0 42 -6.5 75.5
t-18.5 61.5l-354 -407q27 -48 69.5 -72t93.5 -29q49 19 89 55t68.5 84.5t43.5 107.5t15 124zM160 295q0 -35 5 -65t13 -55l352 403q-28 41 -68 62t-86 26q-50 -19 -89.5 -55t-68 -84.5t-43.5 -107.5t-15 -124zM412 767l62 133h120l-139 -133h-43z" />
    <glyph glyph-name="oslashacute" unicode="&#x1ff;" horiz-adv-x="477" 
d="M294 485q32 0 60.5 -12.5t51.5 -36.5l41 44h51l-70 -75q14 -23 21.5 -53t7.5 -66q0 -46 -13 -88.5t-37.5 -79t-60.5 -65t-82 -45.5l-61 -23q-34 0 -64 14t-53 41l-38 -40h-52l68 73q-11 23 -17.5 50.5t-6.5 60.5q0 46 13 88.5t37.5 79t60.5 65t82 45.5zM362 272
q0 31 -6 57l-206 -221q14 -35 38.5 -52.5t53.5 -22.5q34 11 57 38t37 61t20 71t6 69zM253 437q-34 -11 -57 -38t-36.5 -61t-19 -71.5t-5.5 -68.5q0 -25 3 -46l205 217q-16 32 -40 47.5t-50 20.5zM280 542l78 173h105l-145 -173h-38z" />
    <glyph glyph-name="Scommaaccent" unicode="&#x218;" horiz-adv-x="507" 
d="M152 -90l7 40h100l-14 -80l-82 -110l-35 10l41 105zM503 525h-54l-5 92q-10 9 -24.5 18.5t-32 17t-36.5 12.5t-39 5q-55 -17 -80 -44.5t-25 -65.5q0 -44 23.5 -72t55.5 -52l91 -70q17 -13 34 -29t30 -36.5t21 -46.5t8 -60q0 -61 -37 -107t-103 -69l-102 -36
q-70 0 -124.5 18.5t-88.5 44.5l24 140h64v-83q10 -12 27 -25t38 -23.5t44 -17.5t45 -7q57 15 82.5 49.5t25.5 80.5q0 26 -5.5 45t-16 34.5t-25 28.5t-31.5 26l-102 79q-36 28 -59 62.5t-23 85.5q0 110 149 165l91 33q68 0 113 -16t71 -36z" />
    <glyph glyph-name="scommaaccent" unicode="&#x219;" horiz-adv-x="372" 
d="M65 -90l7 40h100l-14 -80l-82 -110l-35 10l41 105zM125 -15q-11 4 -28 11.5t-35 16t-34 16.5t-23 14l48 71q10 -7 26.5 -17t34.5 -20.5t35.5 -20t30.5 -15.5q26 8 37.5 24t11.5 43q0 14 -6 33t-23 34l-85 78q-17 17 -29.5 40t-12.5 48q0 40 30.5 69.5t98.5 54.5l54 20
q9 -2 24.5 -7.5t31.5 -13t31 -14.5t24 -12l-46 -71q-11 7 -26 15.5t-31 17.5t-31.5 17t-27.5 13q-21 -8 -34 -22t-13 -36q0 -18 7 -34.5t27 -34.5l79 -72q23 -21 34.5 -43t11.5 -51q0 -43 -22.5 -72.5t-80.5 -49.5z" />
    <glyph glyph-name="uni021A" unicode="&#x21a;" horiz-adv-x="593" 
d="M193 -90l7 40h100l-14 -80l-82 -110l-35 10l41 105zM314 47l83 -13l-10 -35l-132 3l-131 -3v35l90 13l97 608l-140 -3l-66 -127h-40l28 176l276 -3l274 3l-26 -176h-40l-23 127l-143 3z" />
    <glyph glyph-name="uni021B" unicode="&#x21b;" horiz-adv-x="338" 
d="M48 -90l7 40h100l-14 -80l-82 -110l-35 10l41 105zM158 60l130 53l16 -27l-188 -101l-51 28l68 397h-93l5 17l37 35h60l13 70l72 64h24l-25 -139h127l-10 -47h-125z" />
    <glyph glyph-name="hsuperior" unicode="&#x2b0;" horiz-adv-x="345" 
d="M153 400h-78l69 352l-53 -13l-8 20l117 34l25 -20l-29 -148l-11 -22l109 70q39 0 54.5 -17.5t8.5 -56.5l-33 -160l49 27l12 -16l-91 -58l-52 22l32 167q2 10 -1 17.5t-16 7.5q-10 0 -22 -4t-20 -8l-27 -14z" />
    <glyph glyph-name="jsuperior" unicode="&#x2b2;" horiz-adv-x="163" 
d="M-35 271l12 66h69q11 14 16.5 31.5t7.5 31.5l46 228l-49 -14l-9 18l106 41l33 -30l-47 -235q-5 -31 -24 -53t-48 -42l-70 -42h-43zM151 781l24 5l43 -5v-39l-13 -31l-22 -5l-48 5l2 36z" />
    <glyph glyph-name="wsuperior" unicode="&#x2b7;" horiz-adv-x="428" 
d="M376 634l66 39l31 -29l-14 -79l-134 -173l-71 13l-2 63l8 40l-85 -116l-71 13l-6 223l-50 -14l-8 18l106 41l31 -29v-172l-5 -33l78 103l-3 99l80 25v-197l-6 -33l103 140z" />
    <glyph glyph-name="ysuperior" unicode="&#x2b8;" horiz-adv-x="294" 
d="M185 412l-61 -12l-33 227l-47 -14l-9 18l100 42l35 -26l28 -212l94 141l-50 58l66 39l31 -29l-14 -79l-197 -294h-88l13 76h60z" />
    <glyph glyph-name="apostrophemod" unicode="&#x2bc;" horiz-adv-x="228" 
d="M95 470q8 13 17.5 30.5t18 35.5t15 34t8.5 26l-39 4l5 57l18 48l64 5l36 -5l-5 -56l-13 -49l-91 -145z" />
    <glyph glyph-name="circumflex" unicode="&#x2c6;" horiz-adv-x="500" 
d="M129 542l118 173h68l56 -173h-38l-67 100l-99 -100h-38z" />
    <glyph glyph-name="caron" unicode="&#x2c7;" horiz-adv-x="500" 
d="M371 725l-118 -173h-68l-56 173h38l67 -100l99 100h38z" />
    <glyph glyph-name="breve" unicode="&#x2d8;" horiz-adv-x="500" 
d="M248 617q22 0 39 8t31 20t24.5 27t19.5 29l25 -20q-8 -13 -18.5 -29t-26.5 -33.5t-40 -35t-60 -33.5q-30 0 -52 13t-38 33t-25.5 42.5t-13.5 42.5l33 20q6 -14 13.5 -29t19.5 -27t28.5 -20t40.5 -8z" />
    <glyph glyph-name="dotaccent" unicode="&#x2d9;" horiz-adv-x="500" 
d="M218 688l29 5l56 -5v-48l-17 -43l-27 -5l-63 5l4 50z" />
    <glyph glyph-name="ring" unicode="&#x2da;" horiz-adv-x="500" 
d="M352 630q0 -25 -8 -39.5t-21.5 -23.5t-31.5 -14.5t-39 -13.5q-19 0 -38 4.5t-34 15t-24 28t-9 43.5q0 23 8.5 39t23 26.5t32.5 17t38 12.5q22 0 40.5 -4.5t32.5 -15.5t22 -29.5t8 -45.5zM194 630q0 -23 16.5 -37.5t39.5 -14.5t39.5 14.5t16.5 37.5t-16.5 39.5t-39.5 16.5
t-39.5 -16.5t-16.5 -39.5z" />
    <glyph glyph-name="ogonek" unicode="&#x2db;" horiz-adv-x="500" 
d="M247 -110l-6 -33q-6 -36 19.5 -50t72.5 -14l-6 -33q-98 0 -134.5 25t-27.5 76l9 54l138 111h25z" />
    <glyph glyph-name="tilde" unicode="&#x2dc;" horiz-adv-x="500" 
d="M133 680l69 22l137 -60l49 58h20l-43 -100l-67 -17l-138 60l-48 -58h-20z" />
    <glyph glyph-name="hungarumlaut" unicode="&#x2dd;" horiz-adv-x="500" 
d="M75 542l78 173h105l-145 -173h-38zM241 542l78 173h105l-145 -173h-38z" />
    <glyph glyph-name="xsuperior" unicode="&#x2e3;" horiz-adv-x="300" 
d="M123 629l-50 -15l-8 18l102 41l32 -29l19 -57v-25l77 106h65l-18 -76h-35q-10 -3 -19.5 -9t-23.5 -16l-31 -26l35 -105l54 30l12 -16l-90 -58l-48 21l-24 67v22l-77 -105h-65l18 76h38q19 4 44 26l27 26z" />
    <glyph glyph-name="Delta" unicode="&#x394;" horiz-adv-x="676" 
d="M20 0v50l303 645l45 20l288 -664v-51h-636zM88 50h453l-205 485l-7 55z" />
    <glyph glyph-name="Omega" unicode="&#x3a9;" horiz-adv-x="720" 
d="M262 116q-42 9 -81.5 31t-71 58t-50.5 85.5t-19 114.5q0 59 18.5 107t58.5 86t102.5 67t150.5 50q69 0 126 -22t98 -60t63.5 -89t22.5 -109q0 -69 -15.5 -116t-44 -81t-70 -60.5t-92.5 -55.5v-62l174 34l24 66h34v-160h-290v160q26 0 56 13t55.5 41.5t42 75t16.5 114.5
q0 58 -18 105t-49 80.5t-73 52t-91 18.5q-39 0 -73.5 -17.5t-60 -47.5t-40.5 -71t-15 -88q0 -61 15.5 -111.5t39.5 -87t54.5 -57t60.5 -20.5v-160h-290v160h34l24 -66l174 -34v56z" />
    <glyph glyph-name="mu" unicode="&#x3bc;" 
d="M186 470h85l-58 -342q-6 -34 3.5 -48.5t27.5 -14.5q11 0 24 5t26 12.5t24.5 15t20.5 13.5l46 31l56 328h85l-72 -410l83 52l17 -25l-142 -102l-44 28l8 58l14 30l-172 -116q-17 0 -30 3.5t-24 9.5l-4 -28l15 -200h-110z" />
    <glyph glyph-name="pi" unicode="&#x3c0;" 
d="M490 112l17 -25l-142 -102l-51 32l70 398h-134l-73 -415h-85l73 415h-54l-53 -95h-32l25 145h542l-8 -50h-115l-63 -355z" />
    <glyph glyph-name="Wgrave" unicode="&#x1e80;" horiz-adv-x="906" 
d="M512 767l-91 133h110l24 -133h-43zM255 -18l-105 673l-75 11l10 35l131 -3l103 3v-35l-67 -13l68 -493l-10 -57l172 443l-15 109l-55 11l10 35l111 -3l123 3v-35l-87 -13l68 -493l-10 -57l221 550l-85 13l10 35l115 -3l78 3v-35l-50 -11l-283 -653l-61 -20l-73 448l2 55
l-185 -483z" />
    <glyph glyph-name="wgrave" unicode="&#x1e81;" horiz-adv-x="677" 
d="M360 542l-78 173h100l12 -173h-34zM547 432l86 53l39 -53l-21 -116l-226 -331l-81 20l-5 163l8 60l-153 -243l-81 20l-12 409l-90 -32l-11 28l164 75l27 -28v-373l-8 -45l153 240l-4 161l90 32v-388l-8 -45l199 308z" />
    <glyph glyph-name="Wacute" unicode="&#x1e82;" horiz-adv-x="906" 
d="M504 767l62 133h120l-139 -133h-43zM255 -18l-105 673l-75 11l10 35l131 -3l103 3v-35l-67 -13l68 -493l-10 -57l172 443l-15 109l-55 11l10 35l111 -3l123 3v-35l-87 -13l68 -493l-10 -57l221 550l-85 13l10 35l115 -3l78 3v-35l-50 -11l-283 -653l-61 -20l-73 448l2 55
l-185 -483z" />
    <glyph glyph-name="wacute" unicode="&#x1e83;" horiz-adv-x="677" 
d="M349 542l78 173h105l-145 -173h-38zM547 432l86 53l39 -53l-21 -116l-226 -331l-81 20l-5 163l8 60l-153 -243l-81 20l-12 409l-90 -32l-11 28l164 75l27 -28v-373l-8 -45l153 240l-4 161l90 32v-388l-8 -45l199 308z" />
    <glyph glyph-name="Wdieresis" unicode="&#x1e84;" horiz-adv-x="906" 
d="M445 873l56 -5v-45l-17 -45l-27 -5l-58 5l4 52l18 38zM649 873l56 -5v-45l-17 -45l-27 -5l-58 5l4 52l18 38zM255 -18l-105 673l-75 11l10 35l131 -3l103 3v-35l-67 -13l68 -493l-10 -57l172 443l-15 109l-55 11l10 35l111 -3l123 3v-35l-87 -13l68 -493l-10 -57l221 550
l-85 13l10 35l115 -3l78 3v-35l-50 -11l-283 -653l-61 -20l-73 448l2 55l-185 -483z" />
    <glyph glyph-name="wdieresis" unicode="&#x1e85;" horiz-adv-x="677" 
d="M319 670l51 -5v-45l-17 -40l-22 -5l-58 5l4 47l18 38zM483 670l51 -5v-45l-17 -40l-22 -5l-58 5l4 47l18 38zM547 432l86 53l39 -53l-21 -116l-226 -331l-81 20l-5 163l8 60l-153 -243l-81 20l-12 409l-90 -32l-11 28l164 75l27 -28v-373l-8 -45l153 240l-4 161l90 32
v-388l-8 -45l199 308z" />
    <glyph glyph-name="Ygrave" unicode="&#x1ef2;" horiz-adv-x="613" 
d="M371 767l-91 133h110l24 -133h-43zM383 285l-37 -238l113 -13l-10 -35l-162 3l-163 -3v35l122 13l37 239l-152 369l-56 11l10 35l113 -3l132 3v-35l-87 -13l113 -282v-38l203 320l-85 13l10 35l112 -3l77 3v-35l-50 -11z" />
    <glyph glyph-name="ygrave" unicode="&#x1ef3;" horiz-adv-x="467" 
d="M256 542l-78 173h100l12 -173h-34zM214 6l-56 -6l-60 411l-85 -31l-15 25l138 80l54 -25l44 -420l169 307l-66 85l86 53l39 -53l-21 -116l-328 -551h-128l16 92h76z" />
    <glyph glyph-name="endash" unicode="&#x2013;" horiz-adv-x="665" 
d="M75 307h555l-10 -55h-555z" />
    <glyph glyph-name="emdash" unicode="&#x2014;" horiz-adv-x="865" 
d="M80 307h745l-10 -55h-745z" />
    <glyph glyph-name="quoteleft" unicode="&#x2018;" horiz-adv-x="218" 
d="M208 518l-18 -48l-64 -5l-36 5l5 56l13 49l91 145l34 -15q-8 -13 -17.5 -30.5t-18 -35.5t-15 -34t-8.5 -26l39 -4z" />
    <glyph glyph-name="quoteright" unicode="&#x2019;" horiz-adv-x="233" 
d="M125 657l18 48l64 5l36 -5l-5 -56l-13 -49l-91 -145l-34 15q8 13 17.5 30.5t18 35.5t15 34t8.5 26l-39 4z" />
    <glyph glyph-name="quotesinglbase" unicode="&#x201a;" horiz-adv-x="238" 
d="M40 57l18 48l64 5l36 -5l-5 -56l-13 -49l-91 -145l-34 15q8 13 17.5 30.5t18 35.5t15 34t8.5 26l-39 4z" />
    <glyph glyph-name="quotedblleft" unicode="&#x201c;" horiz-adv-x="378" 
d="M208 518l-18 -48l-64 -5l-36 5l5 56l13 49l91 145l34 -15q-8 -13 -17.5 -30.5t-18 -35.5t-15 -34t-8.5 -26l39 -4zM368 518l-18 -48l-64 -5l-36 5l5 56l13 49l91 145l34 -15q-8 -13 -17.5 -30.5t-18 -35.5t-15 -34t-8.5 -26l39 -4z" />
    <glyph glyph-name="quotedblright" unicode="&#x201d;" horiz-adv-x="393" 
d="M285 657l18 48l64 5l36 -5l-5 -56l-13 -49l-91 -145l-34 15q8 13 17.5 30.5t18 35.5t15 34t8.5 26l-39 4zM125 657l18 48l64 5l36 -5l-5 -56l-13 -49l-91 -145l-34 15q8 13 17.5 30.5t18 35.5t15 34t8.5 26l-39 4z" />
    <glyph glyph-name="quotedblbase" unicode="&#x201e;" horiz-adv-x="398" 
d="M200 57l18 48l64 5l36 -5l-5 -56l-13 -49l-91 -145l-34 15q8 13 17.5 30.5t18 35.5t15 34t8.5 26l-39 4zM40 57l18 48l64 5l36 -5l-5 -56l-13 -49l-91 -145l-34 15q8 13 17.5 30.5t18 35.5t15 34t8.5 26l-39 4z" />
    <glyph glyph-name="dagger" unicode="&#x2020;" horiz-adv-x="430" 
d="M75 540l164 -23v193h101l-66 -193l176 23l-15 -90l-169 28l-6 -108l20 -41l-45 -103l-70 -286h-20l30 286l-9 103l34 41l32 108l-172 -28z" />
    <glyph glyph-name="daggerdbl" unicode="&#x2021;" horiz-adv-x="494" 
d="M234 370l32 108l-172 -28l15 90l164 -23v193h101l-66 -193l176 23l-15 -90l-169 28l-6 -108l20 -41l-34 -41l-32 -108l172 28l-15 -90l-164 23v-193h-101l66 193l-176 -23l15 90l169 -28l6 108l-20 41z" />
    <glyph glyph-name="bullet" unicode="&#x2022;" horiz-adv-x="278" 
d="M173 371l40 -5l-7 -66l-16 -59l-85 -5l-40 5l7 67l16 58z" />
    <glyph glyph-name="ellipsis" unicode="&#x2026;" horiz-adv-x="710" 
d="M165 110l29 -5l-5 -56l-14 -49l-76 -5l-29 5l5 57l14 48zM390 110l29 -5l-5 -56l-14 -49l-76 -5l-29 5l5 57l14 48zM616 110l29 -5l-5 -56l-14 -49l-76 -5l-29 5l5 57l14 48z" />
    <glyph glyph-name="perthousand" unicode="&#x2030;" horiz-adv-x="1097" 
d="M112 -5h-72l671 710h72zM236 350q-26 0 -49.5 9t-41 25.5t-27.5 40t-10 52.5q0 41 8.5 75.5t28.5 62.5t54.5 49t85.5 36q30 0 53.5 -10.5t39 -28t24 -40.5t8.5 -48q0 -40 -8 -75.5t-28 -64.5t-53.5 -50t-84.5 -33zM275 658q-27 0 -45 -17t-29 -42.5t-16 -56.5t-5 -59
q0 -91 70 -91q24 0 40.5 17t27 42.5t15.5 56.5t5 59q0 45 -17 68t-46 23zM883 0q-26 0 -49.5 9t-41 25.5t-27.5 40t-10 52.5q0 41 8.5 75.5t28.5 62.5t54.5 49t85.5 36q30 0 53.5 -10.5t39 -28t24 -40.5t8.5 -48q0 -40 -8 -75.5t-28 -64.5t-53.5 -50t-84.5 -33zM540 0
q-26 0 -49.5 9t-41 25.5t-27.5 40t-10 52.5q0 41 8.5 75.5t28.5 62.5t54.5 49t85.5 36q30 0 53.5 -10.5t39 -28t24 -40.5t8.5 -48q0 -40 -8 -75.5t-28 -64.5t-53.5 -50t-84.5 -33zM922 308q-27 0 -45 -17t-29 -42.5t-16 -56.5t-5 -59q0 -91 70 -91q24 0 40.5 17t27 42.5
t15.5 56.5t5 59q0 45 -17 68t-46 23zM579 308q-27 0 -45 -17t-29 -42.5t-16 -56.5t-5 -59q0 -91 70 -91q24 0 40.5 17t27 42.5t15.5 56.5t5 59q0 45 -17 68t-46 23z" />
    <glyph glyph-name="guilsinglleft" unicode="&#x2039;" horiz-adv-x="308" 
d="M177 15l-142 220l220 220h48l-166 -221l89 -219h-49z" />
    <glyph glyph-name="guilsinglright" unicode="&#x203a;" horiz-adv-x="334" 
d="M35 15l165 219l-88 221h48l144 -220l-220 -220h-49z" />
    <glyph glyph-name="fraction" unicode="&#x2044;" horiz-adv-x="177" 
d="M-139 -50h-63l521 760h61z" />
    <glyph glyph-name="zerosuperior" unicode="&#x2070;" horiz-adv-x="376" 
d="M85 548q0 35 9.5 70.5t30.5 66.5t54 55.5t79 39.5l43 15q56 0 90.5 -41t34.5 -117q0 -35 -10 -70.5t-31 -66.5t-54 -55.5t-79 -39.5l-42 -15q-56 0 -90.5 41t-34.5 117zM234 428q22 9 41 28.5t32.5 46t21 58.5t7.5 67q0 65 -16.5 93.5t-42.5 35.5q-23 -9 -41.5 -28.5
t-32 -45.5t-21 -58t-7.5 -67q0 -66 17 -94.5t42 -35.5z" />
    <glyph glyph-name="foursuperior" unicode="&#x2074;" horiz-adv-x="340" 
d="M318 577h77l-10 -58h-77l-23 -119h-73l22 119h-151l-18 39l229 234h81l-6 -33l-255 -196l38 14h92l10 43l66 48h17z" />
    <glyph glyph-name="fivesuperior" unicode="&#x2075;" horiz-adv-x="325" 
d="M70 397l12 66h135q22 16 33.5 37.5t11.5 43.5q0 25 -14.5 40.5t-47.5 15.5q-17 0 -30 -3.5t-30 -10.5l-22 -8l-13 12l62 196h223l-5 -25l-26 -41h-175l-37 -105l85 39q60 0 90 -23t30 -60q0 -32 -13.5 -55.5t-35 -41t-48 -30t-52.5 -22.5l-62 -25h-71z" />
    <glyph glyph-name="sixsuperior" unicode="&#x2076;" horiz-adv-x="342" 
d="M392 773q-47 -12 -82.5 -32.5t-60 -45t-39 -50.5t-18.5 -49l93 61q21 0 39 -8t31 -22t20 -32.5t7 -39.5q0 -60 -36.5 -98t-93.5 -55l-40 -12q-55 0 -88.5 35t-33.5 99q0 46 22.5 90.5t62 82t93 63.5t115.5 35zM187 567q-3 -15 -5 -31t-2 -30q2 -73 52 -85q16 7 28 19.5
t19 27t10.5 30t3.5 28.5q0 36 -11 54.5t-25 18.5q-11 0 -22.5 -4.5t-27.5 -14.5z" />
    <glyph glyph-name="sevensuperior" unicode="&#x2077;" horiz-adv-x="299" 
d="M308 721l-24 -12h-195l12 76h262l16 -20l-241 -365h-58l1 35z" />
    <glyph glyph-name="eightsuperior" unicode="&#x2078;" horiz-adv-x="350" 
d="M265 636q47 28 47 71q0 23 -12 38.5t-40 20.5q-23 -8 -31 -26.5t-8 -38.5q0 -37 44 -65zM201 389q-52 0 -86.5 25t-34.5 62q0 23 9.5 41t25 31.5t36.5 24t44 18.5q-32 20 -48 40.5t-16 44.5q0 39 30 65t75 39l48 15q53 0 84.5 -20.5t31.5 -51.5q0 -23 -9.5 -39.5
t-24.5 -29.5t-35 -22t-41 -17q35 -23 58 -44t23 -52q0 -25 -10.5 -44t-28.5 -33t-42 -24t-51 -17zM168 492q0 -32 18.5 -49.5t37.5 -23.5q29 9 42 28.5t13 42.5q0 29 -18 47.5t-40 35.5q-23 -15 -38 -35.5t-15 -45.5z" />
    <glyph glyph-name="ninesuperior" unicode="&#x2079;" horiz-adv-x="337" 
d="M281 619q2 15 3.5 30.5t1.5 29.5q0 35 -13.5 57t-37.5 28q-17 -8 -28.5 -20.5t-19 -27.5t-10.5 -30t-3 -28q0 -35 11 -53t26 -18q11 0 22.5 4.5t27.5 14.5zM75 412q47 12 82.5 32.5t60.5 45.5t39 51.5t19 49.5l-93 -62q-22 0 -40 8t-31 22t-20.5 32.5t-7.5 39.5
q0 60 37 97.5t94 54.5l40 12q55 0 88.5 -35t33.5 -99q0 -46 -22.5 -90.5t-62 -82t-93 -63.5t-115.5 -35z" />
    <glyph glyph-name="plussuperior" unicode="&#x207a;" horiz-adv-x="409" 
d="M241 450v117h-131v45h131v121h46v-121h132v-45h-132v-117h-46z" />
    <glyph glyph-name="minussuperior" unicode="&#x207b;" horiz-adv-x="415" 
d="M110 627h315v-45h-315v45z" />
    <glyph glyph-name="equalsuperior" unicode="&#x207c;" horiz-adv-x="409" 
d="M419 616h-309v45h309v-45zM419 509h-309v44h309v-44z" />
    <glyph glyph-name="parenleftsuperior" unicode="&#x207d;" horiz-adv-x="252" 
d="M342 835q-66 -76 -100 -158t-34 -177q0 -46 8.5 -86.5t24.5 -77.5l-20 -17q-18 28 -31 51t-22 44.5t-13.5 43t-4.5 46.5q0 56 8.5 98t29 80t53.5 77t82 90z" />
    <glyph glyph-name="parenrightsuperior" unicode="&#x207e;" horiz-adv-x="252" 
d="M50 334q66 75 100 157t34 178q0 45 -8.5 86t-24.5 77l20 17q18 -28 31 -51t22 -44.5t13.5 -43t4.5 -46.5q0 -56 -9 -98t-29 -80t-53 -77t-82 -90z" />
    <glyph glyph-name="nsuperior" unicode="&#x207f;" horiz-adv-x="346" 
d="M275 581q2 10 0 17.5t-16 7.5q-10 0 -21.5 -4t-19.5 -8l-28 -15l-34 -179h-78l44 227l-49 -13l-8 18l106 41l32 -29l-4 -20l-10 -20l106 69q38 0 53.5 -17.5t8.5 -56.5l-32 -162l49 28l12 -15l-90 -58l-53 21z" />
    <glyph glyph-name="zeroinferior" unicode="&#x2080;" horiz-adv-x="376" 
d="M-15 -2q0 35 9.5 70.5t30.5 66.5t54 55.5t79 39.5l43 15q56 0 90.5 -41t34.5 -117q0 -35 -10 -70.5t-31 -66.5t-54 -55.5t-79 -39.5l-42 -15q-56 0 -90.5 41t-34.5 117zM134 -122q22 9 41 28.5t32.5 46t21 58.5t7.5 67q0 65 -16.5 93.5t-42.5 35.5q-23 -9 -41.5 -28.5
t-32 -45.5t-21 -58t-7.5 -67q0 -66 17 -94.5t42 -35.5z" />
    <glyph glyph-name="oneinferior" unicode="&#x2081;" horiz-adv-x="308" 
d="M146 -113l87 -10l-8 -28l-125 2l-130 -2l2 28l90 10l55 277l9 15l-31 -15l-63 -10l-7 26l146 58h43z" />
    <glyph glyph-name="twoinferior" unicode="&#x2082;" horiz-adv-x="345" 
d="M290 159q0 -30 -13 -56.5t-35 -50t-50.5 -44t-59.5 -38.5l-115 -74l101 21h143v-25l-26 -42h-268l-12 27l126 107q52 41 86 82.5t34 86.5q0 26 -12 41.5t-33 16.5l-34 -11l-28 -63h-55l9 67l135 41q54 0 80.5 -23.5t26.5 -62.5z" />
    <glyph glyph-name="threeinferior" unicode="&#x2083;" horiz-adv-x="303" 
d="M-50 -151l12 65h135q44 30 44 71q0 23 -19.5 37t-63.5 14l-6 19l28 11q38 14 60 40t22 59q0 20 -10.5 31.5t-27.5 12.5l-35 -9l-27 -61h-62l9 67l140 39q54 0 76.5 -20.5t22.5 -50.5q0 -21 -9.5 -37t-25.5 -28.5t-36.5 -21t-41.5 -14.5q51 -4 74.5 -26t23.5 -49
q0 -30 -15.5 -50.5t-39 -34.5t-51.5 -23.5t-53 -18.5l-59 -22h-65z" />
    <glyph glyph-name="fourinferior" unicode="&#x2084;" horiz-adv-x="340" 
d="M218 27h77l-10 -58h-77l-23 -119h-73l22 119h-151l-18 39l229 234h81l-6 -33l-255 -196l38 14h92l10 43l66 48h17z" />
    <glyph glyph-name="fiveinferior" unicode="&#x2085;" horiz-adv-x="325" 
d="M-30 -153l12 66h135q22 16 33.5 37.5t11.5 43.5q0 25 -14.5 40.5t-47.5 15.5q-17 0 -30 -3.5t-30 -10.5l-22 -8l-13 12l62 196h223l-5 -25l-26 -41h-175l-37 -105l85 39q60 0 90 -23t30 -60q0 -32 -13.5 -55.5t-35 -41t-48 -30t-52.5 -22.5l-62 -25h-71z" />
    <glyph glyph-name="sixinferior" unicode="&#x2086;" horiz-adv-x="342" 
d="M292 223q-47 -12 -82.5 -32.5t-60 -45t-39 -50.5t-18.5 -49l93 61q21 0 39 -8t31 -22t20 -32.5t7 -39.5q0 -60 -36.5 -98t-93.5 -55l-40 -12q-55 0 -88.5 35t-33.5 99q0 46 22.5 90.5t62 82t93 63.5t115.5 35zM87 17q-3 -15 -5 -31t-2 -30q2 -73 52 -85q16 7 28 19.5
t19 27t10.5 30t3.5 28.5q0 36 -11 54.5t-25 18.5q-11 0 -22.5 -4.5t-27.5 -14.5z" />
    <glyph glyph-name="seveninferior" unicode="&#x2087;" horiz-adv-x="299" 
d="M208 171l-24 -12h-195l12 76h262l16 -20l-241 -365h-58l1 35z" />
    <glyph glyph-name="eightinferior" unicode="&#x2088;" horiz-adv-x="350" 
d="M165 86q47 28 47 71q0 23 -12.5 38.5t-39.5 20.5q-23 -8 -31 -26.5t-8 -38.5q0 -37 44 -65zM100 -161q-26 0 -47.5 6.5t-38 18.5t-25.5 28t-9 34q0 23 9.5 41t25 31.5t36 24t43.5 18.5q-32 20 -48 40.5t-16 44.5q1 39 31 65t75 39l48 15q53 0 84.5 -20.5t31.5 -51.5
q0 -23 -9.5 -39.5t-25 -29.5t-35.5 -22t-41 -17q35 -23 58 -44t23 -52q0 -25 -10 -44t-28 -33t-42 -24t-52 -17zM68 -58q0 -32 18 -49.5t37 -23.5q29 9 42.5 28.5t13.5 42.5q0 29 -18 47.5t-40 35.5q-23 -15 -38 -35.5t-15 -45.5z" />
    <glyph glyph-name="nineinferior" unicode="&#x2089;" horiz-adv-x="337" 
d="M181 69q2 15 3.5 30.5t1.5 29.5q0 35 -13.5 57t-37.5 28q-17 -8 -28.5 -20.5t-19 -27.5t-10.5 -30t-3 -28q0 -35 11 -53t26 -18q11 0 22.5 4.5t27.5 14.5zM-25 -138q47 12 82.5 32.5t60.5 45.5t39 51.5t19 49.5l-93 -62q-22 0 -40 8t-31 22t-20.5 32.5t-7.5 39.5
q0 60 37 97.5t94 54.5l40 12q55 0 88.5 -35t33.5 -99q0 -46 -22.5 -90.5t-62 -82t-93 -63.5t-115.5 -35z" />
    <glyph glyph-name="parenleftinferior" unicode="&#x208d;" horiz-adv-x="252" 
d="M242 285q-66 -76 -100 -158t-34 -178q0 -45 8.5 -85.5t24.5 -77.5l-20 -17q-18 28 -31 51t-22 44.5t-13.5 43t-4.5 46.5q0 56 8.5 98t29 80t53.5 77t82 90z" />
    <glyph glyph-name="parenrightinferior" unicode="&#x208e;" horiz-adv-x="252" 
d="M-50 -216q66 75 100 157t34 178q0 45 -8.5 86t-24.5 77l20 17q18 -28 31 -51t22 -44.5t13.5 -43t4.5 -46.5q0 -56 -9 -98t-29 -80t-53 -77t-82 -90z" />
    <glyph glyph-name="Euro" unicode="&#x20ac;" horiz-adv-x="633" 
d="M449 663q-38 -8 -73 -28t-64.5 -48.5t-53 -65t-39.5 -76.5h329l-39 -55h-303q-4 -20 -6 -40t-2 -40h266l-39 -55h-224q5 -44 20.5 -80t39 -62.5t54 -41t65.5 -14.5q25 0 49.5 6t47 15t41.5 19.5t34 18.5l19 -29q-11 -8 -29.5 -20.5t-45 -27.5t-59 -30t-71.5 -27
q-58 0 -105.5 19t-82.5 54.5t-56.5 86t-26.5 113.5h-75l9 55h64q2 41 9 80h-58l9 55h64q37 91 115 155.5t204 98.5l70 19q21 -6 42 -15.5t39.5 -20t34.5 -20.5t26 -17l-53 -72q-12 11 -30 25t-38.5 26.5t-41 23t-36.5 15.5z" />
    <glyph glyph-name="afii61289" unicode="&#x2113;" horiz-adv-x="457" 
d="M30 240q24 10 50.5 20t53.5 22l59 336l155 102q26 0 44.5 -12t30.5 -31.5t18 -43.5t6 -48q0 -60 -17 -106.5t-47.5 -84t-72.5 -67.5t-93 -55l-37 -212l149 50l18 -30l-186 -96l-75 22l39 225q-26 -11 -52 -20.5t-53 -20.5zM228 333q27 18 50 40.5t40 51.5t27 65t10 80
q0 27 -8.5 48.5t-26.5 21.5l-41 -10z" />
    <glyph glyph-name="afii61352" unicode="&#x2116;" horiz-adv-x="977" 
d="M483 0h-60l-175 516l-8 109l-110 -625h-140v30l102 40l102 575l-83 20l11 35l88 -3l85 3l154 -450l8 -110l99 560h130v-30l-92 -40zM824 485q70 0 106.5 -36.5t36.5 -97.5q0 -84 -43.5 -134t-115.5 -72l-64 -20q-70 0 -106.5 36.5t-36.5 97.5q0 84 43.5 133.5t115.5 72.5
zM773 174q28 8 47.5 24.5t30.5 38t16 45.5t5 47q0 48 -19 77.5t-58 29.5q-29 -8 -48 -25t-30.5 -38t-16 -45t-4.5 -47q0 -48 19 -77.5t58 -29.5zM568 60h356l-10 -60h-356z" />
    <glyph glyph-name="trademark" unicode="&#x2122;" horiz-adv-x="1033" 
d="M902 701l82 -2l66 2l3 -28l-45 -7v-316l44 -7l-3 -29l-85 2l-88 -2l-3 29l46 7v252l9 67l-138 -354h-56l-116 282l-17 68v-315l45 -7l-3 -29l-65 2l-65 -2l-3 29l45 7v316l-46 7l3 28l56 -2l98 2l112 -269v-49zM406 314l-106 2l-108 -2l-3 29l65 7v317l-74 -2l-29 -80
h-31v116l183 -2l176 2v-116h-30l-30 80l-73 2v-317l63 -7z" />
    <glyph glyph-name="uni2126" unicode="&#x2126;" horiz-adv-x="720" 
d="M262 116q-42 9 -81.5 31t-71 58t-50.5 85.5t-19 114.5q0 59 18.5 107t58.5 86t102.5 67t150.5 50q69 0 126 -22t98 -60t63.5 -89t22.5 -109q0 -69 -15.5 -116t-44 -81t-70 -60.5t-92.5 -55.5v-62l174 34l24 66h34v-160h-290v160q26 0 56 13t55.5 41.5t42 75t16.5 114.5
q0 58 -18 105t-49 80.5t-73 52t-91 18.5q-39 0 -73.5 -17.5t-60 -47.5t-40.5 -71t-15 -88q0 -61 15.5 -111.5t39.5 -87t54.5 -57t60.5 -20.5v-160h-290v160h34l24 -66l174 -34v56z" />
    <glyph glyph-name="estimated" unicode="&#x212e;" horiz-adv-x="843" 
d="M737 220q-26 -62 -60.5 -100t-80 -62.5t-103 -40t-129.5 -32.5q-76 0 -134.5 22t-98.5 61.5t-60.5 93.5t-20.5 117q0 103 30 176.5t85 124t133.5 82.5t174.5 53q81 0 144 -25.5t104.5 -70.5t59 -106t8.5 -133l-9 -48h-609l-15 -87q7 -46 25.5 -83.5t48 -64.5t68.5 -42
t87 -15q89 0 152.5 49.5t99.5 130.5h100zM180 380h485l11 64q-5 49 -23 89t-47 68.5t-68 43.5t-86 15q-88 0 -149.5 -44.5t-101.5 -115.5z" />
    <glyph glyph-name="arrowleft" unicode="&#x2190;" horiz-adv-x="610" 
d="M560 325v-60h-416l36 -19l140 -137v-84l-270 270l270 270v-84l-140 -136l-36 -20h416z" />
    <glyph glyph-name="arrowup" unicode="&#x2191;" horiz-adv-x="640" 
d="M290 456l-19 -36l-137 -140h-84l270 270l270 -270h-84l-136 140l-20 36v-416h-60v416z" />
    <glyph glyph-name="arrowright" unicode="&#x2192;" horiz-adv-x="610" 
d="M466 325l-36 20l-140 136v84l270 -270l-270 -270v84l140 137l36 19h-416v60h416z" />
    <glyph glyph-name="arrowdown" unicode="&#x2193;" horiz-adv-x="640" 
d="M290 550h60v-416l20 36l136 140h84l-270 -270l-270 270h84l137 -140l19 -36v416z" />
    <glyph glyph-name="uni2196" unicode="&#x2196;" horiz-adv-x="482" 
d="M95 388l12 -39l2 -196l-59 -60v382h382l-60 -59l-195 3l-40 11l295 -294l-43 -43z" />
    <glyph glyph-name="uni2197" unicode="&#x2197;" horiz-adv-x="482" 
d="M93 93l-43 43l295 294l-40 -11l-195 -3l-60 59h382v-382l-59 60l2 196l12 39z" />
    <glyph glyph-name="uni2198" unicode="&#x2198;" horiz-adv-x="482" 
d="M387 180l-12 39l-2 196l59 60v-382h-382l60 59l195 -3l40 -11l-295 294l43 43z" />
    <glyph glyph-name="uni2199" unicode="&#x2199;" horiz-adv-x="482" 
d="M389 475l43 -43l-295 -294l40 11l195 3l60 -59h-382v382l59 -60l-2 -196l-12 -39z" />
    <glyph glyph-name="partialdiff" unicode="&#x2202;" 
d="M523 334q0 -132 -51.5 -209.5t-148.5 -118.5l-56 -21q-35 0 -65.5 12.5t-54 37t-37 61t-13.5 83.5q0 46 13 90t38.5 81t62.5 66.5t86 47.5l56 21q20 -5 38.5 -11.5t35.5 -15.5q0 22 -17.5 54.5t-46 65t-65.5 59t-77 36.5l15 43q65 -19 112 -48t78.5 -63t50.5 -72
t29.5 -74t13.5 -68.5t3 -56.5zM428 379q-27 17 -58.5 28.5t-72.5 16.5q-28 -12 -47 -37t-31 -56.5t-17 -66.5t-5 -66q0 -42 8.5 -71.5t23 -48.5t33.5 -29t39 -14q31 12 55 39.5t40 62t24 72t8 69.5v101z" />
    <glyph glyph-name="uni2206" unicode="&#x2206;" horiz-adv-x="676" 
d="M20 0v50l303 645l45 20l288 -664v-51h-636zM88 50h453l-205 485l-7 55z" />
    <glyph glyph-name="product" unicode="&#x220f;" horiz-adv-x="805" 
d="M50 665l5 35l138 -3h425l132 3l5 -35l-85 -13v-764l85 -13l-5 -35l-132 3l-138 -3l-5 35l90 13v759h-320v-759l85 -13l-5 -35l-132 3l-138 -3l-5 35l90 13v764z" />
    <glyph glyph-name="summation" unicode="&#x2211;" 
d="M68 -160l-22 40l300 370l-290 410l22 40h469v-180h-34l-46 130l-276 5l251 -345v-30l-300 -365l344 15l49 95h38l-35 -185h-470z" />
    <glyph glyph-name="minus" unicode="&#x2212;" 
d="M47 307h525v-65h-525v65z" />
    <glyph glyph-name="radical" unicode="&#x221a;" 
d="M148 -15l-162 445l-62 10l5 30h145l112 -321l8 -69l262 806h241l-20 -56h-167l-279 -815z" />
    <glyph glyph-name="infinity" unicode="&#x221e;" horiz-adv-x="825" 
d="M360 200q-14 -15 -32 -28t-37.5 -22.5t-39 -15t-37.5 -5.5q-36 0 -64.5 12.5t-48.5 34t-30.5 51t-10.5 63.5q0 26 8.5 52t27.5 49.5t50 43.5t76 35q33 0 62 -12t54.5 -30t47.5 -39t42 -39l38 43q29 32 68 54.5t75 22.5q37 0 66.5 -13t49 -35t30 -52t10.5 -64
q0 -62 -36 -104.5t-126 -72.5q-32 0 -60.5 11t-54 28t-48 37t-40.5 38zM223 202q25 0 53 11t51 33l38 38q-15 18 -34 35.5t-39.5 31.5t-42.5 22.5t-43 8.5q-15 0 -31 -4.5t-29.5 -15t-22.5 -27.5t-9 -41q0 -39 28 -65.5t81 -26.5zM465 308q16 -14 35.5 -30t40.5 -29.5
t42 -22.5t40 -9q15 0 30.5 4.5t28 15t21 27.5t8.5 41q0 39 -25 62t-78 23q-26 0 -56 -10t-52 -33z" />
    <glyph glyph-name="integral" unicode="&#x222b;" 
d="M304 510q7 38 22.5 70.5t42.5 49.5l124 80h90l-14 -70h-120q-24 -19 -37 -45.5t-17 -49.5l-100 -570q-7 -38 -22.5 -70.5t-42.5 -49.5l-124 -80h-70l14 70h100q24 19 37.5 45.5t17.5 49.5z" />
    <glyph glyph-name="approxequal" unicode="&#x2248;" 
d="M560 396h35l-39 -100l-93 -22l-359 56l-43 -59h-35l37 95l98 27l356 -56zM559 214h35l-39 -100l-93 -22l-359 56l-43 -59h-35l37 95l98 27l356 -56z" />
    <glyph glyph-name="notequal" unicode="&#x2260;" 
d="M253 115l-96 -115h-73l97 115h-129v65h183l110 130h-293v65h347l89 105h71l-88 -105h96v-65h-151l-109 -130h260v-65h-314z" />
    <glyph glyph-name="lessequal" unicode="&#x2264;" 
d="M50 65h520v-65h-520v65zM570 619v-79l-427 -182l427 -182v-80l-520 231v60z" />
    <glyph glyph-name="greaterequal" unicode="&#x2265;" 
d="M570 0h-520v65h520v-65zM570 387v-60l-520 -231v80l427 182l-427 182v79z" />
    <glyph glyph-name="lozenge" unicode="&#x25ca;" 
d="M289 695l45 20l239 -346l-242 -365l-45 -20l-239 346zM312 600l-7 35l-171 -265l174 -271l7 -35l173 266z" />
    <glyph glyph-name="commaaccent" unicode="&#xf6c3;" horiz-adv-x="500" 
d="M225 -125l-17 35l7 40h100l-14 -80l-82 -110l-35 10z" />
    <glyph glyph-name="asuperior" unicode="&#xf6e9;" horiz-adv-x="323" 
d="M307 436l49 29l12 -16l-90 -57l-53 20l6 29l13 29l-98 -78q-33 10 -54.5 35t-21.5 69q0 49 28.5 87t82.5 62l59 28q24 0 53 -6.5t55 -16.5zM153 529q0 -25 7.5 -42.5t20.5 -31.5l59 36l24 123q-14 7 -33 10.5t-36 3.5q-20 -21 -31 -46.5t-11 -52.5z" />
    <glyph glyph-name="bsuperior" unicode="&#xf6ea;" horiz-adv-x="321" 
d="M274 673q35 -8 56 -34.5t21 -68.5q0 -50 -28 -89.5t-80 -61.5l-57 -27q-30 0 -60.5 6.5t-55.5 20.5l65 332l-54 -12l-8 20l116 34l27 -20l-28 -141l-14 -29zM179 585l-24 -127q13 -7 32.5 -13t38.5 -6q23 18 32 46t9 51q0 27 -8 46.5t-21 27.5z" />
    <glyph glyph-name="dsuperior" unicode="&#xf6eb;" horiz-adv-x="335" 
d="M229 415l6 29l13 28l-98 -80q-35 11 -57.5 36.5t-22.5 70.5q0 95 104 142l62 32q10 0 20 -1t21 -3l17 83l-53 -13l-8 20l117 34l25 -20l-65 -337l49 30l13 -16l-90 -58zM154 528q0 -25 8 -41.5t22 -29.5l59 35l25 128q-15 5 -34.5 7.5t-37.5 2.5q-21 -20 -31.5 -48
t-10.5 -54z" />
    <glyph glyph-name="esuperior" unicode="&#xf6ec;" horiz-adv-x="287" 
d="M212 447q16 5 40 15.5t40 18.5l12 -17q-19 -11 -47 -26.5t-54 -26.5l-39 -19q-18 4 -35 12.5t-30 21.5t-21 30.5t-8 40.5q0 51 30 92t89 60l66 24q26 -5 44 -22t18 -44q0 -14 -2 -24t-7 -24l-153 -41v-3q3 -21 18.5 -39.5t38.5 -28.5zM207 637q-26 -14 -38 -40.5
t-14 -58.5l74 23q3 11 4.5 18t1.5 16q0 17 -8.5 28.5t-19.5 13.5z" />
    <glyph glyph-name="isuperior" unicode="&#xf6ed;" horiz-adv-x="196" 
d="M158 781l24 5l44 -5v-39l-13 -31l-23 -5l-48 5l2 36zM73 614l-8 18l106 41l33 -30l-40 -204l48 27l12 -16l-90 -58l-52 22l41 214z" />
    <glyph glyph-name="lsuperior" unicode="&#xf6ee;" horiz-adv-x="191" 
d="M97 739l-8 20l117 34l25 -20l-64 -335l49 28l12 -16l-90 -58l-53 22l65 336z" />
    <glyph glyph-name="msuperior" unicode="&#xf6ef;" horiz-adv-x="499" 
d="M291 673q69 0 62 -65l95 65q38 0 53 -17.5t8 -56.5l-32 -164l50 30l12 -15l-91 -58l-53 21l32 166q2 10 -1 17.5t-14 7.5q-8 0 -18.5 -4t-18.5 -8l-27 -15l-35 -177h-78l35 181q2 10 -1 17.5t-14 7.5q-8 0 -18.5 -4t-18.5 -8l-28 -15l-34 -179h-78l44 227l-49 -13l-8 18
l106 41l32 -29l-4 -20l-10 -20z" />
    <glyph glyph-name="osuperior" unicode="&#xf6f0;" horiz-adv-x="323" 
d="M233 673q24 0 45.5 -7t38 -21.5t26.5 -35t10 -47.5q0 -53 -31.5 -91t-91.5 -63l-40 -16q-24 0 -46 6.5t-38.5 20t-26 34t-9.5 47.5q0 53 32 90.5t91 64.5zM209 632q-29 -14 -42.5 -45.5t-13.5 -65.5q0 -40 17 -62t44 -29q29 14 42.5 46t13.5 66q0 40 -17 62t-44 28z" />
    <glyph glyph-name="rsuperior" unicode="&#xf6f1;" horiz-adv-x="253" 
d="M190 604l-21 -68l87 132h57l-18 -81h-35q-14 -7 -28.5 -17t-28.5 -25l-24 -23l-24 -122h-77l43 227l-48 -13l-8 18l106 41l26 -25z" />
    <glyph glyph-name="ssuperior" unicode="&#xf6f2;" horiz-adv-x="234" 
d="M123 392q-9 1 -20.5 4t-22.5 6.5t-20.5 7t-14.5 5.5l31 61l101 -46q15 3 15 14q0 7 -5 15.5t-22 21.5l-57 41q-13 11 -21 26t-8 30q0 21 16 37t54 33l51 25q16 -2 36.5 -7.5t42.5 -15.5l-33 -62q-20 13 -44.5 25t-46.5 22q-15 -5 -15 -14q0 -7 6 -13t22 -18l55 -41
q18 -13 25 -28t7 -28q0 -28 -16.5 -45t-45.5 -28l-70 -28v0z" />
    <glyph glyph-name="tsuperior" unicode="&#xf6f3;" horiz-adv-x="214" 
d="M168 439l78 26l9 -15l-116 -58l-53 21l40 206h-56l2 13l29 24h32l6 28l65 55h22l-16 -85h69l-7 -35h-69z" />
    <glyph glyph-name="apple" unicode="&#xf8ff;" horiz-adv-x="685" 
d="M635 460l-3 -41l-8 -35l-12 -31l-3 -156l-21 -7l-50 70l-27 -7l-19 -140l-32 4l-7 -4l-4 -94l30 -19l16 -14l-3 -15l-30 1l-24 18h-14l-8 8l7 76l-4 47l-61 1l-3 -52l-2 -56v-20l-15 -6l-8 6l-30 -10h-32l-1 11l11 11l50 21l-6 96l-98 -6l-147 140l-4 115l-13 10l-10 36
v26l15 8l-3 78l92 -62l9 47l10 36l22 35l28 35l39 29l40 15l38 14h22l-68 22l4 17h7l79 -20l-4 51l16 12h32l19 -5l29 -25l32 -8l32 -10l15 -13v-20l-20 -31l30 -28l28 -32l18 -34l15 -41zM525 399l-4 7h-205l-66 -3l-7 -9l-6 -44l-48 20l-11 -4l57 -27l1 -45l-5 -73v-91
l18 4l2 40l41 -3l3 9l-44 6v16l48 -6l1 9l-47 7l1 22l43 -3l3 6l-45 9l3 94h74l11 10h-79l2 9h74l8 7h-82l2 22l117 4l140 -4v11zM206 569l29 12l13 -15l-17 -20l-10 -3l17 -3h5l36 24h32l18 -12l8 3l4 14l7 5l10 -4v-18h8l10 22l11 8l-5 6l-3 8l1 21l-30 -10l-10 -8l-8 5
l4 21l14 10l11 11l38 -2l12 13l-4 8h-49l-45 -13l-53 -26l-29 -23zM616 465l-8 37l-19 50l-20 36l-23 28l-34 21h-11l17 -19l25 -10l11 -11l3 -33l-25 13l-15 -29l12 -8v-19l15 3l-12 26l15 -5l10 -20l-5 -12l-8 -7h-23l-3 11l-12 2l1 -22h-14l14 -18l-7 -10l-21 5l-3 -27
l41 6l8 17l22 -2l6 -28l-16 -13v-15l8 -6l18 12h23l6 11l-18 6l-5 9l9 42h7l14 -20zM102 434l57 -32l7 10l-68 38v18l59 -34l43 -28l28 -14l3 10l-103 64l-13 7l-41 33l2 -78l19 -17v-5h-21l19 -14l1 -11l-20 7l18 -18l-4 -7l3 -97l11 -12v180zM511 331l-54 1l-1 -24v-6
l-2 -31l19 -3l-8 -61l-48 3l-8 -6l51 -5l-2 -9h-49l-4 -5l53 -7l-6 -35l27 -1l12 79l4 36l-15 3l-1 8l20 1l5 3l-28 16l2 5l30 -6l-30 15l5 5l21 -5l4 10zM206 331l-66 39v-7l-2 -13l1 -27v-48l64 -44l-1 60zM380 214l-64 4v-51l64 -6v53zM532 306l8 -6l8 2l20 15l13 13
l11 18l-7 5h-14l-10 3l-14 7l-17 -3q-2 -13 -3 -24q-2 -9 -2.5 -17t-0.5 -7zM428 585l5 -6l19 11l8 -2l6 -24h13l6 6l-9 18l17 28l-15 9v5l-25 7v-20l-13 -5v-9l-9 -6zM433 336l4 30l-54 5l-3 -35h53zM366 455l-7 -11h-12l-5 7l11 8l-15 2v6l-23 4l3 -17l8 -14l20 -9l13 -1
l18 10l6 9l5 20l-30 2l7 -5zM589 312l-6 -3l-33 -27l39 -48v78zM244 454l1 4l14 2l-13 6l2 7l-20 -1l3 -19l14 -15l12 -6l11 5l16 12l6 12l2 13l-22 -4l6 -10l-12 -13l-14 -1zM394 281l-72 7l-6 -13l78 -4v10zM206 203l-74 50l20 -23l50 -41zM394 312h-73v-10h73v10z
M384 256l-68 4v-10h68v6zM515 359h-48v-13l44 4zM351 520l-4 -12l49 -17l3 4zM214 498l59 12l-4 12zM414 642l-8 -9v-19l12 -6l3 17zM491 530l-8 -4v-9l8 -3l2 7zM564 386l5 7v7l-10 -4v-10h5z" />
    <glyph glyph-name="AE.sc" horiz-adv-x="737" 
d="M261 264h110l39 213zM666 -1l-299 2l-105 -2v35l70 10l33 182h-125l-129 -182l65 -10l-10 -35l-87 2l-84 -2l2 35l58 8l331 468l70 -2l281 2v-130h-31l-35 85l-174 2l-36 -199l87 2l51 82h23l-30 -105l-7 -107h-23l-21 81l-87 3l-32 -181l185 2l63 94h33z" />
    <glyph glyph-name="AEacute.002" horiz-adv-x="878" 
d="M531 750l84 100h110l-136 -100h-58zM207 34l-12 -35l-113 3l-107 -3l2 35l79 11l410 656l81 -3l346 3v-171h-34l-43 120l-229 3l-46 -292l115 4l64 120h25l-38 -145l-9 -150h-25l-25 120l-115 4l-43 -268l241 3l80 146h38l-46 -196l-367 2l-132 -2v35l91 13l42 267h-153
l-162 -267zM309 361h136l48 294z" />
    <glyph glyph-name="AEacute.sc" horiz-adv-x="737" 
d="M453 560l50 99h102l-111 -99h-41zM261 264h110l39 213zM666 -1l-299 2l-105 -2v35l70 10l33 182h-125l-129 -182l65 -10l-10 -35l-87 2l-84 -2l2 35l58 8l331 468l70 -2l281 2v-130h-31l-35 85l-174 2l-36 -199l87 2l51 82h23l-30 -105l-7 -107h-23l-21 81l-87 3
l-32 -181l185 2l63 94h33z" />
    <glyph glyph-name="Aacute.002" horiz-adv-x="665" 
d="M436 750l84 100h110l-136 -100h-58zM501 2l-128 -3v35l87 13l-19 187h-220l-100 -187l85 -13l-10 -35l-108 3l-108 -3v35l80 11l367 653l67 20l71 -673l75 -11l-9 -35zM246 281h190l-24 240v72z" />
    <glyph glyph-name="Aacute.sc" horiz-adv-x="566" 
d="M368 560l50 99h102l-110 -99h-42zM409 1l-100 -2l1 35l66 10l-14 121h-176l-80 -121l66 -10l-9 -35l-84 2l-84 -2l1 35l59 8l294 459l71 22l54 -481l57 -8l-8 -35zM207 206h152l-18 181l1 49z" />
    <glyph glyph-name="Abreve.002" horiz-adv-x="665" 
d="M469 801q22 0 41 5.5t34.5 14t27 17.5t20.5 17l21 -10q-8 -9 -18 -22.5t-26 -27.5t-39.5 -29t-58.5 -27q-32 0 -53.5 10.5t-36 26.5t-23.5 34.5t-15 34.5l26 10q6 -8 13.5 -17t19.5 -17.5t28 -14t39 -5.5zM501 2l-128 -3v35l87 13l-19 187h-220l-100 -187l85 -13l-10 -35
l-108 3l-108 -3v35l80 11l367 653l67 20l71 -673l75 -11l-9 -35zM246 281h190l-24 240v72z" />
    <glyph glyph-name="Abreve.sc" horiz-adv-x="566" 
d="M392 618q36 0 60.5 13.5t38.5 22.5l19 -20q-8 -12 -16.5 -22.5t-21.5 -20t-32 -19t-47 -18.5q-25 0 -43.5 7t-31 18.5t-21 25.5t-13.5 29l26 20q10 -9 28 -22.5t54 -13.5zM409 1l-100 -2l1 35l66 10l-14 121h-176l-80 -121l66 -10l-9 -35l-84 2l-84 -2l1 35l59 8l294 459
l71 22l54 -481l57 -8l-8 -35zM207 206h152l-18 181l1 49z" />
    <glyph glyph-name="Acircumflex.002" horiz-adv-x="665" 
d="M328 750l124 100h83l90 -100h-58l-80 54l-101 -54h-58zM501 2l-128 -3v35l87 13l-19 187h-220l-100 -187l85 -13l-10 -35l-108 3l-108 -3v35l80 11l367 653l67 20l71 -673l75 -11l-9 -35zM246 281h190l-24 240v72z" />
    <glyph glyph-name="Acircumflex.sc" horiz-adv-x="566" 
d="M283 560l93 99h73l54 -99h-46l-55 48l-72 -48h-47zM409 1l-100 -2l1 35l66 10l-14 121h-176l-80 -121l66 -10l-9 -35l-84 2l-84 -2l1 35l59 8l294 459l71 22l54 -481l57 -8l-8 -35zM207 206h152l-18 181l1 49z" />
    <glyph glyph-name="Adieresis.002" horiz-adv-x="665" 
d="M381 852l56 -5v-45l-17 -45l-27 -5l-58 5l4 52l18 38zM585 852l56 -5v-45l-17 -45l-27 -5l-58 5l4 52l18 38zM501 2l-128 -3v35l87 13l-19 187h-220l-100 -187l85 -13l-10 -35l-108 3l-108 -3v35l80 11l367 653l67 20l71 -673l75 -11l-9 -35zM246 281h190l-24 240v72z
" />
    <glyph glyph-name="Adieresis.sc" horiz-adv-x="569" 
d="M324 647l41 -5v-42l-15 -37l-30 -5l-43 5l3 44l15 35zM493 647l41 -5v-42l-15 -37l-30 -5l-43 5l3 44l16 35zM409 1l-100 -2l1 35l66 10l-14 121h-176l-80 -121l66 -10l-9 -35l-84 2l-84 -2l1 35l59 8l294 459l71 22l54 -481l57 -8l-8 -35zM207 206h152l-18 181l1 49z
" />
    <glyph glyph-name="Agrave.002" horiz-adv-x="665" 
d="M445 750l-66 100h90l19 -100h-43zM501 2l-128 -3v35l87 13l-19 187h-220l-100 -187l85 -13l-10 -35l-108 3l-108 -3v35l80 11l367 653l67 20l71 -673l75 -11l-9 -35zM246 281h190l-24 240v72z" />
    <glyph glyph-name="Agrave.sc" horiz-adv-x="566" 
d="M368 560l-72 99h94l18 -99h-40zM409 1l-100 -2l1 35l66 10l-14 121h-176l-80 -121l66 -10l-9 -35l-84 2l-84 -2l1 35l59 8l294 459l71 22l54 -481l57 -8l-8 -35zM207 206h152l-18 181l1 49z" />
    <glyph glyph-name="Amacron.002" horiz-adv-x="665" 
d="M344 828h280l-9 -55h-280zM501 2l-128 -3v35l87 13l-19 187h-220l-100 -187l85 -13l-10 -35l-108 3l-108 -3v35l80 11l367 653l67 20l71 -673l75 -11l-9 -35zM246 281h190l-24 240v72z" />
    <glyph glyph-name="Amacron.sc" horiz-adv-x="566" 
d="M291 629h227l-8 -52h-227zM409 1l-100 -2l1 35l66 10l-14 121h-176l-80 -121l66 -10l-9 -35l-84 2l-84 -2l1 35l59 8l294 459l71 22l54 -481l57 -8l-8 -35zM207 206h152l-18 181l1 49z" />
    <glyph glyph-name="Aogonek.001" horiz-adv-x="665" 
d="M422 521v72l-170 -312h189zM445 234h-219l-105 -187l85 -13l-10 -35l-108 3l-108 -3v35l80 11l377 653l62 20l61 -673l75 -11l-9 -35l-143 3l-62 -77l-3 -13q-8 -36 18.5 -50t73.5 -14l-6 -33q-98 0 -137.5 25.5t-25.5 75.5l4 15l118 86z" />
    <glyph glyph-name="Aogonek.sc" horiz-adv-x="563" 
d="M210 206h151l-15 181l2 49zM403 -179q-82 0 -112.5 18t-22.5 55l8 49l102 77l-14 145h-175l-83 -121l65 -10l-8 -35l-85 2l-83 -2v35l59 8l301 459l68 22l48 -481l57 -8l-8 -35l-123 2l-57 -76l-5 -24q-5 -19 13 -34.5t60 -15.5z" />
    <glyph glyph-name="Aring.002" horiz-adv-x="665" 
d="M427 786q0 -18 12 -29t30 -11q19 0 30.5 11t11.5 29q0 17 -11.5 28t-30.5 11q-18 0 -30 -11t-12 -28zM469 718q-14 0 -28 3.5t-25.5 11.5t-18.5 20.5t-7 30.5q0 16 7 27.5t18 19t25 12.5t29 9q14 0 28 -3.5t25.5 -11.5t18.5 -20.5t7 -30.5q0 -17 -6.5 -28t-17.5 -18.5
t-25.5 -12.5t-29.5 -9zM501 2l-128 -3v35l87 13l-19 187h-220l-100 -187l85 -13l-10 -35l-108 3l-108 -3v35l80 11l367 653l67 20l71 -673l75 -11l-9 -35zM246 281h190l-24 240v72z" />
    <glyph glyph-name="Aring.sc" horiz-adv-x="566" 
d="M478 615q0 -21 -6.5 -32.5t-18 -19t-26.5 -12.5t-32 -11q-16 0 -32 3.5t-28.5 12t-20 23t-7.5 36.5q0 19 7 32t19 21.5t27.5 14t31.5 10.5q36 0 61 -16.5t25 -61.5zM348 615q0 -18 13 -29t32 -11t32 11t13 29t-13 30.5t-32 12.5t-32 -12.5t-13 -30.5zM409 1l-100 -2l1 35
l66 10l-14 121h-176l-80 -121l66 -10l-9 -35l-84 2l-84 -2l1 35l59 8l294 459l71 22l54 -481l57 -8l-8 -35zM207 206h152l-18 181l1 49z" />
    <glyph glyph-name="Aringacute.002" horiz-adv-x="665" 
d="M469 718q-14 0 -28 3.5t-25.5 11.5t-18.5 20.5t-7 30.5q0 16 7 27.5t18 19t25 12.5t29 9q28 0 51 -14l11 9l77 3l-67 -34q7 -14 7 -30q0 -17 -6.5 -28t-17.5 -18.5t-25.5 -12.5t-29.5 -9zM427 786q0 -18 12 -29t30 -11q19 0 30.5 11t11.5 29q0 17 -11.5 28t-30.5 11
q-18 0 -30 -11t-12 -28zM501 2l-128 -3v35l87 13l-19 187h-220l-100 -187l85 -13l-10 -35l-108 3l-108 -3v35l80 11l367 653l67 20l71 -673l75 -11l-9 -35zM246 281h190l-24 240v72z" />
    <glyph glyph-name="Aringacute.sc" horiz-adv-x="566" 
d="M478 615q0 -21 -6.5 -32.5t-18 -19t-26.5 -12.5t-32 -11q-16 0 -32 3.5t-28.5 12t-20 23t-7.5 36.5q0 19 7 32t19 21.5t27.5 14t32.5 10.5l16 33l88 3l-57 -46q17 -8 27.5 -24.5t10.5 -43.5zM348 615q0 -18 13 -29t32 -11t32 11t13 29t-13 30.5t-32 12.5t-32 -12.5
t-13 -30.5zM409 1l-100 -2l1 35l66 10l-14 121h-176l-80 -121l66 -10l-9 -35l-84 2l-84 -2l1 35l59 8l294 459l71 22l54 -481l57 -8l-8 -35zM207 206h152l-18 181l1 49z" />
    <glyph glyph-name="Atilde.002" horiz-adv-x="665" 
d="M376 830l69 19l137 -57l49 58h20l-43 -90l-67 -14l-138 57l-48 -58h-20zM501 2l-128 -3v35l87 13l-19 187h-220l-100 -187l85 -13l-10 -35l-108 3l-108 -3v35l80 11l367 653l67 20l71 -673l75 -11l-9 -35zM246 281h190l-24 240v72z" />
    <glyph glyph-name="Atilde.sc" horiz-adv-x="577" 
d="M312 642l57 16l116 -39l37 38h20l-37 -84l-55 -13l-117 40l-37 -38h-19zM409 1l-100 -2l1 35l66 10l-14 121h-176l-80 -121l66 -10l-9 -35l-84 2l-84 -2l1 35l59 8l294 459l71 22l54 -481l57 -8l-8 -35zM207 206h152l-18 181l1 49z" />
    <glyph glyph-name="B.sc" horiz-adv-x="506" 
d="M312 47q74 41 74 109q0 39 -25.5 66t-85.5 27h-59l-36 -202h132zM333 276q72 -8 112.5 -39.5t40.5 -74.5q0 -29 -12 -51.5t-31.5 -39t-46 -28.5t-54.5 -20l-64 -24l-156 2l-107 -2v35l71 10l77 424l-68 9l9 33l106 -2l140 2q37 0 63.5 -8.5t43.5 -22.5t25.5 -32.5
t8.5 -38.5q0 -43 -28.5 -74.5t-85.5 -45.5zM264 286q30 0 54.5 10t41 26t25.5 36t9 40q0 31 -18.5 52.5t-60.5 21.5h-59l-34 -186h42z" />
    <glyph glyph-name="C.sc" horiz-adv-x="532" 
d="M282 -13q-106 0 -166.5 58.5t-60.5 160.5q0 43 11.5 86t37.5 81.5t69.5 70t106.5 51.5l74 29q60 0 103 -17t65 -34l-3 -124h-45l-18 70q-18 17 -52 32.5t-90 21.5q-78 -32 -117.5 -95.5t-39.5 -148.5q0 -46 13 -80.5t35 -58.5t51.5 -37t61.5 -16q30 12 49.5 23t39.5 30
l47 83h47l-33 -137z" />
    <glyph glyph-name="Cacute.002" horiz-adv-x="616" 
d="M386 750l84 100h110l-136 -100h-58zM330 -18q-65 0 -116.5 21.5t-88 61.5t-56 97t-19.5 128q0 57 13.5 117t46 114.5t86 99t134.5 71.5l84 28q37 0 69.5 -7t59.5 -18.5t48 -25t35 -25.5l-5 -144h-53l-21 97q-22 22 -65.5 40t-115.5 29q-103 -45 -154.5 -136.5
t-51.5 -219.5q0 -68 17 -118.5t46.5 -84.5t68 -52t81.5 -21q38 14 62 28t48 35l59 119h55l-39 -168z" />
    <glyph glyph-name="Cacute.sc" horiz-adv-x="532" 
d="M340 560l50 99h97l-105 -99h-42zM282 -13q-106 0 -166.5 58.5t-60.5 160.5q0 43 11.5 86t37.5 81.5t69.5 70t106.5 51.5l74 29q60 0 103 -17t65 -34l-3 -124h-45l-18 70q-18 17 -52 32.5t-90 21.5q-78 -32 -117.5 -95.5t-39.5 -148.5q0 -46 13 -80.5t35 -58.5t51.5 -37
t61.5 -16q30 12 49.5 23t39.5 30l47 83h47l-33 -137z" />
    <glyph glyph-name="Ccaron.002" horiz-adv-x="616" 
d="M603 850l-124 -100h-83l-90 100h58l80 -54l101 54h58zM330 -18q-65 0 -116.5 21.5t-88 61.5t-56 97t-19.5 128q0 57 13.5 117t46 114.5t86 99t134.5 71.5l84 28q37 0 69.5 -7t59.5 -18.5t48 -25t35 -25.5l-5 -144h-53l-21 97q-22 22 -65.5 40t-115.5 29
q-103 -45 -154.5 -136.5t-51.5 -219.5q0 -68 17 -118.5t46.5 -84.5t68 -52t81.5 -21q38 14 62 28t48 35l59 119h55l-39 -168z" />
    <glyph glyph-name="Ccaron.sc" horiz-adv-x="532" 
d="M499 659l-92 -99h-73l-55 99h47l54 -47l72 47h47zM282 -13q-106 0 -166.5 58.5t-60.5 160.5q0 43 11.5 86t37.5 81.5t69.5 70t106.5 51.5l74 29q60 0 103 -17t65 -34l-3 -124h-45l-18 70q-18 17 -52 32.5t-90 21.5q-78 -32 -117.5 -95.5t-39.5 -148.5q0 -46 13 -80.5
t35 -58.5t51.5 -37t61.5 -16q30 12 49.5 23t39.5 30l47 83h47l-33 -137z" />
    <glyph glyph-name="Ccedilla.001" horiz-adv-x="616" 
d="M332 -17l-12 -15q26 -4 47.5 -15.5t21.5 -36.5q0 -16 -8 -28t-20 -21t-26.5 -15t-26.5 -10l-51 -17h-58l29 40h79q12 6 18.5 15.5t6.5 19.5t-7.5 16.5t-19 10.5t-26 6t-27.5 2l44 49q-57 5 -102.5 28.5t-77.5 63t-49 94t-17 120.5q0 57 13.5 117t46 114.5t86 99
t134.5 71.5l84 28q37 0 69.5 -7t59.5 -18.5t48 -25t35 -25.5l-5 -144h-53l-21 97q-22 22 -65.5 40t-115.5 29q-103 -45 -154.5 -136.5t-51.5 -219.5q0 -68 17 -118.5t46.5 -84.5t68 -52t81.5 -21q38 14 62 28t48 35l59 119h55l-39 -168z" />
    <glyph glyph-name="Ccedilla.sc" horiz-adv-x="532" 
d="M201 -179h-47l23 33h64q14 8 20.5 20t6.5 24t-6 20.5t-15.5 14t-21 7.5t-21.5 2l45 47q-91 11 -142.5 68t-51.5 149q0 43 11.5 86t37.5 81.5t69.5 70t106.5 51.5l74 29q60 0 103 -17t65 -34l-3 -124h-45l-18 70q-18 17 -52 32.5t-90 21.5q-78 -32 -117.5 -95.5
t-39.5 -148.5q0 -46 13 -80.5t35 -58.5t51.5 -37t61.5 -16q30 12 49.5 23t39.5 30l47 83h47l-33 -137l-186 -49l-19 -21q25 0 45 -12.5t20 -36.5q0 -18 -8.5 -31.5t-21 -23t-28 -16.5t-28.5 -12z" />
    <glyph glyph-name="Ccircumflex.002" horiz-adv-x="616" 
d="M291 750l124 100h83l90 -100h-58l-80 54l-101 -54h-58zM330 -18q-65 0 -116.5 21.5t-88 61.5t-56 97t-19.5 128q0 57 13.5 117t46 114.5t86 99t134.5 71.5l84 28q37 0 69.5 -7t59.5 -18.5t48 -25t35 -25.5l-5 -144h-53l-21 97q-22 22 -65.5 40t-115.5 29
q-103 -45 -154.5 -136.5t-51.5 -219.5q0 -68 17 -118.5t46.5 -84.5t68 -52t81.5 -21q38 14 62 28t48 35l59 119h55l-39 -168z" />
    <glyph glyph-name="Ccircumflex.sc" horiz-adv-x="532" 
d="M264 560l92 99h73l55 -99h-47l-54 48l-72 -48h-47zM282 -13q-106 0 -166.5 58.5t-60.5 160.5q0 43 11.5 86t37.5 81.5t69.5 70t106.5 51.5l74 29q60 0 103 -17t65 -34l-3 -124h-45l-18 70q-18 17 -52 32.5t-90 21.5q-78 -32 -117.5 -95.5t-39.5 -148.5q0 -46 13 -80.5
t35 -58.5t51.5 -37t61.5 -16q30 12 49.5 23t39.5 30l47 83h47l-33 -137z" />
    <glyph glyph-name="Cdotaccent.002" horiz-adv-x="616" 
d="M452 852l56 -5v-48l-17 -43l-27 -5l-63 5l4 50l18 41zM330 -18q-65 0 -116.5 21.5t-88 61.5t-56 97t-19.5 128q0 57 13.5 117t46 114.5t86 99t134.5 71.5l84 28q37 0 69.5 -7t59.5 -18.5t48 -25t35 -25.5l-5 -144h-53l-21 97q-22 22 -65.5 40t-115.5 29
q-103 -45 -154.5 -136.5t-51.5 -219.5q0 -68 17 -118.5t46.5 -84.5t68 -52t81.5 -21q38 14 62 28t48 35l59 119h55l-39 -168z" />
    <glyph glyph-name="Cdotaccent.sc" horiz-adv-x="532" 
d="M351 649l30 4l45 -5l-1 -46l-15 -39l-28 -5l-50 5l4 46zM282 -13q-106 0 -166.5 58.5t-60.5 160.5q0 43 11.5 86t37.5 81.5t69.5 70t106.5 51.5l74 29q60 0 103 -17t65 -34l-3 -124h-45l-18 70q-18 17 -52 32.5t-90 21.5q-78 -32 -117.5 -95.5t-39.5 -148.5
q0 -46 13 -80.5t35 -58.5t51.5 -37t61.5 -16q30 12 49.5 23t39.5 30l47 83h47l-33 -137z" />
    <glyph glyph-name="D.sc" horiz-adv-x="572" 
d="M254 470l-76 -422h133q30 15 57 37.5t47.5 52.5t33 67t12.5 82q0 42 -12 76t-32.5 57.5t-47.5 36.5t-57 13h-58zM124 1l-109 -2v35l69 10l76 424l-68 9l9 33l111 -2l134 2q50 0 90 -15.5t68 -43.5t43 -67t15 -85q0 -42 -13 -82.5t-40.5 -77t-71.5 -67.5t-106 -52l-65 -21
z" />
    <glyph glyph-name="Dcaron.002" horiz-adv-x="671" 
d="M542 850l-124 -100h-83l-90 100h58l80 -54l101 54h58zM277 658l-95 -600h176q39 21 75 53t63 74t43.5 93.5t16.5 111.5q0 66 -16 115.5t-43 82.5t-63 50t-77 20h-80zM123 2l-132 -3l-1 35l90 13l97 611l-90 9l10 34l132 -3l170 3q62 1 111.5 -19.5t84 -59.5t53 -94
t18.5 -123q0 -54 -15.5 -110.5t-50 -107.5t-88.5 -93.5t-131 -67.5l-81 -27z" />
    <glyph glyph-name="Dcaron.sc" horiz-adv-x="572" 
d="M433 659l-92 -99h-73l-54 99h46l54 -47l73 47h46zM232 470l-76 -422h133q30 15 57 37.5t47.5 52.5t33 67t12.5 82q0 42 -12 76t-32.5 57.5t-47.5 36.5t-57 13h-58zM102 1l-109 -2v35l69 10l76 424l-68 9l9 33l111 -2l134 2q50 0 90 -15.5t68 -43.5t43 -67t15 -85
q0 -42 -13 -82.5t-40.5 -77t-71.5 -67.5t-106 -52l-65 -21z" />
    <glyph glyph-name="Dcroat.sc" horiz-adv-x="572" 
d="M102 1l-109 -2v35l69 10l36 200h-67l7 41h67l33 183l-68 9l9 33l111 -2l134 2q50 0 90 -15.5t68 -43.5t43 -67t15 -85q0 -42 -13 -82.5t-40.5 -77t-71.5 -67.5t-106 -52l-65 -21zM232 470l-33 -185h94l-8 -41h-94l-35 -196h133q30 15 57 37.5t47.5 52.5t33 67t12.5 82
q0 42 -12 76t-32.5 57.5t-47.5 36.5t-57 13h-58z" />
    <glyph glyph-name="E.sc" horiz-adv-x="513" 
d="M513 510v-138h-32l-36 93l-190 2l-33 -178l105 3l49 77h28l-28 -102l-7 -101h-29l-19 78l-105 3l-38 -204l210 2l62 98h35l-37 -144l-324 2l-109 -2l1 35l69 10l77 423l-67 9l8 34l110 -2z" />
    <glyph glyph-name="Eacute.002" horiz-adv-x="590" 
d="M336 750l84 100h110l-136 -100h-58zM605 701v-171h-34l-44 121l-249 3l-42 -266l140 4l61 105h30l-35 -131l-9 -129h-30l-24 105l-140 4l-48 -300l271 3l77 135h38l-43 -185l-397 3l-137 -3v35l91 13l97 607l-88 13l10 34l138 -3z" />
    <glyph glyph-name="Eacute.sc" horiz-adv-x="513" 
d="M302 560l50 99h102l-111 -99h-41zM513 510v-138h-32l-36 93l-190 2l-33 -178l105 3l49 77h28l-28 -102l-7 -101h-29l-19 78l-105 3l-38 -204l210 2l62 98h35l-37 -144l-324 2l-109 -2l1 35l69 10l77 423l-67 9l8 34l110 -2z" />
    <glyph glyph-name="Ebreve.002" horiz-adv-x="590" 
d="M383 826q22 0 41 6t34.5 15t27 19.5t20.5 18.5l21 -20q-8 -10 -18 -23.5t-26 -28.5t-39.5 -30.5t-58.5 -28.5q-32 0 -54 11t-37 28t-25 36t-16 36l30 20q6 -8 13.5 -18.5t19.5 -19.5t28 -15t39 -6zM605 701v-171h-34l-44 121l-249 3l-42 -266l140 4l61 105h30l-35 -131
l-9 -129h-30l-24 105l-140 4l-48 -300l271 3l77 135h38l-43 -185l-397 3l-137 -3v35l91 13l97 607l-88 13l10 34l138 -3z" />
    <glyph glyph-name="Ebreve.sc" horiz-adv-x="513" 
d="M332 618q36 0 60 13.5t38 22.5l19 -20q-8 -12 -16.5 -22.5t-21 -20t-32 -19t-47.5 -18.5q-25 0 -43.5 7t-31 18.5t-20.5 25.5t-13 29l26 20q9 -9 27.5 -22.5t54.5 -13.5zM513 510v-138h-32l-36 93l-190 2l-33 -178l105 3l49 77h28l-28 -102l-7 -101h-29l-19 78l-105 3
l-38 -204l210 2l62 98h35l-37 -144l-324 2l-109 -2l1 35l69 10l77 423l-67 9l8 34l110 -2z" />
    <glyph glyph-name="Ecaron.002" horiz-adv-x="590" 
d="M543 850l-124 -100h-83l-90 100h58l80 -54l101 54h58zM605 701v-171h-34l-44 121l-249 3l-42 -266l140 4l61 105h30l-35 -131l-9 -129h-30l-24 105l-140 4l-48 -300l271 3l77 135h38l-43 -185l-397 3l-137 -3v35l91 13l97 607l-88 13l10 34l138 -3z" />
    <glyph glyph-name="Ecaron.sc" horiz-adv-x="513" 
d="M454 659l-92 -99h-73l-55 99h47l54 -47l72 47h47zM513 510v-138h-32l-36 93l-190 2l-33 -178l105 3l49 77h28l-28 -102l-7 -101h-29l-19 78l-105 3l-38 -204l210 2l62 98h35l-37 -144l-324 2l-109 -2l1 35l69 10l77 423l-67 9l8 34l110 -2z" />
    <glyph glyph-name="Ecircumflex.002" horiz-adv-x="590" 
d="M228 750l124 100h83l90 -100h-58l-80 54l-101 -54h-58zM605 701v-171h-34l-44 121l-249 3l-42 -266l140 4l61 105h30l-35 -131l-9 -129h-30l-24 105l-140 4l-48 -300l271 3l77 135h38l-43 -185l-397 3l-137 -3v35l91 13l97 607l-88 13l10 34l138 -3z" />
    <glyph glyph-name="Ecircumflex.sc" horiz-adv-x="513" 
d="M214 560l92 99h74l54 -99h-46l-55 48l-72 -48h-47zM513 510v-138h-32l-36 93l-190 2l-33 -178l105 3l49 77h28l-28 -102l-7 -101h-29l-19 78l-105 3l-38 -204l210 2l62 98h35l-37 -144l-324 2l-109 -2l1 35l69 10l77 423l-67 9l8 34l110 -2z" />
    <glyph glyph-name="Edieresis.002" horiz-adv-x="590" 
d="M283 852l56 -5v-45l-17 -45l-27 -5l-58 5l4 52l18 38zM487 852l56 -5v-45l-17 -45l-27 -5l-58 5l4 52l18 38zM605 701v-171h-34l-44 121l-249 3l-42 -266l140 4l61 105h30l-35 -131l-9 -129h-30l-24 105l-140 4l-48 -300l271 3l77 135h38l-43 -185l-397 3l-137 -3v35
l91 13l97 607l-88 13l10 34l138 -3z" />
    <glyph glyph-name="Edieresis.sc" horiz-adv-x="513" 
d="M258 647l41 -5l-1 -42l-15 -37l-30 -5l-42 5l3 44l15 35zM427 647l41 -5l-1 -42l-14 -37l-31 -5l-42 5l3 44l15 35zM513 510v-138h-32l-36 93l-190 2l-33 -178l105 3l49 77h28l-28 -102l-7 -101h-29l-19 78l-105 3l-38 -204l210 2l62 98h35l-37 -144l-324 2l-109 -2l1 35
l69 10l77 423l-67 9l8 34l110 -2z" />
    <glyph glyph-name="Edotaccent.002" horiz-adv-x="590" 
d="M392 852l56 -5v-48l-17 -43l-27 -5l-63 5l4 50l18 41zM605 701v-171h-34l-44 121l-249 3l-42 -266l140 4l61 105h30l-35 -131l-9 -129h-30l-24 105l-140 4l-48 -300l271 3l77 135h38l-43 -185l-397 3l-137 -3v35l91 13l97 607l-88 13l10 34l138 -3z" />
    <glyph glyph-name="Edotaccent.sc" horiz-adv-x="513" 
d="M301 644l30 4l45 -5l-1 -46l-15 -39l-28 -5l-49 5l3 47zM513 510v-138h-32l-36 93l-190 2l-33 -178l105 3l49 77h28l-28 -102l-7 -101h-29l-19 78l-105 3l-38 -204l210 2l62 98h35l-37 -144l-324 2l-109 -2l1 35l69 10l77 423l-67 9l8 34l110 -2z" />
    <glyph glyph-name="Egrave.002" horiz-adv-x="590" 
d="M375 750l-66 100h90l19 -100h-43zM605 701v-171h-34l-44 121l-249 3l-42 -266l140 4l61 105h30l-35 -131l-9 -129h-30l-24 105l-140 4l-48 -300l271 3l77 135h38l-43 -185l-397 3l-137 -3v35l91 13l97 607l-88 13l10 34l138 -3z" />
    <glyph glyph-name="Egrave.sc" horiz-adv-x="513" 
d="M318 560l-72 99h94l18 -99h-40zM513 510v-138h-32l-36 93l-190 2l-33 -178l105 3l49 77h28l-28 -102l-7 -101h-29l-19 78l-105 3l-38 -204l210 2l62 98h35l-37 -144l-324 2l-109 -2l1 35l69 10l77 423l-67 9l8 34l110 -2z" />
    <glyph glyph-name="Emacron.002" horiz-adv-x="590" 
d="M264 828h280l-9 -55h-280zM605 701v-171h-34l-44 121l-249 3l-42 -266l140 4l61 105h30l-35 -131l-9 -129h-30l-24 105l-140 4l-48 -300l271 3l77 135h38l-43 -185l-397 3l-137 -3v35l91 13l97 607l-88 13l10 34l138 -3z" />
    <glyph glyph-name="Emacron.sc" horiz-adv-x="513" 
d="M224 629h228l-8 -52h-228zM513 510v-138h-32l-36 93l-190 2l-33 -178l105 3l49 77h28l-28 -102l-7 -101h-29l-19 78l-105 3l-38 -204l210 2l62 98h35l-37 -144l-324 2l-109 -2l1 35l69 10l77 423l-67 9l8 34l110 -2z" />
    <glyph glyph-name="Eng.001" horiz-adv-x="706" 
d="M140 47l83 -13l-10 -35l-107 3l-116 -3v35l90 13l95 599l-83 20l10 35l93 -3l69 3l251 -490l17 -76l77 518l-83 13l10 35l107 -3l118 3v-35l-92 -13l-103 -653l-98 -170h-121l15 83h81l41 53l50 34h-24l-270 536l-10 82z" />
    <glyph glyph-name="Eng.sc" horiz-adv-x="596" 
d="M136 44l66 -10l-8 -35l-88 2l-91 -2l1 35l69 10l75 422l-64 9l9 35l73 -2l65 2l195 -307l13 -75l58 338l-63 9l8 35l84 -2l93 2v-35l-71 -9l-82 -466l-109 -173h-101l13 70h61l70 82l41 21h-28l-211 355l-10 74z" />
    <glyph glyph-name="Eogonek.001" horiz-adv-x="590" 
d="M605 701v-171h-34l-44 121l-249 3l-42 -266l140 4l61 105h30l-35 -131l-9 -129h-30l-24 105l-140 4l-48 -300l271 3l77 135h38l-43 -185l-57 1l-59 -75l-3 -13q-8 -36 18.5 -50t73.5 -14l-6 -33q-98 0 -137.5 25.5t-25.5 75.5l4 15l95 69l-300 2l-137 -3v35l91 13l97 607
l-88 13l10 34l138 -3z" />
    <glyph glyph-name="Eogonek.sc" horiz-adv-x="513" 
d="M408 -179q-82 0 -112.5 18t-22.5 55l7 49l81 57l-237 1l-109 -2l1 35l69 10l77 423l-67 9l8 34l110 -2l300 2v-138h-32l-36 93l-190 2l-33 -178l105 3l49 77h28l-28 -102l-7 -101h-29l-19 78l-105 3l-38 -204l210 2l62 98h35l-37 -144l-50 1l-53 -75l-5 -24
q-5 -19 13 -34.5t60 -15.5z" />
    <glyph glyph-name="Eth.sc" horiz-adv-x="572" 
d="M102 1l-109 -2v35l69 10l36 202h-67l7 39h67l33 183l-68 9l9 33l111 -2l134 2q50 0 90 -15.5t68 -43.5t43 -67t15 -85q0 -42 -13 -82.5t-40.5 -77t-71.5 -67.5t-106 -52l-65 -21zM232 470l-34 -185h95l-8 -39h-94l-35 -198h133q30 15 57 37.5t47.5 52.5t33 67t12.5 82
q0 42 -12 76t-32.5 57.5t-47.5 36.5t-57 13h-58z" />
    <glyph glyph-name="Euro.sc" horiz-adv-x="495" 
d="M362 475q-57 -15 -101.5 -54t-67.5 -92h252l-34 -50h-229q-5 -24 -6 -49h200l-34 -49h-163q4 -33 16.5 -57.5t31 -40t42 -23.5t49.5 -8q19 0 38.5 4t37.5 10t33 12.5t27 12.5l17 -31q-9 -7 -26 -16.5t-39.5 -19.5t-49.5 -19.5t-57 -16.5q-95 0 -153 51.5t-66 141.5h-60
l8 49h51q2 27 7 49h-47l8 50h53q29 58 89.5 103.5t157.5 71.5l58 19q18 -2 36 -8t35 -14.5t31 -17.5t23 -16l-44 -58q-9 8 -24.5 18.5t-33 20t-35 17.5t-31.5 10z" />
    <glyph glyph-name="Euro.tlf" 
d="M425 663q-38 -8 -73 -28t-64.5 -48.5t-53 -65t-39.5 -76.5h329l-39 -55h-303q-4 -20 -6 -40t-2 -40h266l-39 -55h-224q5 -44 20.5 -80t39 -62.5t54 -41t65.5 -14.5q25 0 49.5 6t47 15t41.5 19.5t34 18.5l19 -29q-11 -8 -29.5 -20.5t-45 -27.5t-59 -30t-71.5 -27
q-58 0 -105.5 19t-82.5 54.5t-56.5 86t-26.5 113.5h-75l9 55h64q2 41 9 80h-58l9 55h64q37 91 115 155.5t204 98.5l70 19q21 -6 42 -15.5t39.5 -20t34.5 -20.5t26 -17l-53 -72q-12 11 -30 25t-38.5 26.5t-41 23t-36.5 15.5z" />
    <glyph glyph-name="Euro.tlf.sc" 
d="M397 475q-57 -15 -101.5 -54t-67.5 -92h252l-34 -50h-229q-5 -24 -6 -49h200l-34 -49h-163q4 -33 16.5 -57.5t31 -40t42 -23.5t49.5 -8q19 0 38.5 4t37.5 10t33 12.5t27 12.5l17 -31q-9 -7 -26 -16.5t-39.5 -19.5t-49.5 -19.5t-57 -16.5q-95 0 -153 51.5t-66 141.5h-60
l8 49h51q2 27 7 49h-47l8 50h53q29 58 89.5 103.5t157.5 71.5l58 19q18 -2 36 -8t35 -14.5t31 -17.5t23 -16l-44 -58q-9 8 -24.5 18.5t-33 20t-35 17.5t-31.5 10z" />
    <glyph glyph-name="F.sc" horiz-adv-x="473" 
d="M276 34l-9 -35l-139 2l-113 -2l1 35l69 10l77 423l-67 9l8 34l110 -2l300 2v-142h-32l-36 97l-190 2l-35 -190l105 3l49 78h28l-28 -102l-7 -102h-28l-20 78l-105 3l-36 -192z" />
    <glyph glyph-name="G.sc" horiz-adv-x="555" 
d="M415 194l-66 10l9 36l106 -1l96 2v-37l-52 -10l-28 -151l-197 -56q-105 0 -166.5 57t-61.5 160q0 43 13.5 86.5t42.5 82.5t76 72t115 54l64 24q57 0 99.5 -16.5t64.5 -33.5l-1 -122h-46l-19 69q-18 22 -55.5 37t-79.5 17q-78 -31 -125 -92.5t-47 -152.5q0 -48 12.5 -82.5
t34 -58t50.5 -36t61 -15.5q22 4 42 9.5t34 11.5z" />
    <glyph glyph-name="Gbreve.002" horiz-adv-x="660" 
d="M422 801q22 0 41 5.5t34.5 14t27 17.5t20.5 17l21 -10q-8 -9 -18 -22.5t-26 -27.5t-39.5 -29t-58.5 -27q-32 0 -53.5 10.5t-36 26.5t-23.5 34.5t-15 34.5l26 10q6 -8 13.5 -17t19.5 -17.5t28 -14t39 -5.5zM487 280l-84 13l10 32h125l117 3v-35l-68 -13l-36 -227l-238 -71
q-65 0 -117 20t-89 58t-57 93.5t-20 126.5q0 58 16.5 120t53 118.5t95 103t143.5 72.5l77 24q34 0 65 -7t56.5 -18t46 -24.5t33.5 -26.5l-2 -137h-53l-24 93q-10 12 -27.5 24t-39.5 22t-47.5 16t-51.5 6q-52 -23 -94.5 -54.5t-73 -75.5t-47 -101t-16.5 -130
q0 -68 16.5 -117.5t45 -83t67 -50.5t81.5 -20q32 11 59.5 24.5t46.5 27.5z" />
    <glyph glyph-name="Gbreve.sc" horiz-adv-x="555" 
d="M377 618q36 0 60 13.5t38 22.5l19 -20q-8 -12 -16.5 -22.5t-21 -20t-31.5 -19t-47 -18.5q-26 0 -44 7t-31 18.5t-21 25.5t-13 29l26 20q9 -9 27.5 -22.5t54.5 -13.5zM415 194l-66 10l9 36l106 -1l96 2v-37l-52 -10l-28 -151l-197 -56q-105 0 -166.5 57t-61.5 160
q0 43 13.5 86.5t42.5 82.5t76 72t115 54l64 24q57 0 99.5 -16.5t64.5 -33.5l-1 -122h-46l-19 69q-18 22 -55.5 37t-79.5 17q-78 -31 -125 -92.5t-47 -152.5q0 -48 12.5 -82.5t34 -58t50.5 -36t61 -15.5q22 4 42 9.5t34 11.5z" />
    <glyph glyph-name="Gcircumflex.002" horiz-adv-x="660" 
d="M291 750l124 100h83l90 -100h-58l-80 54l-101 -54h-58zM487 280l-84 13l10 32h125l117 3v-35l-68 -13l-36 -227l-238 -71q-65 0 -117 20t-89 58t-57 93.5t-20 126.5q0 58 16.5 120t53 118.5t95 103t143.5 72.5l77 24q34 0 65 -7t56.5 -18t46 -24.5t33.5 -26.5l-2 -137
h-53l-24 93q-10 12 -27.5 24t-39.5 22t-47.5 16t-51.5 6q-52 -23 -94.5 -54.5t-73 -75.5t-47 -101t-16.5 -130q0 -68 16.5 -117.5t45 -83t67 -50.5t81.5 -20q32 11 59.5 24.5t46.5 27.5z" />
    <glyph glyph-name="Gcircumflex.sc" horiz-adv-x="555" 
d="M262 560l92 99h73l55 -99h-47l-54 48l-73 -48h-46zM415 194l-66 10l9 36l106 -1l96 2v-37l-52 -10l-28 -151l-197 -56q-105 0 -166.5 57t-61.5 160q0 43 13.5 86.5t42.5 82.5t76 72t115 54l64 24q57 0 99.5 -16.5t64.5 -33.5l-1 -122h-46l-19 69q-18 22 -55.5 37
t-79.5 17q-78 -31 -125 -92.5t-47 -152.5q0 -48 12.5 -82.5t34 -58t50.5 -36t61 -15.5q22 4 42 9.5t34 11.5z" />
    <glyph glyph-name="Gcommaaccent.001" horiz-adv-x="660" 
d="M283 -94l-33 24l6 35h100l-11 -63l-78 -75l-28 12zM487 280l-84 13l10 32h125l117 3v-35l-68 -13l-36 -227l-238 -71q-65 0 -117 20t-89 58t-57 93.5t-20 126.5q0 58 16.5 120t53 118.5t95 103t143.5 72.5l77 24q34 0 65 -7t56.5 -18t46 -24.5t33.5 -26.5l-2 -137h-53
l-24 93q-10 12 -27.5 24t-39.5 22t-47.5 16t-51.5 6q-52 -23 -94.5 -54.5t-73 -75.5t-47 -101t-16.5 -130q0 -68 16.5 -117.5t45 -83t67 -50.5t81.5 -20q32 11 59.5 24.5t46.5 27.5z" />
    <glyph glyph-name="Gcommaaccent.sc" horiz-adv-x="555" 
d="M228 -66l5 30h87l-11 -59l-70 -89l-31 7l33 86zM315 37q22 4 42 9.5t34 11.5l24 136l-66 10l9 36l106 -1l96 2v-37l-52 -10l-28 -151l-197 -56q-105 0 -166.5 57t-61.5 160q0 43 13.5 86.5t42.5 82.5t76 72t115 54l64 24q57 0 99.5 -16.5t64.5 -33.5l-1 -122h-46l-19 69
q-18 22 -55.5 37t-79.5 17q-78 -31 -125 -92.5t-47 -152.5q0 -48 12.5 -82.5t34 -58t50.5 -36t61 -15.5z" />
    <glyph glyph-name="Gdotaccent.002" horiz-adv-x="660" 
d="M452 852l56 -5v-48l-17 -43l-27 -5l-63 5l4 50l18 41zM487 280l-84 13l10 32h125l117 3v-35l-68 -13l-36 -227l-238 -71q-65 0 -117 20t-89 58t-57 93.5t-20 126.5q0 58 16.5 120t53 118.5t95 103t143.5 72.5l77 24q34 0 65 -7t56.5 -18t46 -24.5t33.5 -26.5l-2 -137h-53
l-24 93q-10 12 -27.5 24t-39.5 22t-47.5 16t-51.5 6q-52 -23 -94.5 -54.5t-73 -75.5t-47 -101t-16.5 -130q0 -68 16.5 -117.5t45 -83t67 -50.5t81.5 -20q32 11 59.5 24.5t46.5 27.5z" />
    <glyph glyph-name="Gdotaccent.sc" horiz-adv-x="555" 
d="M361 649l30 4l44 -5v-46l-15 -39l-28 -5l-50 5l4 46zM415 194l-66 10l9 36l106 -1l96 2v-37l-52 -10l-28 -151l-197 -56q-105 0 -166.5 57t-61.5 160q0 43 13.5 86.5t42.5 82.5t76 72t115 54l64 24q57 0 99.5 -16.5t64.5 -33.5l-1 -122h-46l-19 69q-18 22 -55.5 37
t-79.5 17q-78 -31 -125 -92.5t-47 -152.5q0 -48 12.5 -82.5t34 -58t50.5 -36t61 -15.5q22 4 42 9.5t34 11.5z" />
    <glyph glyph-name="H.sc" horiz-adv-x="593" 
d="M94 476l9 34l111 -2l107 2v-34l-66 -10l-34 -182h213l33 182l-64 10l8 34l111 -2l106 2v-34l-67 -10l-77 -422l64 -10l-8 -35l-107 2l-111 -2l1 35l67 10l37 199h-212l-36 -199l62 -10l-9 -35l-106 2l-111 -2l1 35l69 10l76 422z" />
    <glyph glyph-name="Hbar.sc" horiz-adv-x="593" 
d="M94 476l9 34l111 -2l107 2v-34l-66 -10l-18 -95h212l18 95l-64 10l8 34l111 -2l106 2v-34l-67 -10l-77 -422l64 -10l-8 -35l-107 2l-111 -2l1 35l67 10l37 199h-212l-36 -199l62 -10l-9 -35l-106 2l-111 -2l1 35l69 10l76 422zM434 284l9 53h-212l-10 -53h213z" />
    <glyph glyph-name="Hcircumflex.002" horiz-adv-x="694" 
d="M286 750l124 100h83l90 -100h-58l-80 54l-101 -54h-58zM89 666l10 35l135 -3l130 3v-35l-87 -13l-43 -265h281l42 265l-86 13l10 35l136 -3l127 3v-35l-87 -13l-97 -606l83 -13l-10 -35l-127 3l-136 -3v35l90 13l47 291h-281l-46 -291l83 -13l-10 -35l-130 3l-133 -3v35
l90 13l97 606z" />
    <glyph glyph-name="Hcircumflex.sc" horiz-adv-x="593" 
d="M262 560l92 99h73l55 -99h-46l-55 48l-72 -48h-47zM94 476l9 34l111 -2l107 2v-34l-66 -10l-34 -182h213l33 182l-64 10l8 34l111 -2l106 2v-34l-67 -10l-77 -422l64 -10l-8 -35l-107 2l-111 -2l1 35l67 10l37 199h-212l-36 -199l62 -10l-9 -35l-106 2l-111 -2l1 35
l69 10l76 422z" />
    <glyph glyph-name="I.sc" horiz-adv-x="287" 
d="M178 44l64 -10l-9 -35l-109 2l-109 -2l1 35l69 10l76 422l-67 9l9 35l111 -2l108 2v-35l-68 -9z" />
    <glyph glyph-name="IJ.sc" horiz-adv-x="501" 
d="M171 -127l15 77h81q20 22 29 47t17 61l72 409l-47 9l9 35l89 -2l110 2l-1 -35l-67 -9l-71 -393q-4 -24 -10 -43.5t-15 -36t-21.5 -31.5t-29.5 -30l-94 -60h-66zM178 44l61 -10l-9 -35l-106 2l-109 -2l1 35l69 10l77 423l-68 9l9 35l112 -2l87 2l-1 -35l-46 -9z" />
    <glyph glyph-name="Iacute.002" horiz-adv-x="314" 
d="M197 750l84 100h110l-136 -100h-58zM180 47l83 -13l-10 -35l-132 3l-131 -3v35l90 13l97 606l-88 13l10 35l133 -3l132 3v-35l-87 -13z" />
    <glyph glyph-name="Iacute.sc" horiz-adv-x="287" 
d="M196 560l50 99h103l-111 -99h-42zM178 44l64 -10l-9 -35l-109 2l-109 -2l1 35l69 10l76 422l-67 9l9 35l111 -2l108 2v-35l-68 -9z" />
    <glyph glyph-name="Ibreve.002" horiz-adv-x="314" 
d="M250 801q22 0 41 5.5t34.5 14t27 17.5t20.5 17l21 -10q-8 -9 -18 -22.5t-26 -27.5t-39.5 -29t-58.5 -27q-32 0 -53.5 10.5t-36 26.5t-23.5 34.5t-15 34.5l26 10q6 -8 13.5 -17t19.5 -17.5t28 -14t39 -5.5zM180 47l83 -13l-10 -35l-132 3l-131 -3v35l90 13l97 606l-88 13
l10 35l133 -3l132 3v-35l-87 -13z" />
    <glyph glyph-name="Ibreve.sc" horiz-adv-x="287" 
d="M235 618q36 0 60 13.5t38 22.5l19 -20q-8 -12 -16.5 -22.5t-21 -20t-31.5 -19t-47 -18.5q-26 0 -44 7t-31 18.5t-21 25.5t-13 29l26 20q9 -9 27.5 -22.5t54.5 -13.5zM178 44l64 -10l-9 -35l-109 2l-109 -2l1 35l69 10l76 422l-67 9l9 35l111 -2l108 2v-35l-68 -9z" />
    <glyph glyph-name="Icircumflex.002" horiz-adv-x="314" 
d="M89 750l124 100h83l90 -100h-58l-80 54l-101 -54h-58zM180 47l83 -13l-10 -35l-132 3l-131 -3v35l90 13l97 606l-88 13l10 35l133 -3l132 3v-35l-87 -13z" />
    <glyph glyph-name="Icircumflex.sc" horiz-adv-x="287" 
d="M110 560l93 99h73l54 -99h-46l-55 48l-72 -48h-47zM178 44l64 -10l-9 -35l-109 2l-109 -2l1 35l69 10l76 422l-67 9l9 35l111 -2l108 2v-35l-68 -9z" />
    <glyph glyph-name="Idieresis.002" horiz-adv-x="314" 
d="M156 852l51 -5v-45l-17 -40l-22 -5l-58 5l4 47l18 38zM340 852l51 -5v-45l-17 -40l-22 -5l-58 5l4 47l18 38zM180 47l83 -13l-10 -35l-132 3l-131 -3v35l90 13l97 606l-88 13l10 35l133 -3l132 3v-35l-87 -13z" />
    <glyph glyph-name="Idieresis.sc" horiz-adv-x="287" 
d="M157 647l38 -5l-1 -42l-15 -36l-27 -5l-42 5l3 43l15 35zM310 647l38 -5l-1 -42l-14 -36l-28 -5l-42 5l3 43l15 35zM254 466l-76 -422l64 -10l-9 -35l-109 2l-109 -2l1 35l69 10l76 422l-67 9l9 35l111 -2l108 2v-35z" />
    <glyph glyph-name="Idotaccent.002" horiz-adv-x="314" 
d="M253 852l56 -5v-48l-17 -43l-27 -5l-63 5l4 50l18 41zM180 47l83 -13l-10 -35l-132 3l-131 -3v35l90 13l97 606l-88 13l10 35l133 -3l132 3v-35l-87 -13z" />
    <glyph glyph-name="Idotaccent.sc" horiz-adv-x="287" 
d="M201 644l30 4l44 -5v-46l-15 -39l-28 -5l-50 5l4 47zM178 44l64 -10l-9 -35l-109 2l-109 -2l1 35l69 10l76 422l-67 9l9 35l111 -2l108 2v-35l-68 -9z" />
    <glyph glyph-name="Igrave.002" horiz-adv-x="314" 
d="M224 750l-66 100h90l19 -100h-43zM180 47l83 -13l-10 -35l-132 3l-131 -3v35l90 13l97 606l-88 13l10 35l133 -3l132 3v-35l-87 -13z" />
    <glyph glyph-name="Igrave.sc" horiz-adv-x="287" 
d="M201 560l-72 99h94l18 -99h-40zM178 44l64 -10l-9 -35l-109 2l-109 -2l1 35l69 10l76 422l-67 9l9 35l111 -2l108 2v-35l-68 -9z" />
    <glyph glyph-name="Imacron.002" horiz-adv-x="314" 
d="M111 828h280l-9 -55h-280zM180 47l83 -13l-10 -35l-132 3l-131 -3v35l90 13l97 606l-88 13l10 35l133 -3l132 3v-35l-87 -13z" />
    <glyph glyph-name="Imacron.sc" horiz-adv-x="287" 
d="M120 629h227l-8 -52h-227zM178 44l64 -10l-9 -35l-109 2l-109 -2l1 35l69 10l76 422l-67 9l9 35l111 -2l108 2v-35l-68 -9z" />
    <glyph glyph-name="Iogonek.001" horiz-adv-x="314" 
d="M180 47l83 -13l-10 -35l-97 2l-61 -76l-3 -13q-8 -36 18.5 -50t73.5 -14l-6 -33q-98 0 -137.5 25.5t-25.5 75.5l4 15l98 71l-127 -3v35l90 13l97 606l-88 13l10 35l133 -3l132 3v-35l-87 -13z" />
    <glyph glyph-name="Iogonek.sc" horiz-adv-x="287" 
d="M178 44l64 -10l-9 -35l-96 2l-42 -77l-5 -24q-5 -18 13 -33.5t61 -15.5l-6 -31q-81 0 -111.5 18.5t-23.5 55.5l8 48l66 58l-82 -1l1 35l69 10l76 422l-67 9l9 35l111 -2l108 2v-35l-68 -9z" />
    <glyph glyph-name="Itilde.002" horiz-adv-x="314" 
d="M130 830l69 19l137 -57l49 58h20l-43 -90l-67 -14l-138 57l-48 -58h-20zM180 47l83 -13l-10 -35l-132 3l-131 -3v35l90 13l97 606l-88 13l10 35l133 -3l132 3v-35l-87 -13z" />
    <glyph glyph-name="Itilde.sc" horiz-adv-x="287" 
d="M133 642l57 16l116 -39l38 38h19l-36 -84l-55 -13l-117 40l-37 -38h-19zM178 44l64 -10l-9 -35l-109 2l-109 -2l1 35l69 10l76 422l-67 9l9 35l111 -2l108 2v-35l-68 -9z" />
    <glyph glyph-name="J.sc" horiz-adv-x="270" 
d="M-60 -127l15 77h80q21 22 30 47t17 61l71 408l-70 9l9 35l113 -2l110 2l-1 -35l-67 -9l-71 -392q-8 -48 -25.5 -79t-50.5 -62l-94 -60h-66z" />
    <glyph glyph-name="Jcircumflex.002" horiz-adv-x="312" 
d="M96 750l124 100h83l90 -100h-58l-80 54l-101 -54h-58zM-80 -175l17 82h102q13 18 21.5 35t14.5 37.5t10.5 46t9.5 59.5l90 568l-88 13l10 35l133 -3l132 3v-35l-87 -13l-89 -563q-10 -64 -26 -101.5t-50 -65.5l-121 -98h-79z" />
    <glyph glyph-name="Jcircumflex.sc" horiz-adv-x="270" 
d="M95 560l92 99h73l54 -99h-46l-54 48l-73 -48h-46zM-60 -127l15 77h80q21 22 30 47t17 61l71 408l-70 9l9 35l113 -2l110 2l-1 -35l-67 -9l-71 -392q-8 -48 -25.5 -79t-50.5 -62l-94 -60h-66z" />
    <glyph glyph-name="K.sc" horiz-adv-x="581" 
d="M222 278l21 11l218 177l-51 12l5 32l93 -2l83 2v-29l-69 -19l-234 -180l24 -14l196 -226l41 -9l-9 -34l-62 2l-64 -2l-184 233l-11 27l-40 -215l56 -10l-9 -35l-101 2l-110 -2l1 35l70 10l76 422l-67 9l9 35l111 -2l100 2l-1 -35l-59 -9z" />
    <glyph glyph-name="Kcommaaccent.001" horiz-adv-x="677" 
d="M299 -94l-33 24l8 45h100l-13 -73l-78 -75l-28 12zM236 388l25 16l276 249l-62 13l5 35l115 -3l97 3v-35l-86 -13l-294 -263l25 -16l252 -325l51 -15l-10 -35l-75 3l-68 -3l-241 341l-13 30l-51 -323l73 -13l-11 -35l-121 3l-133 -3l1 35l91 13l95 606l-87 13l10 35
l132 -3l122 3v-35l-76 -13z" />
    <glyph glyph-name="Kcommaaccent.sc" horiz-adv-x="581" 
d="M237 -66l6 30h86l-11 -59l-70 -89l-31 7l34 86zM222 278l21 11l218 177l-51 12l5 32l93 -2l83 2v-29l-69 -19l-234 -180l24 -14l196 -226l41 -9l-9 -34l-62 2l-64 -2l-184 233l-11 27l-40 -215l56 -10l-9 -35l-101 2l-110 -2l1 35l70 10l76 422l-67 9l9 35l111 -2l100 2
l-1 -35l-59 -9z" />
    <glyph glyph-name="L.sc" horiz-adv-x="477" 
d="M209 508l117 2l-1 -35l-70 -9l-77 -423l180 2l75 104h34l-49 -150l-294 2l-109 -2l1 35l69 10l77 422l-68 9l9 35z" />
    <glyph glyph-name="Lacute.002" horiz-adv-x="554" 
d="M197 750l84 100h110l-136 -100h-58zM232 698l137 3v-35l-92 -13l-97 -607l231 3l95 136h38l-61 -186l-357 3l-136 -3v35l90 13l97 606l-88 13l10 35z" />
    <glyph glyph-name="Lacute.sc" horiz-adv-x="477" 
d="M193 560l50 99h103l-111 -99h-42zM209 508l117 2l-1 -35l-70 -9l-77 -423l180 2l75 104h34l-49 -150l-294 2l-109 -2l1 35l69 10l77 422l-68 9l9 35z" />
    <glyph glyph-name="Lcaron.sc" horiz-adv-x="477" 
d="M476 516l29 -5l-4 -48l-11 -42l-75 -113l-29 14q6 9 13.5 22.5t15 27.5t12.5 26.5t7 19.5l-33 3l4 49l15 41zM209 508l117 2l-1 -35l-70 -9l-77 -423l180 2l75 104h34l-49 -150l-294 2l-109 -2l1 35l69 10l77 422l-68 9l9 35z" />
    <glyph glyph-name="Lcommaaccent.001" horiz-adv-x="554" 
d="M232 -94l-33 24l8 45h100l-13 -73l-78 -75l-28 12zM232 698l137 3v-35l-92 -13l-97 -607l231 3l95 136h38l-61 -186l-357 3l-136 -3v35l90 13l97 606l-88 13l10 35z" />
    <glyph glyph-name="Lcommaaccent.sc" horiz-adv-x="477" 
d="M177 -66l5 30h87l-11 -59l-70 -89l-31 7l33 86zM209 508l117 2l-1 -35l-70 -9l-77 -423l180 2l75 104h34l-49 -150l-294 2l-109 -2l1 35l69 10l77 422l-68 9l9 35z" />
    <glyph glyph-name="Ldot.sc" horiz-adv-x="477" 
d="M371 345l24 -6l-3 -49l-13 -44l-65 -4l-25 4l5 51l12 42zM209 508l117 2l-1 -35l-70 -9l-77 -423l180 2l75 104h34l-49 -150l-294 2l-109 -2l1 35l69 10l77 422l-68 9l9 35z" />
    <glyph glyph-name="Lslash.sc" horiz-adv-x="477" 
d="M209 508l117 2l-1 -35l-70 -9l-26 -141l81 36l-8 -51l-82 -37l-42 -230l180 2l75 104h34l-49 -150l-294 2l-109 -2l1 35l69 10l33 184l-70 -31l8 51l72 32l34 186l-68 9l9 35z" />
    <glyph glyph-name="M.sc" horiz-adv-x="730" 
d="M134 44l63 -10l-8 -35l-86 2l-88 -2l1 35l63 10l75 420l-69 11l9 35l92 -2l94 2l83 -354l-4 -61l231 415l83 -2l92 2l-1 -35l-67 -9l-77 -422l61 -10l-9 -35l-99 2l-113 -2v35l71 10l63 348l24 82l-258 -474h-59l-87 373l-8 97z" />
    <glyph glyph-name="N.sc" horiz-adv-x="596" 
d="M136 44l66 -10l-8 -35l-88 2l-91 -2l1 35l69 10l75 422l-64 9l9 35l73 -2l65 2l195 -307l13 -75l58 338l-63 9l8 35l84 -2l93 2v-35l-71 -9l-82 -466h-53l-211 355l-10 74z" />
    <glyph glyph-name="Nacute.002" horiz-adv-x="706" 
d="M376 750l84 100h110l-136 -100h-58zM140 47l83 -13l-10 -35l-107 3l-116 -3v35l90 13l95 599l-83 20l10 35l93 -3l69 3l251 -490l17 -76l77 518l-83 13l10 35l107 -3l118 3v-35l-92 -13l-103 -653h-56l-270 536l-10 82z" />
    <glyph glyph-name="Nacute.sc" horiz-adv-x="596" 
d="M330 560l50 99h102l-111 -99h-41zM136 44l66 -10l-8 -35l-88 2l-91 -2l1 35l69 10l75 422l-64 9l9 35l73 -2l65 2l195 -307l13 -75l58 338l-63 9l8 35l84 -2l93 2v-35l-71 -9l-82 -466h-53l-211 355l-10 74z" />
    <glyph glyph-name="Ncaron.002" horiz-adv-x="706" 
d="M583 850l-124 -100h-83l-90 100h58l80 -54l101 54h58zM140 47l83 -13l-10 -35l-107 3l-116 -3v35l90 13l95 599l-83 20l10 35l93 -3l69 3l251 -490l17 -76l77 518l-83 13l10 35l107 -3l118 3v-35l-92 -13l-103 -653h-56l-270 536l-10 82z" />
    <glyph glyph-name="Ncaron.sc" horiz-adv-x="596" 
d="M486 659l-92 -99h-73l-54 99h46l54 -47l73 47h46zM136 44l66 -10l-8 -35l-88 2l-91 -2l1 35l69 10l75 422l-64 9l9 35l73 -2l65 2l195 -307l13 -75l58 338l-63 9l8 35l84 -2l93 2v-35l-71 -9l-82 -466h-53l-211 355l-10 74z" />
    <glyph glyph-name="Ncommaaccent.001" horiz-adv-x="706" 
d="M295 -94l-33 24l8 45h100l-13 -73l-78 -75l-28 12zM140 47l83 -13l-10 -35l-107 3l-116 -3v35l90 13l95 599l-83 20l10 35l93 -3l69 3l251 -490l17 -76l77 518l-83 13l10 35l107 -3l118 3v-35l-92 -13l-103 -653h-56l-270 536l-10 82z" />
    <glyph glyph-name="Ncommaaccent.sc" horiz-adv-x="596" 
d="M227 -66l6 30h86l-11 -59l-69 -89l-32 7l34 86zM136 44l66 -10l-8 -35l-88 2l-91 -2l1 35l69 10l75 422l-64 9l9 35l73 -2l65 2l195 -307l13 -75l58 338l-63 9l8 35l84 -2l93 2v-35l-71 -9l-82 -466h-53l-211 355l-10 74z" />
    <glyph glyph-name="Ntilde.002" horiz-adv-x="706" 
d="M330 830l69 19l137 -57l49 58h20l-43 -90l-67 -14l-138 57l-48 -58h-20zM140 47l83 -13l-10 -35l-107 3l-116 -3v35l90 13l95 599l-83 20l10 35l93 -3l69 3l251 -490l17 -76l77 518l-83 13l10 35l107 -3l118 3v-35l-92 -13l-103 -653h-56l-270 536l-10 82z" />
    <glyph glyph-name="Ntilde.sc" horiz-adv-x="596" 
d="M282 642l56 16l117 -39l37 38h19l-36 -84l-55 -13l-117 40l-37 -38h-19zM136 44l66 -10l-8 -35l-88 2l-91 -2l1 35l69 10l75 422l-64 9l9 35l73 -2l65 2l195 -307l13 -75l58 338l-63 9l8 35l84 -2l93 2v-35l-71 -9l-82 -466h-53l-211 355l-10 74z" />
    <glyph glyph-name="O.sc" horiz-adv-x="584" 
d="M276 -13q-51 0 -92 16.5t-69.5 46.5t-44 72.5t-15.5 95.5q0 42 12.5 85t40 81t72 69t107.5 50l66 20q51 0 92 -16.5t69.5 -46.5t44 -73t15.5 -95q0 -42 -12.5 -85t-40.5 -81t-72.5 -69t-107.5 -50zM321 475q-78 -30 -121 -95t-43 -152q0 -41 11.5 -74t32 -58t48 -40.5
t59.5 -21.5q78 31 121 96t43 151q0 41 -12 74.5t-32 58t-48 40t-59 21.5z" />
    <glyph glyph-name="OE.sc" horiz-adv-x="774" 
d="M321 475q-78 -30 -121 -95t-43 -152q0 -41 11.5 -74t32 -58t48 -40.5t59.5 -21.5l54 10l77 423zM490 508l284 2v-138h-32l-36 93l-174 2l-33 -178l89 3l49 77h28l-28 -102l-7 -101h-28l-20 78l-89 3l-38 -204l194 2l62 98h35l-37 -144l-308 2l-125 -14q-52 0 -93 16.5
t-69.5 46.5t-43.5 72.5t-15 95.5q0 42 12.5 85t40 81t72 69t107.5 50l66 20z" />
    <glyph glyph-name="Oacute.002" horiz-adv-x="695" 
d="M386 750l84 100h110l-136 -100h-58zM160 295q0 -65 16 -112.5t43 -79t63 -48.5t77 -21q49 19 89 55t68.5 84.5t43.5 107.5t15 124t-16 112.5t-43 79t-63 48t-77 21.5q-50 -19 -89.5 -55t-68 -84.5t-43.5 -107.5t-15 -124zM418 718q62 0 111.5 -20.5t84 -59.5t53 -94
t18.5 -124q0 -60 -15.5 -122.5t-50 -119t-89.5 -102t-133 -69.5l-80 -25q-62 0 -111.5 20.5t-84 59.5t-53 94t-18.5 124q0 60 15.5 122.5t50 119t89.5 102t133 69.5z" />
    <glyph glyph-name="Oacute.sc" horiz-adv-x="584" 
d="M325 560l50 99h103l-111 -99h-42zM260 -13q-51 0 -92 16.5t-69.5 46.5t-44 72.5t-15.5 95.5q0 42 12.5 85t40 81t72 69t107.5 50l66 20q51 0 92 -16.5t69.5 -46.5t44 -73t15.5 -95q0 -42 -12.5 -85t-40.5 -81t-72.5 -69t-107.5 -50zM305 475q-78 -30 -121 -95t-43 -152
q0 -41 11.5 -74t32 -58t48 -40.5t59.5 -21.5q78 31 121 96t43 151q0 41 -12 74.5t-32 58t-48 40t-59 21.5z" />
    <glyph glyph-name="Obreve.002" horiz-adv-x="695" 
d="M429 801q22 0 41 5.5t34.5 14t27 17.5t20.5 17l21 -10q-8 -9 -18 -22.5t-26 -27.5t-39.5 -29t-58.5 -27q-32 0 -53.5 10.5t-36 26.5t-23.5 34.5t-15 34.5l26 10q6 -8 13.5 -17t19.5 -17.5t28 -14t39 -5.5zM160 295q0 -65 16 -112.5t43 -79t63 -48.5t77 -21q49 19 89 55
t68.5 84.5t43.5 107.5t15 124t-16 112.5t-43 79t-63 48t-77 21.5q-50 -19 -89.5 -55t-68 -84.5t-43.5 -107.5t-15 -124zM418 718q62 0 111.5 -20.5t84 -59.5t53 -94t18.5 -124q0 -60 -15.5 -122.5t-50 -119t-89.5 -102t-133 -69.5l-80 -25q-62 0 -111.5 20.5t-84 59.5
t-53 94t-18.5 124q0 60 15.5 122.5t50 119t89.5 102t133 69.5z" />
    <glyph glyph-name="Obreve.sc" horiz-adv-x="584" 
d="M351 618q36 0 60.5 13.5t38.5 22.5l19 -20q-8 -12 -16.5 -22.5t-21.5 -20t-32 -19t-47 -18.5q-25 0 -43.5 7t-31 18.5t-21 25.5t-13.5 29l27 20q9 -9 27 -22.5t54 -13.5zM260 -13q-51 0 -92 16.5t-69.5 46.5t-44 72.5t-15.5 95.5q0 42 12.5 85t40 81t72 69t107.5 50
l66 20q51 0 92 -16.5t69.5 -46.5t44 -73t15.5 -95q0 -42 -12.5 -85t-40.5 -81t-72.5 -69t-107.5 -50zM305 475q-78 -30 -121 -95t-43 -152q0 -41 11.5 -74t32 -58t48 -40.5t59.5 -21.5q78 31 121 96t43 151q0 41 -12 74.5t-32 58t-48 40t-59 21.5z" />
    </font>
</defs>
</svg>
